G04 ================== begin FILE IDENTIFICATION RECORD ==================*
G04 Layout Name:  Lattice MACHXO3 STARTER KIT REVA.brd*
G04 Film Name:    BOTSOLD*
G04 File Format:  Gerber RS274X*
G04 File Origin:  Cadence Allegro 16.6-S021*
G04 Origin Date:  Tue Sep 23 23:04:21 2014*
G04 *
G04 Layer:  DRAWING FORMAT/SOLDERMASK_BOTTOM*
G04 Layer:  BOARD GEOMETRY/LOGO_M*
G04 Layer:  VIA CLASS/SOLDERMASK_BOTTOM*
G04 Layer:  PIN/SOLDERMASK_BOTTOM*
G04 Layer:  PACKAGE GEOMETRY/SOLDERMASK_BOTTOM*
G04 Layer:  BOARD GEOMETRY/OUTLINE*
G04 Layer:  BOARD GEOMETRY/SOLDERMASK_BOTTOM*
G04 *
G04 Offset:    (0.0000 0.0000)*
G04 Mirror:    No*
G04 Mode:      Positive*
G04 Rotation:  0*
G04 FullContactRelief:  No*
G04 UndefLineWidth:     0.1500*
G04 ================== end FILE IDENTIFICATION RECORD ====================*
%FSLAX35Y35*MOMM*%
%IR0*IPPOS*OFA0.00000B0.00000*MIA0B0*SFA1.00000B1.00000*%
%ADD19R,.7X2.3*%
%ADD17R,.6604X.6604*%
%ADD20C,1.*%
%ADD15C,3.*%
%ADD10C,4.01*%
%ADD21C,1.6*%
%ADD11C,1.7*%
%ADD14C,1.524*%
%ADD23R,1.6X1.6*%
%ADD12R,1.7X1.7*%
%ADD22R,1.397X1.6002*%
%ADD18R,1.524X1.524*%
%ADD16R,.9906X.9144*%
%ADD13R,.9144X.9906*%
%ADD24C,.15*%
G75*
%LPD*%
G75*
G36*
G01X894720Y-1192070D02*
G02X885360Y-1196660I-13486J15663D01*
G02X825270Y-1202420I-39054J91100D01*
G02X817470Y-1174820I643J15084D01*
G01X829470Y-1165820D01*
G03X887270Y-1107780I-66337J123863D01*
G03X846360Y-1034480I-55640J17013D01*
G03X789720Y-1027070I-56079J-208480D01*
G01X735930Y-1034540D01*
X723720Y-1036070D01*
X722220Y-1077970D01*
X720720Y-1093070D01*
X726720D01*
G02X739010Y-1088510I17439J-28159D01*
G01X753720Y-1084070D01*
G02X798270Y-1088420I15740J-69100D01*
G02X797970Y-1113320I-7348J-12363D01*
G01X784470Y-1123820D01*
G03X730920Y-1174670I59340J-116112D01*
G01X726720Y-1180070D01*
G03X749970Y-1240820I62809J-10786D01*
G03X789900Y-1256600I63610J102551D01*
G01X813720Y-1261070D01*
X864960Y-1256530D01*
X897430Y-1250630D01*
G03X902230Y-1224920I-66570J25732D01*
G01X905200Y-1195220D01*
X906720Y-1189070D01*
X900720D01*
X894720Y-1192070D01*
G37*
G36*
G01X1188720Y-1294070D02*
G02X1167720Y-1303070I-29379J39551D01*
G01X1134720D01*
X1126170Y-1298720D01*
G02X1103520Y-1270670I53830J66637D01*
G01X1101720Y-1270070D01*
Y-1252070D01*
X1172370Y-1044620D01*
X1176720Y-1033070D01*
X1092720D01*
X1058180Y-1168320D01*
X1056720Y-1186070D01*
X1050720D01*
X1049130Y-1179720D01*
X1046310Y-1168420D01*
X1009920Y-1065470D01*
X1007070Y-1059620D01*
G03X1001520Y-1045670I-55408J-13965D01*
G01X997470Y-1035320D01*
X996720Y-1033070D01*
X915720D01*
G02X923070Y-1050620I-77520J-42780D01*
G01X1028520Y-1291670D01*
G03X1078320Y-1349870I95219J31070D01*
G03X1176510Y-1355600I56729J127960D01*
G03X1188720Y-1294070I-87250J49290D01*
G37*
G36*
G01X1374270Y-1193720D02*
X1344720Y-1204070D01*
X1308720D01*
X1308270Y-1202420D01*
G02X1297470Y-1197320I432J14901D01*
G01X1293720Y-1195070D01*
Y-1180070D01*
G03X1303470Y-1171820I-22620J36619D01*
G01X1328970Y-1152320D01*
G03X1342470Y-1141820I-21010J40941D01*
G01X1343970Y-1140320D01*
G03X1357920Y-1126670I-8232J22366D01*
G03X1317530Y-1031550I-43480J37673D01*
G01X1293720Y-1027070D01*
X1239850Y-1031560D01*
X1239530Y-1031600D01*
X1215270Y-1034720D01*
X1210850Y-1037310D01*
X1205230Y-1065920D01*
X1203720Y-1093070D01*
X1210170Y-1091420D01*
G02X1272720Y-1084070I46219J-123502D01*
G01X1273170Y-1085720D01*
G02X1283970Y-1090820I-432J-14901D01*
G02X1285920Y-1105670I-2881J-7931D01*
G02X1271970Y-1119320I-35161J21981D01*
G01X1252320Y-1133270D01*
X1220970Y-1161320D01*
X1219920Y-1162670D01*
X1209720Y-1180070D01*
Y-1210070D01*
X1211370Y-1210520D01*
G03X1272900Y-1256600I68579J27452D01*
G01X1296530Y-1259550D01*
X1317720Y-1261070D01*
X1317870Y-1259560D01*
G03X1382230Y-1248920I3535J178592D01*
G01X1386720Y-1189070D01*
X1374270Y-1193720D01*
G37*
G36*
G01X2439720Y-1378070D02*
X2346930Y-1367600D01*
G02X2060970Y-1252820I60466J564251D01*
G01X2059470Y-1251320D01*
X2037720Y-1228070D01*
X2031720D01*
G02X1924070Y-1286480I-138798J127400D01*
G01X1857930Y-1298540D01*
X1821720Y-1303070D01*
X1695720Y-1300070D01*
X1719360Y-1295660D01*
G03X1892520Y-1212470I-50978J327921D01*
G01X1895970Y-1206320D01*
G03X1919130Y-1162420I-63691J61660D01*
G01X1920720Y-1111070D01*
X1913370Y-1093520D01*
X1910370Y-1084520D01*
X1895970Y-1060820D01*
X1883520Y-1042670D01*
G03X1642470Y-900320I-358763J-332249D01*
G01X1632720Y-898070D01*
X1674510Y-902540D01*
G02X1979970Y-1024820I-70818J-619572D01*
G02X2016720Y-1063070I-64679J-98922D01*
G01X2022720D01*
G02X2166360Y-992660I173942J-173130D01*
G02X2346720Y-979070I142896J-692829D01*
G01X2336970Y-981320D01*
G03X2158920Y-1075670I66877J-341381D01*
G03X2135310Y-1171420I88109J-72512D01*
G03X2227320Y-1289870I215683J72578D01*
G03X2439720Y-1378070I331958J499562D01*
G37*
G36*
G01X1575720Y-1192070D02*
X1572720D01*
G03X1584720Y-1249070I197593J11835D01*
G03X1611870Y-1256590I31196J59860D01*
G03X1704580Y-1256580I46328J250809D01*
G03X1775520Y-1212470I-10601J96149D01*
G03X1760520Y-1063670I-121099J62949D01*
G03X1629930Y-1031540I-94540J-102799D01*
G03X1567920Y-1066670I12797J-94882D01*
G01X1561920Y-1078670D01*
X1551720Y-1102070D01*
Y-1147070D01*
X1707720Y-1150070D01*
G02X1694970Y-1191320I-42071J-9592D01*
G02X1614430Y-1202510I-50995J71598D01*
G01X1575720Y-1195610D01*
Y-1192070D01*
G37*
G36*
G01X1421210Y-999960D02*
X1434720Y-1255070D01*
X1518720D01*
X1514220Y-1174170D01*
X1511220Y-1114150D01*
X1503720Y-958070D01*
X1419720D01*
X1418970Y-960320D01*
X1416720Y-961070D01*
X1419720D01*
X1421210Y-999960D01*
G37*
G36*
G01X2402200Y-1254130D02*
X2424530Y-1259550D01*
X2445720Y-1261070D01*
X2445930Y-1259540D01*
G03X2516070Y-1207520I4403J67359D01*
G01X2517720Y-1207070D01*
Y-1186070D01*
X2516070Y-1185620D01*
G03X2460270Y-1130420I-73999J-19001D01*
G01X2377070Y-1109660D01*
G02X2373720Y-1075070I8487J18279D01*
G02X2478120Y-1091270I20272J-213861D01*
G01X2484720Y-1093070D01*
Y-1084070D01*
X2483190Y-1083860D01*
G03X2474920Y-1043700I-163040J-12643D01*
G03X2382850Y-1028580I-103347J-341431D01*
G03X2299470Y-1045820I-18681J-119901D01*
G03X2282130Y-1066420I14890J-30131D01*
G01X2279310Y-1077720D01*
X2277720Y-1108070D01*
X2279220Y-1108180D01*
X2286720Y-1255070D01*
X2370720D01*
Y-1243070D01*
X2369210Y-1242970D01*
X2364720Y-1201070D01*
Y-1156070D01*
X2415270Y-1172420D01*
G02X2418720Y-1216070I-1820J-22105D01*
G01X2389230Y-1213120D01*
G03X2402200Y-1254130I164110J29346D01*
G37*
%LPC*%
G75*
G36*
G01X1704720Y-1120070D02*
Y-1105070D01*
X1702920Y-1104470D01*
G03X1669070Y-1076660I-38776J-12692D01*
G01X1659720Y-1075070D01*
X1659360Y-1076660D01*
G03X1629720Y-1120070I2969J-33851D01*
G01X1704720D01*
G37*
%LPD*%
G75*
G54D10*
X400000Y400000D03*
Y7220000D03*
X7220000Y400000D03*
Y7220000D03*
G54D11*
X254000Y1524000D03*
Y1778000D03*
Y2032000D03*
Y2286000D03*
Y2540000D03*
Y2794000D03*
Y3048000D03*
Y3302000D03*
Y3556000D03*
Y3810000D03*
Y4064000D03*
Y4318000D03*
Y4572000D03*
Y4826000D03*
Y5080000D03*
Y5334000D03*
Y5588000D03*
Y5842000D03*
Y6096000D03*
X508000Y1524000D03*
Y1778000D03*
Y2032000D03*
Y2286000D03*
Y2540000D03*
Y2794000D03*
Y3048000D03*
Y3302000D03*
Y3556000D03*
Y3810000D03*
Y4064000D03*
Y4318000D03*
Y4572000D03*
Y4826000D03*
Y5080000D03*
Y5334000D03*
Y5588000D03*
Y5842000D03*
Y6350000D03*
Y6096000D03*
X900000Y520000D03*
X1154000D03*
X1168400Y1524000D03*
Y1778000D03*
Y2032000D03*
Y2286000D03*
Y2540000D03*
Y2794000D03*
Y3048000D03*
Y3302000D03*
Y3556000D03*
Y3810000D03*
Y4064000D03*
Y4318000D03*
Y4572000D03*
Y4826000D03*
Y5080000D03*
Y5334000D03*
Y5588000D03*
Y5842000D03*
Y6096000D03*
X1408000Y520000D03*
X1662000D03*
X1916000D03*
X1422400Y1524000D03*
Y1778000D03*
Y2032000D03*
Y2286000D03*
Y2540000D03*
Y2794000D03*
Y3048000D03*
Y3302000D03*
Y3556000D03*
Y3810000D03*
Y4064000D03*
Y4318000D03*
Y4572000D03*
Y4826000D03*
Y5080000D03*
Y5334000D03*
Y5588000D03*
Y5842000D03*
Y6350000D03*
Y6096000D03*
X2384000Y6934000D03*
X2130000D03*
X2384000Y6680000D03*
X2130000D03*
X2384000Y7188000D03*
X2130000D03*
X2384000Y7442000D03*
X2130000D03*
X2892000Y6934000D03*
X2638000D03*
X2892000Y6680000D03*
X2638000D03*
X2892000Y7188000D03*
X2638000D03*
X2892000Y7442000D03*
X2638000D03*
X3400000Y6934000D03*
X3146000D03*
X3400000Y6680000D03*
X3146000D03*
X3400000Y7188000D03*
X3146000D03*
X3400000Y7442000D03*
X3146000D03*
X4162000Y6934000D03*
Y6680000D03*
X3908000Y6934000D03*
X3654000D03*
X3908000Y6680000D03*
X3654000D03*
X4162000Y7442000D03*
Y7188000D03*
X3908000D03*
X3654000D03*
X3908000Y7442000D03*
X3654000D03*
X4416000Y6934000D03*
Y6680000D03*
Y7442000D03*
Y7188000D03*
X6197600Y1524000D03*
Y1778000D03*
Y2032000D03*
Y2286000D03*
Y2540000D03*
Y2794000D03*
Y3048000D03*
Y3302000D03*
Y3556000D03*
Y3810000D03*
Y4064000D03*
Y4318000D03*
Y4572000D03*
Y4826000D03*
Y5080000D03*
Y5334000D03*
Y5588000D03*
Y5842000D03*
Y6096000D03*
X6451600Y1524000D03*
Y1778000D03*
Y2032000D03*
Y2286000D03*
Y2540000D03*
Y2794000D03*
Y3048000D03*
Y3302000D03*
Y3556000D03*
Y3810000D03*
Y4064000D03*
Y4318000D03*
Y4572000D03*
Y4826000D03*
Y5080000D03*
Y5334000D03*
Y5588000D03*
Y5842000D03*
Y6350000D03*
Y6096000D03*
X7112000Y1524000D03*
Y1778000D03*
X7366000Y1524000D03*
Y1778000D03*
X7112000Y2032000D03*
Y2286000D03*
X7366000Y2032000D03*
Y2286000D03*
X7112000Y2540000D03*
Y2794000D03*
Y3048000D03*
X7366000Y2540000D03*
Y2794000D03*
Y3048000D03*
X7112000Y3302000D03*
Y3556000D03*
X7366000Y3302000D03*
Y3556000D03*
X7112000Y3810000D03*
X7366000D03*
X7112000Y4064000D03*
X7366000D03*
X7112000Y4318000D03*
Y4572000D03*
X7366000Y4318000D03*
Y4572000D03*
X7112000Y4826000D03*
Y5080000D03*
X7366000Y4826000D03*
Y5080000D03*
X7112000Y5334000D03*
Y5588000D03*
Y5842000D03*
X7366000Y5334000D03*
Y5588000D03*
Y5842000D03*
X7112000Y6096000D03*
X7366000Y6350000D03*
Y6096000D03*
G54D20*
X3900000Y500000D03*
X4340000D03*
G54D12*
X254000Y6350000D03*
X820000Y6600000D03*
X1168400Y6350000D03*
X1620000Y6600000D03*
X2170000Y520000D03*
X2480000Y710000D03*
Y1370000D03*
Y930000D03*
Y1150000D03*
X2810000Y4620000D03*
X3860000Y3450000D03*
X4550000Y5780000D03*
X4920000Y1250000D03*
Y1470000D03*
X4860000Y5780000D03*
Y6000000D03*
X6197600Y6350000D03*
X7030000Y1230000D03*
Y980000D03*
X7112000Y6350000D03*
G54D21*
X5112000Y6608000D03*
X4858000D03*
Y7370000D03*
X5112000D03*
X5620000Y6608000D03*
X5366000D03*
Y7370000D03*
G54D13*
X530150Y850000D03*
X669850D03*
X250150D03*
X389850D03*
X2360150Y220000D03*
Y520000D03*
X2059850Y710000D03*
X1920150D03*
X2360150Y370000D03*
X2499850Y220000D03*
Y520000D03*
Y370000D03*
X2920150Y3840000D03*
X3329850Y2090000D03*
X3190150D03*
X3329850Y1950000D03*
X3190150D03*
X3059850Y3840000D03*
X3989850Y1870000D03*
X3850150D03*
X4000150Y1460000D03*
X3859850D03*
X3720150D03*
X3989850Y2020000D03*
X3850150D03*
X4260150Y690000D03*
X4399850D03*
X4279850Y1870000D03*
X4140150D03*
X4139850Y1460000D03*
X4279850Y2020000D03*
X4140150D03*
X4950150Y4120000D03*
X5089850D03*
X4950150Y4400000D03*
X5089850D03*
X4950150Y4260000D03*
X5089850D03*
Y4910000D03*
X4950150D03*
X5489850Y1210000D03*
X5350150D03*
X6710150Y950000D03*
X6849850D03*
G54D22*
X5495000Y900000D03*
X5305000D03*
X6355000Y950000D03*
X6545000D03*
G54D23*
X5620000Y7370000D03*
G54D14*
X392000Y1020000D03*
X646000D03*
X1154000D03*
X900000D03*
X1916000D03*
X1662000D03*
X1408000D03*
G54D24*
G01X-107300Y-2664600D02*
X7893700D01*
G01X-107300Y-759600D02*
Y-2664600D01*
G01X459970Y-2309000D02*
Y-2156600D01*
X417630D01*
X404090Y-2164220D01*
X395620Y-2174380D01*
X392230Y-2194700D01*
X395620Y-2215020D01*
X405780Y-2227720D01*
X417630Y-2235340D01*
X459970D01*
G01X417630D02*
X392230Y-2309000D01*
G01X260150D02*
X327890D01*
Y-2156600D01*
X260150D01*
G01X287250Y-2230260D02*
X327890D01*
G01X204280Y-2156600D02*
X161940Y-2309000D01*
X119600Y-2156600D01*
G01X-107300Y-2095640D02*
X4909200D01*
G01X-107300Y-1524140D02*
X4909200D01*
G01X7893700Y-759600D02*
X-107300D01*
G01X0Y0D02*
X7620000D01*
Y7620000D01*
X0D01*
Y0D01*
G01X313910Y-2603640D02*
X273700Y-2476640D01*
X233490Y-2603640D01*
G01X247970Y-2559190D02*
X299440D01*
G01X654700Y-2095640D02*
Y-2664600D01*
G01X3576520Y-2032140D02*
Y-1905140D01*
X3534700Y-2010970D01*
X3492880Y-1905140D01*
Y-2032140D01*
G01X3445410D02*
X3405200Y-1905140D01*
X3364990Y-2032140D01*
G01X3379470Y-1987690D02*
X3430940D01*
G01X3240320Y-1915720D02*
X3249970Y-1909370D01*
X3261220Y-1905140D01*
X3274090D01*
X3288570Y-1911490D01*
X3299820Y-1922070D01*
X3307870Y-1934770D01*
X3314300Y-1955940D01*
X3315910Y-1974990D01*
X3312690Y-1994040D01*
X3307870Y-2006740D01*
X3298220Y-2019440D01*
X3286960Y-2027910D01*
X3275700Y-2032140D01*
X3264440D01*
X3253180Y-2027910D01*
X3243530Y-2021560D01*
X3235490Y-2013090D01*
G01X3179980Y-2032140D02*
Y-1905140D01*
G01X3112420D02*
Y-2032140D01*
G01Y-1968640D02*
X3179980D01*
G01X3050480Y-2032140D02*
X2982920Y-1905140D01*
G01X3050480D02*
X2982920Y-2032140D01*
G01X2887200D02*
X2900070Y-2030020D01*
X2911320Y-2021560D01*
X2920980Y-2008860D01*
X2927410Y-1994040D01*
X2930630Y-1977110D01*
Y-1960170D01*
X2927410Y-1943240D01*
X2920980Y-1928420D01*
X2911320Y-1915720D01*
X2900070Y-1907260D01*
X2887200Y-1905140D01*
X2874330Y-1907260D01*
X2863080Y-1915720D01*
X2853420Y-1928420D01*
X2846990Y-1943240D01*
X2843770Y-1960170D01*
Y-1977110D01*
X2846990Y-1994040D01*
X2853420Y-2008860D01*
X2863080Y-2021560D01*
X2874330Y-2030020D01*
X2887200Y-2032140D01*
G01X2793080Y-2006740D02*
X2783440Y-2021560D01*
X2770570Y-2030020D01*
X2756090Y-2032140D01*
X2743220Y-2030020D01*
X2730360Y-2019440D01*
X2722320Y-2006740D01*
X2720710Y-1994040D01*
X2723920Y-1979230D01*
X2735180Y-1968640D01*
X2746440Y-1964410D01*
X2760920D01*
G01X2746440D02*
X2736790Y-1958060D01*
X2728750Y-1947480D01*
X2725530Y-1934770D01*
X2728750Y-1922070D01*
X2736790Y-1911490D01*
X2751270Y-1905140D01*
X2765740Y-1907260D01*
X2780220Y-1915720D01*
G01X2532480Y-2015210D02*
X2519610Y-2025790D01*
X2505130Y-2032140D01*
X2492270D01*
X2479400Y-2025790D01*
X2469750Y-2015210D01*
X2464920Y-2000390D01*
X2468140Y-1985580D01*
X2476180Y-1972870D01*
X2490660Y-1964410D01*
X2509960Y-1960170D01*
X2521220Y-1951710D01*
X2526040Y-1936890D01*
X2522820Y-1922070D01*
X2514780Y-1911490D01*
X2503530Y-1905140D01*
X2492270D01*
X2481010Y-1909370D01*
X2471360Y-1919960D01*
G01X2369200Y-1905140D02*
Y-2032140D01*
G01X2406190Y-1905140D02*
X2332210D01*
G01X2279910Y-2032140D02*
X2239700Y-1905140D01*
X2199490Y-2032140D01*
G01X2213970Y-1987690D02*
X2265440D01*
G01X2142370Y-2032140D02*
Y-1905140D01*
X2102160D01*
X2089290Y-1911490D01*
X2081250Y-1919960D01*
X2078030Y-1936890D01*
X2081250Y-1953820D01*
X2090900Y-1964410D01*
X2102160Y-1970760D01*
X2142370D01*
G01X2102160D02*
X2078030Y-2032140D01*
G01X1980700Y-1905140D02*
Y-2032140D01*
G01X2017690Y-1905140D02*
X1943710D01*
G01X1819030Y-2032140D02*
X1883370D01*
Y-1905140D01*
X1819030D01*
G01X1844770Y-1966520D02*
X1883370D01*
G01X1753870Y-2032140D02*
Y-1905140D01*
X1713660D01*
X1700790Y-1911490D01*
X1692750Y-1919960D01*
X1689530Y-1936890D01*
X1692750Y-1953820D01*
X1702400Y-1964410D01*
X1713660Y-1970760D01*
X1753870D01*
G01X1713660D02*
X1689530Y-2032140D01*
G01X1498080D02*
Y-1905140D01*
G01X1436970D02*
X1498080Y-1983460D01*
G01X1427320Y-2032140D02*
X1470740Y-1947480D01*
G01X1352500Y-1905140D02*
X1313900D01*
G01X1333200D02*
Y-2032140D01*
G01X1352500D02*
X1313900D01*
G01X1203700Y-1905140D02*
Y-2032140D01*
G01X1240690Y-1905140D02*
X1166710D01*
G01X4011370Y-2476640D02*
Y-2603640D01*
X3947030D01*
G01X3814320Y-2487220D02*
X3823970Y-2480870D01*
X3835220Y-2476640D01*
X3848090D01*
X3862570Y-2482990D01*
X3873820Y-2493570D01*
X3881870Y-2506270D01*
X3888300Y-2527440D01*
X3889910Y-2546490D01*
X3886690Y-2565540D01*
X3881870Y-2578240D01*
X3872220Y-2590940D01*
X3860960Y-2599410D01*
X3849700Y-2603640D01*
X3838440D01*
X3827180Y-2599410D01*
X3817530Y-2593060D01*
X3809490Y-2584590D01*
G01X3762020Y-2603640D02*
Y-2476640D01*
X3720200Y-2582470D01*
X3678380Y-2476640D01*
Y-2603640D01*
G01X3624480D02*
X3556920Y-2476640D01*
G01X3624480D02*
X3556920Y-2603640D01*
G01X3461200D02*
X3474070Y-2601520D01*
X3485320Y-2593060D01*
X3494980Y-2580360D01*
X3501410Y-2565540D01*
X3504630Y-2548610D01*
Y-2531670D01*
X3501410Y-2514740D01*
X3494980Y-2499920D01*
X3485320Y-2487220D01*
X3474070Y-2478760D01*
X3461200Y-2476640D01*
X3448330Y-2478760D01*
X3437080Y-2487220D01*
X3427420Y-2499920D01*
X3420990Y-2514740D01*
X3417770Y-2531670D01*
Y-2548610D01*
X3420990Y-2565540D01*
X3427420Y-2580360D01*
X3437080Y-2593060D01*
X3448330Y-2601520D01*
X3461200Y-2603640D01*
G01X3367080Y-2578240D02*
X3357440Y-2593060D01*
X3344570Y-2601520D01*
X3330090Y-2603640D01*
X3317220Y-2601520D01*
X3304360Y-2590940D01*
X3296320Y-2578240D01*
X3294710Y-2565540D01*
X3297920Y-2550730D01*
X3309180Y-2540140D01*
X3320440Y-2535910D01*
X3334920D01*
G01X3320440D02*
X3310790Y-2529560D01*
X3302750Y-2518980D01*
X3299530Y-2506270D01*
X3302750Y-2493570D01*
X3310790Y-2482990D01*
X3325270Y-2476640D01*
X3339740Y-2478760D01*
X3354220Y-2487220D01*
G01X3234370Y-2476640D02*
Y-2603640D01*
X3170030D01*
G01X3093610Y-2561310D02*
X3051790D01*
G01X2973760Y-2550730D02*
X2962500Y-2535910D01*
X2952850Y-2527440D01*
X2939980Y-2523210D01*
X2928720Y-2527440D01*
X2920680Y-2535910D01*
X2914250Y-2548610D01*
X2912640Y-2563420D01*
X2914250Y-2576130D01*
X2920680Y-2588830D01*
X2930330Y-2599410D01*
X2941590Y-2603640D01*
X2954460Y-2599410D01*
X2965720Y-2586710D01*
X2972150Y-2567660D01*
X2973760Y-2546490D01*
X2970540Y-2518980D01*
X2965720Y-2504150D01*
X2957680Y-2489340D01*
X2946420Y-2478760D01*
X2935160Y-2476640D01*
X2923900Y-2480870D01*
X2915860Y-2491460D01*
G01X2841040Y-2588830D02*
X2829780Y-2599410D01*
X2816920Y-2603640D01*
X2804050Y-2599410D01*
X2792790Y-2586710D01*
X2784750Y-2567660D01*
X2781530Y-2548610D01*
Y-2525320D01*
X2784750Y-2506270D01*
X2792790Y-2489340D01*
X2802440Y-2480870D01*
X2813700Y-2476640D01*
X2826570Y-2480870D01*
X2836220Y-2489340D01*
X2842650Y-2502040D01*
X2845870Y-2518980D01*
X2842650Y-2533790D01*
X2834610Y-2548610D01*
X2824960Y-2557080D01*
X2813700Y-2559190D01*
X2800830Y-2554960D01*
X2791180Y-2544370D01*
X2781530Y-2525320D01*
G01X2684200Y-2476640D02*
X2697070Y-2480870D01*
X2706720Y-2491460D01*
X2713150Y-2504150D01*
X2717980Y-2521090D01*
X2719580Y-2540140D01*
X2717980Y-2559190D01*
X2713150Y-2576130D01*
X2706720Y-2588830D01*
X2697070Y-2599410D01*
X2684200Y-2603640D01*
X2671330Y-2599410D01*
X2661680Y-2588830D01*
X2655250Y-2576130D01*
X2650420Y-2559190D01*
X2648820Y-2540140D01*
X2650420Y-2521090D01*
X2655250Y-2504150D01*
X2661680Y-2491460D01*
X2671330Y-2480870D01*
X2684200Y-2476640D01*
G01X2554700D02*
X2567570Y-2480870D01*
X2577220Y-2491460D01*
X2583650Y-2504150D01*
X2588480Y-2521090D01*
X2590080Y-2540140D01*
X2588480Y-2559190D01*
X2583650Y-2576130D01*
X2577220Y-2588830D01*
X2567570Y-2599410D01*
X2554700Y-2603640D01*
X2541830Y-2599410D01*
X2532180Y-2588830D01*
X2525750Y-2576130D01*
X2520920Y-2559190D01*
X2519320Y-2540140D01*
X2520920Y-2521090D01*
X2525750Y-2504150D01*
X2532180Y-2491460D01*
X2541830Y-2480870D01*
X2554700Y-2476640D01*
G01X2389820Y-2487220D02*
X2399470Y-2480870D01*
X2410720Y-2476640D01*
X2423590D01*
X2438070Y-2482990D01*
X2449320Y-2493570D01*
X2457370Y-2506270D01*
X2463800Y-2527440D01*
X2465410Y-2546490D01*
X2462190Y-2565540D01*
X2457370Y-2578240D01*
X2447720Y-2590940D01*
X2436460Y-2599410D01*
X2425200Y-2603640D01*
X2413940D01*
X2402680Y-2599410D01*
X2393030Y-2593060D01*
X2384990Y-2584590D01*
G01X2316610Y-2561310D02*
X2274790D01*
G01X2199980Y-2586710D02*
X2187110Y-2597290D01*
X2172630Y-2603640D01*
X2159770D01*
X2146900Y-2597290D01*
X2137250Y-2586710D01*
X2132420Y-2571890D01*
X2135640Y-2557080D01*
X2143680Y-2544370D01*
X2158160Y-2535910D01*
X2177460Y-2531670D01*
X2188720Y-2523210D01*
X2193540Y-2508390D01*
X2190320Y-2493570D01*
X2182280Y-2482990D01*
X2171030Y-2476640D01*
X2159770D01*
X2148510Y-2480870D01*
X2138860Y-2491460D01*
G01X2057610Y-2561310D02*
X2015790D01*
G01X1875030Y-2603640D02*
X1939370D01*
Y-2476640D01*
X1875030D01*
G01X1900770Y-2538020D02*
X1939370D01*
G01X1817910Y-2476640D02*
X1777700Y-2603640D01*
X1737490Y-2476640D01*
G01X1685190Y-2603640D02*
Y-2476640D01*
X1611210Y-2603640D01*
Y-2476640D01*
G01X4841470Y-2309000D02*
Y-2156600D01*
X4800830D01*
X4787280Y-2164220D01*
X4777120Y-2182000D01*
X4773730Y-2202320D01*
X4777120Y-2222640D01*
X4785590Y-2237880D01*
X4800830Y-2245500D01*
X4841470D01*
G01X4709390Y-2309000D02*
Y-2156600D01*
X4667050D01*
X4653510Y-2164220D01*
X4645040Y-2174380D01*
X4641650Y-2194700D01*
X4645040Y-2215020D01*
X4655200Y-2227720D01*
X4667050Y-2235340D01*
X4709390D01*
G01X4667050D02*
X4641650Y-2309000D01*
G01X4543440D02*
X4556990Y-2306460D01*
X4568840Y-2296300D01*
X4579000Y-2281060D01*
X4585780Y-2263280D01*
X4589160Y-2242960D01*
Y-2222640D01*
X4585780Y-2202320D01*
X4579000Y-2184540D01*
X4568840Y-2169300D01*
X4556990Y-2159140D01*
X4543440Y-2156600D01*
X4529890Y-2159140D01*
X4518040Y-2169300D01*
X4507880Y-2184540D01*
X4501100Y-2202320D01*
X4497720Y-2222640D01*
Y-2242960D01*
X4501100Y-2263280D01*
X4507880Y-2281060D01*
X4518040Y-2296300D01*
X4529890Y-2306460D01*
X4543440Y-2309000D01*
G01X4445230Y-2278520D02*
X4436760Y-2293760D01*
X4426600Y-2303920D01*
X4414750Y-2309000D01*
X4401200Y-2303920D01*
X4391040Y-2293760D01*
X4380880Y-2278520D01*
X4377490Y-2258200D01*
Y-2156600D01*
G01X4245410Y-2309000D02*
X4313150D01*
Y-2156600D01*
X4245410D01*
G01X4272510Y-2230260D02*
X4313150D01*
G01X4109950Y-2169300D02*
X4120110Y-2161680D01*
X4131960Y-2156600D01*
X4145510D01*
X4160750Y-2164220D01*
X4172600Y-2176920D01*
X4181070Y-2192160D01*
X4187840Y-2217560D01*
X4189540Y-2240420D01*
X4186150Y-2263280D01*
X4181070Y-2278520D01*
X4170910Y-2293760D01*
X4159050Y-2303920D01*
X4147200Y-2309000D01*
X4135350D01*
X4123490Y-2303920D01*
X4113330Y-2296300D01*
X4104860Y-2286140D01*
G01X4015120Y-2156600D02*
Y-2309000D01*
G01X4054070Y-2156600D02*
X3976170D01*
G01X3789910Y-2309000D02*
Y-2156600D01*
X3712010Y-2309000D01*
Y-2156600D01*
G01X3656130D02*
Y-2265820D01*
X3649360Y-2288680D01*
X3635810Y-2303920D01*
X3618880Y-2309000D01*
X3601950Y-2303920D01*
X3588400Y-2288680D01*
X3581630Y-2265820D01*
Y-2156600D01*
G01X3530830Y-2309000D02*
Y-2156600D01*
X3486800Y-2283600D01*
X3442770Y-2156600D01*
Y-2309000D01*
G01X3341170Y-2227720D02*
X3334400Y-2220100D01*
X3329320Y-2207400D01*
X3325930Y-2189620D01*
X3329320Y-2174380D01*
X3336090Y-2164220D01*
X3347950Y-2156600D01*
X3393670D01*
Y-2309000D01*
X3337790D01*
X3325930Y-2298840D01*
X3319160Y-2283600D01*
X3315770Y-2265820D01*
X3319160Y-2248040D01*
X3329320Y-2232800D01*
X3341170Y-2227720D01*
X3393670D01*
G01X3188770Y-2309000D02*
X3256510D01*
Y-2156600D01*
X3188770D01*
G01X3215870Y-2230260D02*
X3256510D01*
G01X3124430Y-2309000D02*
Y-2156600D01*
X3082090D01*
X3068550Y-2164220D01*
X3060080Y-2174380D01*
X3056690Y-2194700D01*
X3060080Y-2215020D01*
X3070240Y-2227720D01*
X3082090Y-2235340D01*
X3124430D01*
G01X3082090D02*
X3056690Y-2309000D01*
G01X2958480Y-2314080D02*
X2961870Y-2311540D01*
Y-2306460D01*
X2958480Y-2303920D01*
X2955090Y-2306460D01*
Y-2311540D01*
X2958480Y-2314080D01*
G01Y-2245500D02*
X2961870Y-2242960D01*
Y-2237880D01*
X2958480Y-2235340D01*
X2955090Y-2237880D01*
Y-2242960D01*
X2958480Y-2245500D01*
G01X4841470Y-1737500D02*
Y-1585100D01*
X4800830D01*
X4787280Y-1592720D01*
X4777120Y-1610500D01*
X4773730Y-1630820D01*
X4777120Y-1651140D01*
X4785590Y-1666380D01*
X4800830Y-1674000D01*
X4841470D01*
G01X4709390Y-1737500D02*
Y-1585100D01*
X4667050D01*
X4653510Y-1592720D01*
X4645040Y-1602880D01*
X4641650Y-1623200D01*
X4645040Y-1643520D01*
X4655200Y-1656220D01*
X4667050Y-1663840D01*
X4709390D01*
G01X4667050D02*
X4641650Y-1737500D01*
G01X4543440D02*
X4556990Y-1734960D01*
X4568840Y-1724800D01*
X4579000Y-1709560D01*
X4585780Y-1691780D01*
X4589160Y-1671460D01*
Y-1651140D01*
X4585780Y-1630820D01*
X4579000Y-1613040D01*
X4568840Y-1597800D01*
X4556990Y-1587640D01*
X4543440Y-1585100D01*
X4529890Y-1587640D01*
X4518040Y-1597800D01*
X4507880Y-1613040D01*
X4501100Y-1630820D01*
X4497720Y-1651140D01*
Y-1671460D01*
X4501100Y-1691780D01*
X4507880Y-1709560D01*
X4518040Y-1724800D01*
X4529890Y-1734960D01*
X4543440Y-1737500D01*
G01X4445230Y-1707020D02*
X4436760Y-1722260D01*
X4426600Y-1732420D01*
X4414750Y-1737500D01*
X4401200Y-1732420D01*
X4391040Y-1722260D01*
X4380880Y-1707020D01*
X4377490Y-1686700D01*
Y-1585100D01*
G01X4245410Y-1737500D02*
X4313150D01*
Y-1585100D01*
X4245410D01*
G01X4272510Y-1658760D02*
X4313150D01*
G01X4109950Y-1597800D02*
X4120110Y-1590180D01*
X4131960Y-1585100D01*
X4145510D01*
X4160750Y-1592720D01*
X4172600Y-1605420D01*
X4181070Y-1620660D01*
X4187840Y-1646060D01*
X4189540Y-1668920D01*
X4186150Y-1691780D01*
X4181070Y-1707020D01*
X4170910Y-1722260D01*
X4159050Y-1732420D01*
X4147200Y-1737500D01*
X4135350D01*
X4123490Y-1732420D01*
X4113330Y-1724800D01*
X4104860Y-1714640D01*
G01X4015120Y-1585100D02*
Y-1737500D01*
G01X4054070Y-1585100D02*
X3976170D01*
G01X3789910Y-1737500D02*
Y-1585100D01*
X3712010Y-1737500D01*
Y-1585100D01*
G01X3661220Y-1737500D02*
X3618880Y-1585100D01*
X3576540Y-1737500D01*
G01X3591790Y-1684160D02*
X3645980D01*
G01X3530830Y-1737500D02*
Y-1585100D01*
X3486800Y-1712100D01*
X3442770Y-1585100D01*
Y-1737500D01*
G01X3320850D02*
X3388590D01*
Y-1585100D01*
X3320850D01*
G01X3347950Y-1658760D02*
X3388590D01*
G01X3222640Y-1742580D02*
X3226030Y-1740040D01*
Y-1734960D01*
X3222640Y-1732420D01*
X3219250Y-1734960D01*
Y-1740040D01*
X3222640Y-1742580D01*
G01Y-1674000D02*
X3226030Y-1671460D01*
Y-1666380D01*
X3222640Y-1663840D01*
X3219250Y-1666380D01*
Y-1671460D01*
X3222640Y-1674000D01*
G01X4770350Y-835800D02*
X4780510Y-828180D01*
X4792360Y-823100D01*
X4805910D01*
X4821150Y-830720D01*
X4833000Y-843420D01*
X4841470Y-858660D01*
X4848240Y-884060D01*
X4849940Y-906920D01*
X4846550Y-929780D01*
X4841470Y-945020D01*
X4831310Y-960260D01*
X4819450Y-970420D01*
X4807600Y-975500D01*
X4795750D01*
X4783890Y-970420D01*
X4773730Y-962800D01*
X4765260Y-952640D01*
G01X4675520Y-975500D02*
X4689070Y-972960D01*
X4700920Y-962800D01*
X4711080Y-947560D01*
X4717860Y-929780D01*
X4721240Y-909460D01*
Y-889140D01*
X4717860Y-868820D01*
X4711080Y-851040D01*
X4700920Y-835800D01*
X4689070Y-825640D01*
X4675520Y-823100D01*
X4661970Y-825640D01*
X4650120Y-835800D01*
X4639960Y-851040D01*
X4633180Y-868820D01*
X4629800Y-889140D01*
Y-909460D01*
X4633180Y-929780D01*
X4639960Y-947560D01*
X4650120Y-962800D01*
X4661970Y-972960D01*
X4675520Y-975500D01*
G01X4587470D02*
Y-823100D01*
X4543440Y-950100D01*
X4499410Y-823100D01*
Y-975500D01*
G01X4445230D02*
Y-823100D01*
X4404590D01*
X4391040Y-830720D01*
X4380880Y-848500D01*
X4377490Y-868820D01*
X4380880Y-889140D01*
X4389350Y-904380D01*
X4404590Y-912000D01*
X4445230D01*
G01X4321620Y-975500D02*
X4279280Y-823100D01*
X4236940Y-975500D01*
G01X4252190Y-922160D02*
X4306380D01*
G01X4186150Y-975500D02*
Y-823100D01*
X4108250Y-975500D01*
Y-823100D01*
G01X4015120Y-975500D02*
Y-906920D01*
X4048990Y-823100D01*
G01X3981250D02*
X4015120Y-906920D01*
G01X3789910Y-975500D02*
Y-823100D01*
X3712010Y-975500D01*
Y-823100D01*
G01X3661220Y-975500D02*
X3618880Y-823100D01*
X3576540Y-975500D01*
G01X3591790Y-922160D02*
X3645980D01*
G01X3530830Y-975500D02*
Y-823100D01*
X3486800Y-950100D01*
X3442770Y-823100D01*
Y-975500D01*
G01X3320850D02*
X3388590D01*
Y-823100D01*
X3320850D01*
G01X3347950Y-896760D02*
X3388590D01*
G01X3222640Y-980580D02*
X3226030Y-978040D01*
Y-972960D01*
X3222640Y-970420D01*
X3219250Y-972960D01*
Y-978040D01*
X3222640Y-980580D01*
G01Y-912000D02*
X3226030Y-909460D01*
Y-904380D01*
X3222640Y-901840D01*
X3219250Y-904380D01*
Y-909460D01*
X3222640Y-912000D01*
G01X4909200Y-759600D02*
Y-2664600D01*
G01Y-2298840D02*
X7893700D01*
G01X4909200Y-1917840D02*
X7893700D01*
G01X4909200Y-1524140D02*
X7893700D01*
G01X7832060Y-1801000D02*
Y-1674000D01*
X7804970D01*
X7794130Y-1680350D01*
X7786000Y-1688820D01*
X7779230Y-1701510D01*
X7773810Y-1716340D01*
X7772460Y-1737500D01*
X7773810Y-1758670D01*
X7779230Y-1773490D01*
X7786000Y-1786190D01*
X7794130Y-1794650D01*
X7804970Y-1801000D01*
X7832060D01*
G01X7668490D02*
X7722670D01*
Y-1674000D01*
X7668490D01*
G01X7690160Y-1735380D02*
X7722670D01*
G01X7617350Y-1784070D02*
X7606510Y-1794650D01*
X7594320Y-1801000D01*
X7583480D01*
X7572640Y-1794650D01*
X7564520Y-1784070D01*
X7560450Y-1769250D01*
X7563160Y-1754440D01*
X7569930Y-1741730D01*
X7582130Y-1733270D01*
X7598380Y-1729030D01*
X7607870Y-1720570D01*
X7611930Y-1705750D01*
X7609220Y-1690930D01*
X7602450Y-1680350D01*
X7592960Y-1674000D01*
X7583480D01*
X7574000Y-1678230D01*
X7565870Y-1688820D01*
G01X7498480Y-1674000D02*
X7465970D01*
G01X7482220D02*
Y-1801000D01*
G01X7498480D02*
X7465970D01*
G01X7367410Y-1737500D02*
X7340320D01*
Y-1775600D01*
X7348450Y-1788300D01*
X7357930Y-1796770D01*
X7371480Y-1801000D01*
X7385020Y-1796770D01*
X7394510Y-1788300D01*
X7402630Y-1775600D01*
X7408050Y-1760780D01*
X7410760Y-1743850D01*
Y-1729030D01*
X7408050Y-1716340D01*
X7402630Y-1701510D01*
X7394510Y-1688820D01*
X7386380Y-1680350D01*
X7375540Y-1674000D01*
X7366060D01*
X7355220Y-1678230D01*
X7347090Y-1686700D01*
G01X7300020Y-1801000D02*
Y-1674000D01*
X7237700Y-1801000D01*
Y-1674000D01*
G01X7135090Y-1801000D02*
X7189270D01*
Y-1674000D01*
X7135090D01*
G01X7156760Y-1735380D02*
X7189270D01*
G01X7082590Y-1801000D02*
Y-1674000D01*
X7048730D01*
X7037890Y-1680350D01*
X7031120Y-1688820D01*
X7028410Y-1705750D01*
X7031120Y-1722680D01*
X7039240Y-1733270D01*
X7048730Y-1739620D01*
X7082590D01*
G01X7048730D02*
X7028410Y-1801000D01*
G01X6948820Y-1805230D02*
X6951530Y-1803120D01*
Y-1798880D01*
X6948820Y-1796770D01*
X6946110Y-1798880D01*
Y-1803120D01*
X6948820Y-1805230D01*
G01Y-1748090D02*
X6951530Y-1745970D01*
Y-1741730D01*
X6948820Y-1739620D01*
X6946110Y-1741730D01*
Y-1745970D01*
X6948820Y-1748090D01*
G01X6869230Y-1674000D02*
Y-1801000D01*
X6815050D01*
G01X6708370D02*
X6762550D01*
Y-1674000D01*
X6708370D01*
G01X6730040Y-1735380D02*
X6762550D01*
G01X6659940Y-1801000D02*
Y-1674000D01*
X6597620Y-1801000D01*
Y-1674000D01*
G01X6553260Y-1801000D02*
Y-1674000D01*
X6490940Y-1801000D01*
Y-1674000D01*
G01X6415420Y-1801000D02*
X6426260Y-1798880D01*
X6435740Y-1790420D01*
X6443870Y-1777720D01*
X6449290Y-1762900D01*
X6452000Y-1745970D01*
Y-1729030D01*
X6449290Y-1712100D01*
X6443870Y-1697280D01*
X6435740Y-1684580D01*
X6426260Y-1676120D01*
X6415420Y-1674000D01*
X6404580Y-1676120D01*
X6395100Y-1684580D01*
X6386970Y-1697280D01*
X6381550Y-1712100D01*
X6378840Y-1729030D01*
Y-1745970D01*
X6381550Y-1762900D01*
X6386970Y-1777720D01*
X6395100Y-1790420D01*
X6404580Y-1798880D01*
X6415420Y-1801000D01*
G01X6339900D02*
Y-1674000D01*
X6277580Y-1801000D01*
Y-1674000D01*
G01X6136020D02*
X6117060Y-1801000D01*
X6095380Y-1674000D01*
X6073710Y-1801000D01*
X6054740Y-1674000D01*
G01X6022570Y-1801000D02*
X5988700Y-1674000D01*
X5954830Y-1801000D01*
G01X5967030Y-1756550D02*
X6010380D01*
G01X5913180Y-1801000D02*
Y-1674000D01*
X5850860Y-1801000D01*
Y-1674000D01*
G01X5767210Y-1737500D02*
X5740120D01*
Y-1775600D01*
X5748250Y-1788300D01*
X5757730Y-1796770D01*
X5771280Y-1801000D01*
X5784820Y-1796770D01*
X5794310Y-1788300D01*
X5802430Y-1775600D01*
X5807850Y-1760780D01*
X5810560Y-1743850D01*
Y-1729030D01*
X5807850Y-1716340D01*
X5802430Y-1701510D01*
X5794310Y-1688820D01*
X5786180Y-1680350D01*
X5775340Y-1674000D01*
X5765860D01*
X5755020Y-1678230D01*
X5746890Y-1686700D01*
G01X6289270Y-1295540D02*
X6280800Y-1286020D01*
X6274450Y-1270140D01*
X6270210Y-1247910D01*
X6274450Y-1228870D01*
X6282920Y-1216170D01*
X6297730Y-1206640D01*
X6354880D01*
Y-1397140D01*
X6285030D01*
X6270210Y-1384440D01*
X6261750Y-1365390D01*
X6257520Y-1343160D01*
X6261750Y-1320940D01*
X6274450Y-1301890D01*
X6289270Y-1295540D01*
X6354880D01*
G01X6141100Y-1397140D02*
X6158040Y-1393970D01*
X6172850Y-1381270D01*
X6185550Y-1362220D01*
X6194020Y-1339990D01*
X6198250Y-1314590D01*
Y-1289190D01*
X6194020Y-1263790D01*
X6185550Y-1241560D01*
X6172850Y-1222520D01*
X6158040Y-1209810D01*
X6141100Y-1206640D01*
X6124170Y-1209810D01*
X6109350Y-1222520D01*
X6096650Y-1241560D01*
X6088180Y-1263790D01*
X6083950Y-1289190D01*
Y-1314590D01*
X6088180Y-1339990D01*
X6096650Y-1362220D01*
X6109350Y-1381270D01*
X6124170Y-1393970D01*
X6141100Y-1397140D01*
G01X5976000Y-1206640D02*
Y-1397140D01*
G01X6024680Y-1206640D02*
X5927320D01*
G01X5810900D02*
Y-1397140D01*
G01X5859580Y-1206640D02*
X5762220D01*
G01X5645800Y-1397140D02*
X5662740Y-1393970D01*
X5677550Y-1381270D01*
X5690250Y-1362220D01*
X5698720Y-1339990D01*
X5702950Y-1314590D01*
Y-1289190D01*
X5698720Y-1263790D01*
X5690250Y-1241560D01*
X5677550Y-1222520D01*
X5662740Y-1209810D01*
X5645800Y-1206640D01*
X5628870Y-1209810D01*
X5614050Y-1222520D01*
X5601350Y-1241560D01*
X5592880Y-1263790D01*
X5588650Y-1289190D01*
Y-1314590D01*
X5592880Y-1339990D01*
X5601350Y-1362220D01*
X5614050Y-1381270D01*
X5628870Y-1393970D01*
X5645800Y-1397140D01*
G01X5535740D02*
Y-1206640D01*
X5480700Y-1365390D01*
X5425660Y-1206640D01*
Y-1397140D01*
G01X7011050Y-1054250D02*
X6994120Y-1070120D01*
X6975070Y-1079640D01*
X6958130D01*
X6941200Y-1070120D01*
X6928500Y-1054250D01*
X6922150Y-1032010D01*
X6926380Y-1009790D01*
X6936970Y-990740D01*
X6956020Y-978040D01*
X6981420Y-971690D01*
X6996230Y-958990D01*
X7002590Y-936770D01*
X6998350Y-914540D01*
X6987770Y-898670D01*
X6972950Y-889140D01*
X6958130D01*
X6943320Y-895490D01*
X6930610Y-911370D01*
G01X6801500Y-1079640D02*
X6818440Y-1076470D01*
X6833250Y-1063770D01*
X6845950Y-1044720D01*
X6854420Y-1022490D01*
X6858650Y-997090D01*
Y-971690D01*
X6854420Y-946290D01*
X6845950Y-924060D01*
X6833250Y-905020D01*
X6818440Y-892310D01*
X6801500Y-889140D01*
X6784570Y-892310D01*
X6769750Y-905020D01*
X6757050Y-924060D01*
X6748580Y-946290D01*
X6744350Y-971690D01*
Y-997090D01*
X6748580Y-1022490D01*
X6757050Y-1044720D01*
X6769750Y-1063770D01*
X6784570Y-1076470D01*
X6801500Y-1079640D01*
G01X6678730Y-889140D02*
Y-1079640D01*
X6594070D01*
G01X6517870D02*
Y-889140D01*
X6475530D01*
X6458600Y-898670D01*
X6445900Y-911370D01*
X6435310Y-930410D01*
X6426850Y-952640D01*
X6424730Y-984390D01*
X6426850Y-1016140D01*
X6435310Y-1038370D01*
X6445900Y-1057420D01*
X6458600Y-1070120D01*
X6475530Y-1079640D01*
X6517870D01*
G01X6263870D02*
X6348530D01*
Y-889140D01*
X6263870D01*
G01X6297730Y-981210D02*
X6348530D01*
G01X6183430Y-1079640D02*
Y-889140D01*
X6130520D01*
X6113580Y-898670D01*
X6103000Y-911370D01*
X6098770Y-936770D01*
X6103000Y-962170D01*
X6115700Y-978040D01*
X6130520Y-987570D01*
X6183430D01*
G01X6130520D02*
X6098770Y-1079640D01*
G01X6031040D02*
Y-889140D01*
X5976000Y-1047890D01*
X5920960Y-889140D01*
Y-1079640D01*
G01X5863820D02*
X5810900Y-889140D01*
X5757980Y-1079640D01*
G01X5777030Y-1012970D02*
X5844770D01*
G01X5690250Y-1054250D02*
X5673320Y-1070120D01*
X5654270Y-1079640D01*
X5637330D01*
X5620400Y-1070120D01*
X5607700Y-1054250D01*
X5601350Y-1032010D01*
X5605580Y-1009790D01*
X5616170Y-990740D01*
X5635220Y-978040D01*
X5660620Y-971690D01*
X5675430Y-958990D01*
X5681790Y-936770D01*
X5677550Y-914540D01*
X5666970Y-898670D01*
X5652150Y-889140D01*
X5637330D01*
X5622520Y-895490D01*
X5609810Y-911370D01*
G01X5527270Y-1079640D02*
Y-889140D01*
G01X5446830D02*
X5527270Y-1006620D01*
G01X5434130Y-1079640D02*
X5491280Y-952640D01*
G01X7772460Y-2065580D02*
X7780590Y-2059230D01*
X7790070Y-2055000D01*
X7800900D01*
X7813100Y-2061350D01*
X7822580Y-2071930D01*
X7829350Y-2084630D01*
X7834770Y-2105800D01*
X7836130Y-2124850D01*
X7833420Y-2143900D01*
X7829350Y-2156600D01*
X7821230Y-2169300D01*
X7811740Y-2177770D01*
X7802260Y-2182000D01*
X7792780D01*
X7783290Y-2177770D01*
X7775170Y-2171420D01*
X7768390Y-2162950D01*
G01X7724030Y-2182000D02*
Y-2055000D01*
G01X7667130D02*
Y-2182000D01*
G01Y-2118500D02*
X7724030D01*
G01X7561810Y-2182000D02*
X7615990D01*
Y-2055000D01*
X7561810D01*
G01X7583480Y-2116380D02*
X7615990D01*
G01X7452420Y-2065580D02*
X7460550Y-2059230D01*
X7470030Y-2055000D01*
X7480860D01*
X7493060Y-2061350D01*
X7502540Y-2071930D01*
X7509310Y-2084630D01*
X7514730Y-2105800D01*
X7516090Y-2124850D01*
X7513380Y-2143900D01*
X7509310Y-2156600D01*
X7501190Y-2169300D01*
X7491700Y-2177770D01*
X7482220Y-2182000D01*
X7472740D01*
X7463250Y-2177770D01*
X7455130Y-2171420D01*
X7448350Y-2162950D01*
G01X7405340Y-2182000D02*
Y-2055000D01*
G01X7353870D02*
X7405340Y-2133320D01*
G01X7345740Y-2182000D02*
X7382310Y-2097340D01*
G01X7241770Y-2182000D02*
X7295950D01*
Y-2055000D01*
X7241770D01*
G01X7263440Y-2116380D02*
X7295950D01*
G01X7189270Y-2182000D02*
Y-2055000D01*
X7155410D01*
X7144570Y-2061350D01*
X7137800Y-2069820D01*
X7135090Y-2086750D01*
X7137800Y-2103680D01*
X7145920Y-2114270D01*
X7155410Y-2120620D01*
X7189270D01*
G01X7155410D02*
X7135090Y-2182000D01*
G01X7055500Y-2186230D02*
X7058210Y-2184120D01*
Y-2179880D01*
X7055500Y-2177770D01*
X7052790Y-2179880D01*
Y-2184120D01*
X7055500Y-2186230D01*
G01Y-2129090D02*
X7058210Y-2126970D01*
Y-2122730D01*
X7055500Y-2120620D01*
X7052790Y-2122730D01*
Y-2126970D01*
X7055500Y-2129090D01*
G01X6975910Y-2055000D02*
Y-2182000D01*
X6921730D01*
G01X6815050D02*
X6869230D01*
Y-2055000D01*
X6815050D01*
G01X6836720Y-2116380D02*
X6869230D01*
G01X6766620Y-2182000D02*
Y-2055000D01*
X6704300Y-2182000D01*
Y-2055000D01*
G01X6659940Y-2182000D02*
Y-2055000D01*
X6597620Y-2182000D01*
Y-2055000D01*
G01X6522100Y-2182000D02*
X6532940Y-2179880D01*
X6542420Y-2171420D01*
X6550550Y-2158720D01*
X6555970Y-2143900D01*
X6558680Y-2126970D01*
Y-2110030D01*
X6555970Y-2093100D01*
X6550550Y-2078280D01*
X6542420Y-2065580D01*
X6532940Y-2057120D01*
X6522100Y-2055000D01*
X6511260Y-2057120D01*
X6501780Y-2065580D01*
X6493650Y-2078280D01*
X6488230Y-2093100D01*
X6485520Y-2110030D01*
Y-2126970D01*
X6488230Y-2143900D01*
X6493650Y-2158720D01*
X6501780Y-2171420D01*
X6511260Y-2179880D01*
X6522100Y-2182000D01*
G01X6446580D02*
Y-2055000D01*
X6384260Y-2182000D01*
Y-2055000D01*
G01X6242700D02*
X6223740Y-2182000D01*
X6202060Y-2055000D01*
X6180390Y-2182000D01*
X6161420Y-2055000D01*
G01X6129250Y-2182000D02*
X6095380Y-2055000D01*
X6061510Y-2182000D01*
G01X6073710Y-2137550D02*
X6117060D01*
G01X6019860Y-2182000D02*
Y-2055000D01*
X5957540Y-2182000D01*
Y-2055000D01*
G01X5873890Y-2118500D02*
X5846800D01*
Y-2156600D01*
X5854930Y-2169300D01*
X5864410Y-2177770D01*
X5877960Y-2182000D01*
X5891500Y-2177770D01*
X5900990Y-2169300D01*
X5909110Y-2156600D01*
X5914530Y-2141780D01*
X5917240Y-2124850D01*
Y-2110030D01*
X5914530Y-2097340D01*
X5909110Y-2082510D01*
X5900990Y-2069820D01*
X5892860Y-2061350D01*
X5882020Y-2055000D01*
X5872540D01*
X5861700Y-2059230D01*
X5853570Y-2067700D01*
G01X7832060Y-2563000D02*
Y-2436000D01*
X7804970D01*
X7794130Y-2442350D01*
X7786000Y-2450820D01*
X7779230Y-2463510D01*
X7773810Y-2478340D01*
X7772460Y-2499500D01*
X7773810Y-2520670D01*
X7779230Y-2535490D01*
X7786000Y-2548190D01*
X7794130Y-2556650D01*
X7804970Y-2563000D01*
X7832060D01*
G01X7729450D02*
X7695580Y-2436000D01*
X7661710Y-2563000D01*
G01X7673910Y-2518550D02*
X7717260D01*
G01X7588900Y-2436000D02*
Y-2563000D01*
G01X7620060Y-2436000D02*
X7557740D01*
G01X7455130Y-2563000D02*
X7509310D01*
Y-2436000D01*
X7455130D01*
G01X7476800Y-2497380D02*
X7509310D01*
G01X7375540Y-2567230D02*
X7378250Y-2565120D01*
Y-2560880D01*
X7375540Y-2558770D01*
X7372830Y-2560880D01*
Y-2565120D01*
X7375540Y-2567230D01*
G01Y-2510090D02*
X7378250Y-2507970D01*
Y-2503730D01*
X7375540Y-2501620D01*
X7372830Y-2503730D01*
Y-2507970D01*
X7375540Y-2510090D01*
G01X7294600Y-2457170D02*
X7286470Y-2444470D01*
X7276990Y-2438120D01*
X7266150Y-2436000D01*
X7252600Y-2440230D01*
X7243120Y-2450820D01*
X7240410Y-2463510D01*
X7241770Y-2476220D01*
X7247190Y-2486800D01*
X7274280Y-2507970D01*
X7286470Y-2522780D01*
X7294600Y-2543950D01*
X7297310Y-2563000D01*
X7240410D01*
G01X7191980Y-2537600D02*
X7183860Y-2552420D01*
X7173020Y-2560880D01*
X7160820Y-2563000D01*
X7149990Y-2560880D01*
X7139150Y-2550300D01*
X7132380Y-2537600D01*
X7131020Y-2524900D01*
X7133730Y-2510090D01*
X7143210Y-2499500D01*
X7152700Y-2495270D01*
X7164890D01*
G01X7152700D02*
X7144570Y-2488920D01*
X7137800Y-2478340D01*
X7135090Y-2465630D01*
X7137800Y-2452930D01*
X7144570Y-2442350D01*
X7156760Y-2436000D01*
X7168950Y-2438120D01*
X7181150Y-2446580D01*
G01X7083950Y-2546070D02*
X7073110Y-2556650D01*
X7060920Y-2563000D01*
X7050080D01*
X7039240Y-2556650D01*
X7031120Y-2546070D01*
X7027050Y-2531250D01*
X7029760Y-2516440D01*
X7036530Y-2503730D01*
X7048730Y-2495270D01*
X7064980Y-2491030D01*
X7074470Y-2482570D01*
X7078530Y-2467750D01*
X7075820Y-2452930D01*
X7069050Y-2442350D01*
X7059560Y-2436000D01*
X7050080D01*
X7040600Y-2440230D01*
X7032470Y-2450820D01*
G01X6921730Y-2563000D02*
X6975910D01*
Y-2436000D01*
X6921730D01*
G01X6943400Y-2497380D02*
X6975910D01*
G01X6869230Y-2563000D02*
Y-2436000D01*
X6836720D01*
X6825880Y-2442350D01*
X6817760Y-2457170D01*
X6815050Y-2474100D01*
X6817760Y-2491030D01*
X6824530Y-2503730D01*
X6836720Y-2510090D01*
X6869230D01*
G01X6735460Y-2563000D02*
Y-2436000D01*
X6751720Y-2461400D01*
G01Y-2563000D02*
X6719210D01*
G01X6612520D02*
Y-2436000D01*
X6662650Y-2527020D01*
X6594910D01*
G01X7893700Y-759600D02*
Y-2664600D01*
G54D15*
X1030000Y290000D03*
X6560000D03*
X6600000Y7210000D03*
G54D16*
X900000Y1180150D03*
Y1319850D03*
X1050000Y1180150D03*
Y1319850D03*
X1290000Y7220150D03*
Y7359850D03*
X1140000Y7220150D03*
Y7359850D03*
X990000Y7220150D03*
Y7359850D03*
X840000Y7220150D03*
Y7359850D03*
X1640000Y200150D03*
Y339850D03*
Y1180150D03*
Y1319850D03*
X1790000Y1180150D03*
Y1319850D03*
X1890000Y7220150D03*
Y7359850D03*
X1740000Y7220150D03*
Y7359850D03*
X1590000Y7220150D03*
Y7359850D03*
X1440000Y7220150D03*
Y7359850D03*
X2050000Y200150D03*
X1900000D03*
X2050000Y339850D03*
X1900000D03*
X1940000Y1180150D03*
Y1319850D03*
X2090000Y1180150D03*
Y1319850D03*
X2960000Y200150D03*
Y339850D03*
X2650000Y500150D03*
Y639850D03*
X2690000Y1330150D03*
X2840000D03*
X2690000Y1469850D03*
X2840000D03*
X2910000Y1950150D03*
Y2089850D03*
X3110000Y200150D03*
Y339850D03*
X3090000Y1330150D03*
Y1469850D03*
X3050000Y1950150D03*
Y2089850D03*
X3160000Y5449850D03*
Y5310150D03*
X3790000Y2270150D03*
Y2409850D03*
X4890000Y650150D03*
Y789850D03*
X5210000Y1070150D03*
Y1209850D03*
X4950000Y5050150D03*
Y5189850D03*
X5700000Y730150D03*
X5490000Y590150D03*
Y729850D03*
X5700000Y869850D03*
X6390000Y769850D03*
Y630150D03*
X6530000D03*
Y769850D03*
G54D17*
X1770000Y199200D03*
Y300800D03*
X2650000Y370800D03*
Y269200D03*
X2959200Y3970000D03*
X2919200Y4910000D03*
X3510000Y2410800D03*
Y2309200D03*
X3500000Y3710800D03*
Y3609200D03*
X3180000Y3849200D03*
Y3950800D03*
X3400000Y3710800D03*
Y3609200D03*
X3260000Y3710800D03*
Y3609200D03*
X3150000Y3710800D03*
Y3609200D03*
X3060800Y3970000D03*
X3420000Y4089200D03*
Y4190800D03*
X3180000Y5150800D03*
Y5049200D03*
X3020800Y4910000D03*
X3500800D03*
X3399200D03*
X3500000Y5289200D03*
Y5390800D03*
X3879200Y1740000D03*
X3980800D03*
X3610000Y2090800D03*
Y1989200D03*
X3920000Y2390800D03*
Y2289200D03*
X3980800Y2580000D03*
X3879200D03*
X3970000Y4069200D03*
X3820000Y3710800D03*
Y3609200D03*
X3720000Y3710800D03*
Y3609200D03*
X3900000Y4590800D03*
Y4489200D03*
X3690000Y4270800D03*
Y4169200D03*
X3970000Y4380800D03*
Y4279200D03*
X3730000Y4510800D03*
Y4409200D03*
X3970000Y4170800D03*
X3570000Y4169200D03*
Y4270800D03*
X3810000D03*
Y4169200D03*
X4050000Y4489200D03*
Y4590800D03*
X3740800Y4700000D03*
X3639200D03*
X3640000Y4910800D03*
Y4809200D03*
X4039200Y4830000D03*
X3839200Y4730000D03*
X3940800D03*
X3900000Y5289200D03*
Y5390800D03*
X3800000Y5289200D03*
Y5390800D03*
X4460000Y819200D03*
Y920800D03*
X4149200Y1740000D03*
X4250800D03*
X4650000Y2380800D03*
Y2279200D03*
X4440000Y3849200D03*
Y3950800D03*
Y3710800D03*
Y3609200D03*
X4279200Y4100000D03*
X4380800D03*
X4220000Y3710800D03*
Y3609200D03*
X4120000Y3710800D03*
Y3609200D03*
X4540000Y3710800D03*
Y3609200D03*
X4450000Y5150800D03*
Y5049200D03*
X4140800Y4830000D03*
X4249200Y4900000D03*
X4350800D03*
X4650000Y5049200D03*
Y5150800D03*
X4300000D03*
Y5049200D03*
X5080000Y1190800D03*
Y1089200D03*
X4750000Y1909200D03*
Y2010800D03*
X5460800Y1060000D03*
X5359200D03*
G54D18*
X2170000Y1020000D03*
G54D19*
X2839500Y590000D03*
X2966500D03*
Y1110000D03*
X2839500D03*
X3093500Y590000D03*
X3220500D03*
Y1110000D03*
X3093500D03*
M02*
