G04 ================== begin FILE IDENTIFICATION RECORD ==================*
G04 Layout Name:  Lattice MACHXO3 STARTER KIT REVA.brd*
G04 Film Name:    BOTTOM*
G04 File Format:  Gerber RS274X*
G04 File Origin:  Cadence Allegro 16.6-S021*
G04 Origin Date:  Tue Sep 23 23:04:21 2014*
G04 *
G04 Layer:  DRAWING FORMAT/BOTTOM*
G04 Layer:  BOARD GEOMETRY/LOGO_M*
G04 Layer:  BOARD GEOMETRY/OUTLINE*
G04 Layer:  ETCH/BOTTOM*
G04 Layer:  PIN/BOTTOM*
G04 Layer:  VIA CLASS/BOTTOM*
G04 *
G04 Offset:    (0.0000 0.0000)*
G04 Mirror:    No*
G04 Mode:      Positive*
G04 Rotation:  0*
G04 FullContactRelief:  No*
G04 UndefLineWidth:     0.1500*
G04 ================== end FILE IDENTIFICATION RECORD ====================*
%FSLAX35Y35*MOMM*%
%IR0*IPPOS*OFA0.00000B0.00000*MIA0B0*SFA1.00000B1.00000*%
%ADD22R,.6X2.2*%
%ADD16C,.6*%
%ADD21C,.45*%
%ADD11C,.55*%
%ADD19R,.5588X.5588*%
%ADD17C,1.*%
%ADD23C,1.5*%
%ADD12C,1.6*%
%ADD25R,1.5X1.5*%
%ADD15C,1.4224*%
%ADD13R,1.6X1.6*%
%ADD20R,1.4224X1.4224*%
%AMMACRO10*
4,1,36,0.0,-.0635,
-.011027,-.062535,
-.021718,-.05967,
-.03175,-.054993,
-.040817,-.048644,
-.048644,-.040817,
-.054993,-.03175,
-.05967,-.021718,
-.062535,-.011027,
-.0635,0.0,
-.062535,.011027,
-.05967,.021718,
-.054993,.03175,
-.048644,.040817,
-.040817,.048644,
-.03175,.054993,
-.021718,.05967,
-.011027,.062535,
0.0,.0635,
.011027,.062535,
.021718,.05967,
.03175,.054993,
.040817,.048644,
.048644,.040817,
.054993,.03175,
.05967,.021718,
.062535,.011027,
.0635,0.0,
.062535,-.011027,
.05967,-.021718,
.054993,-.03175,
.048644,-.040817,
.040817,-.048644,
.03175,-.054993,
.021718,-.05967,
.011027,-.062535,
0.0,-.0635,
0.0*
%
%ADD10MACRO10*%
%ADD18R,.889X.8128*%
%ADD24R,1.2954X1.4986*%
%ADD14R,.8128X.889*%
%ADD26C,.12*%
%ADD27C,.13*%
%ADD28C,.35*%
%ADD29C,.28*%
%ADD30C,.15*%
G75*
%LPD*%
G75*
G36*
G01X894720Y-1192070D02*
G02X885360Y-1196660I-13486J15663D01*
G02X825270Y-1202420I-39054J91100D01*
G02X817470Y-1174820I643J15084D01*
G01X829470Y-1165820D01*
G03X887270Y-1107780I-66337J123863D01*
G03X846360Y-1034480I-55640J17013D01*
G03X789720Y-1027070I-56079J-208480D01*
G01X735930Y-1034540D01*
X723720Y-1036070D01*
X722220Y-1077970D01*
X720720Y-1093070D01*
X726720D01*
G02X739010Y-1088510I17439J-28159D01*
G01X753720Y-1084070D01*
G02X798270Y-1088420I15740J-69100D01*
G02X797970Y-1113320I-7348J-12363D01*
G01X784470Y-1123820D01*
G03X730920Y-1174670I59340J-116112D01*
G01X726720Y-1180070D01*
G03X749970Y-1240820I62809J-10786D01*
G03X789900Y-1256600I63610J102551D01*
G01X813720Y-1261070D01*
X864960Y-1256530D01*
X897430Y-1250630D01*
G03X902230Y-1224920I-66570J25732D01*
G01X905200Y-1195220D01*
X906720Y-1189070D01*
X900720D01*
X894720Y-1192070D01*
G37*
G36*
G01X1188720Y-1294070D02*
G02X1167720Y-1303070I-29379J39551D01*
G01X1134720D01*
X1126170Y-1298720D01*
G02X1103520Y-1270670I53830J66637D01*
G01X1101720Y-1270070D01*
Y-1252070D01*
X1172370Y-1044620D01*
X1176720Y-1033070D01*
X1092720D01*
X1058180Y-1168320D01*
X1056720Y-1186070D01*
X1050720D01*
X1049130Y-1179720D01*
X1046310Y-1168420D01*
X1009920Y-1065470D01*
X1007070Y-1059620D01*
G03X1001520Y-1045670I-55408J-13965D01*
G01X997470Y-1035320D01*
X996720Y-1033070D01*
X915720D01*
G02X923070Y-1050620I-77520J-42780D01*
G01X1028520Y-1291670D01*
G03X1078320Y-1349870I95219J31070D01*
G03X1176510Y-1355600I56729J127960D01*
G03X1188720Y-1294070I-87250J49290D01*
G37*
G36*
G01X1374270Y-1193720D02*
X1344720Y-1204070D01*
X1308720D01*
X1308270Y-1202420D01*
G02X1297470Y-1197320I432J14901D01*
G01X1293720Y-1195070D01*
Y-1180070D01*
G03X1303470Y-1171820I-22620J36619D01*
G01X1328970Y-1152320D01*
G03X1342470Y-1141820I-21010J40941D01*
G01X1343970Y-1140320D01*
G03X1357920Y-1126670I-8232J22366D01*
G03X1317530Y-1031550I-43480J37673D01*
G01X1293720Y-1027070D01*
X1239850Y-1031560D01*
X1239530Y-1031600D01*
X1215270Y-1034720D01*
X1210850Y-1037310D01*
X1205230Y-1065920D01*
X1203720Y-1093070D01*
X1210170Y-1091420D01*
G02X1272720Y-1084070I46219J-123502D01*
G01X1273170Y-1085720D01*
G02X1283970Y-1090820I-432J-14901D01*
G02X1285920Y-1105670I-2881J-7931D01*
G02X1271970Y-1119320I-35161J21981D01*
G01X1252320Y-1133270D01*
X1220970Y-1161320D01*
X1219920Y-1162670D01*
X1209720Y-1180070D01*
Y-1210070D01*
X1211370Y-1210520D01*
G03X1272900Y-1256600I68579J27452D01*
G01X1296530Y-1259550D01*
X1317720Y-1261070D01*
X1317870Y-1259560D01*
G03X1382230Y-1248920I3535J178592D01*
G01X1386720Y-1189070D01*
X1374270Y-1193720D01*
G37*
G36*
G01X2439720Y-1378070D02*
X2346930Y-1367600D01*
G02X2060970Y-1252820I60466J564251D01*
G01X2059470Y-1251320D01*
X2037720Y-1228070D01*
X2031720D01*
G02X1924070Y-1286480I-138798J127400D01*
G01X1857930Y-1298540D01*
X1821720Y-1303070D01*
X1695720Y-1300070D01*
X1719360Y-1295660D01*
G03X1892520Y-1212470I-50978J327921D01*
G01X1895970Y-1206320D01*
G03X1919130Y-1162420I-63691J61660D01*
G01X1920720Y-1111070D01*
X1913370Y-1093520D01*
X1910370Y-1084520D01*
X1895970Y-1060820D01*
X1883520Y-1042670D01*
G03X1642470Y-900320I-358763J-332249D01*
G01X1632720Y-898070D01*
X1674510Y-902540D01*
G02X1979970Y-1024820I-70818J-619572D01*
G02X2016720Y-1063070I-64679J-98922D01*
G01X2022720D01*
G02X2166360Y-992660I173942J-173130D01*
G02X2346720Y-979070I142896J-692829D01*
G01X2336970Y-981320D01*
G03X2158920Y-1075670I66877J-341381D01*
G03X2135310Y-1171420I88109J-72512D01*
G03X2227320Y-1289870I215683J72578D01*
G03X2439720Y-1378070I331958J499562D01*
G37*
G36*
G01X1575720Y-1192070D02*
X1572720D01*
G03X1584720Y-1249070I197593J11835D01*
G03X1611870Y-1256590I31196J59860D01*
G03X1704580Y-1256580I46328J250809D01*
G03X1775520Y-1212470I-10601J96149D01*
G03X1760520Y-1063670I-121099J62949D01*
G03X1629930Y-1031540I-94540J-102799D01*
G03X1567920Y-1066670I12797J-94882D01*
G01X1561920Y-1078670D01*
X1551720Y-1102070D01*
Y-1147070D01*
X1707720Y-1150070D01*
G02X1694970Y-1191320I-42071J-9592D01*
G02X1614430Y-1202510I-50995J71598D01*
G01X1575720Y-1195610D01*
Y-1192070D01*
G37*
G36*
G01X1421210Y-999960D02*
X1434720Y-1255070D01*
X1518720D01*
X1514220Y-1174170D01*
X1511220Y-1114150D01*
X1503720Y-958070D01*
X1419720D01*
X1418970Y-960320D01*
X1416720Y-961070D01*
X1419720D01*
X1421210Y-999960D01*
G37*
G36*
G01X2402200Y-1254130D02*
X2424530Y-1259550D01*
X2445720Y-1261070D01*
X2445930Y-1259540D01*
G03X2516070Y-1207520I4403J67359D01*
G01X2517720Y-1207070D01*
Y-1186070D01*
X2516070Y-1185620D01*
G03X2460270Y-1130420I-73999J-19001D01*
G01X2377070Y-1109660D01*
G02X2373720Y-1075070I8487J18279D01*
G02X2478120Y-1091270I20272J-213861D01*
G01X2484720Y-1093070D01*
Y-1084070D01*
X2483190Y-1083860D01*
G03X2474920Y-1043700I-163040J-12643D01*
G03X2382850Y-1028580I-103347J-341431D01*
G03X2299470Y-1045820I-18681J-119901D01*
G03X2282130Y-1066420I14890J-30131D01*
G01X2279310Y-1077720D01*
X2277720Y-1108070D01*
X2279220Y-1108180D01*
X2286720Y-1255070D01*
X2370720D01*
Y-1243070D01*
X2369210Y-1242970D01*
X2364720Y-1201070D01*
Y-1156070D01*
X2415270Y-1172420D01*
G02X2418720Y-1216070I-1820J-22105D01*
G01X2389230Y-1213120D01*
G03X2402200Y-1254130I164110J29346D01*
G37*
G36*
G01X4300000Y640000D02*
X3860000D01*
X3840000Y660000D01*
Y940000D01*
X3860000Y960000D01*
X4250000D01*
X4300000Y910000D01*
Y640000D01*
G37*
G36*
G01X5040000Y690000D02*
X4720000D01*
X4560000Y850000D01*
X4430000D01*
Y750000D01*
X4350000D01*
Y640000D01*
X4430000D01*
X4750000Y320000D01*
X5040000D01*
Y690000D01*
G37*
G36*
G01X4720000Y750000D02*
X4580000Y890000D01*
X4400000D01*
Y800000D01*
X4330000D01*
Y1190000D01*
X4340000Y1200000D01*
X4710000D01*
X4790000Y1120000D01*
X5390000D01*
Y1010000D01*
X5360000Y980000D01*
Y820000D01*
X5060000D01*
X4990000Y750000D01*
X4720000D01*
G37*
G36*
G01X5540000Y520000D02*
X5160000D01*
X5110000Y570000D01*
Y740000D01*
X5130000Y760000D01*
X5360000D01*
X5380000Y740000D01*
Y660000D01*
X5410000Y630000D01*
X5540000D01*
Y520000D01*
G37*
G36*
G01X4840000Y1160000D02*
Y1350000D01*
X5390000D01*
Y1160000D01*
X4840000D01*
G37*
G36*
G01X5630000Y390000D02*
X5590000Y430000D01*
Y640000D01*
X5540000Y690000D01*
X5440000D01*
X5420000Y710000D01*
Y1260000D01*
X5560000D01*
Y840000D01*
X5630000Y770000D01*
X5790000D01*
X5810000Y750000D01*
Y390000D01*
X5630000D01*
G37*
G36*
G01X6440000Y730000D02*
X6290000D01*
X6190000Y830000D01*
X5650000D01*
Y1000000D01*
X5690000Y1040000D01*
X6440000D01*
Y730000D01*
G37*
G36*
G01X6580000Y560000D02*
X6120000D01*
X6070000Y610000D01*
Y760000D01*
X6090000Y780000D01*
X6180000D01*
X6280000Y680000D01*
X6580000D01*
Y560000D01*
G37*
G36*
G01X6810000Y900000D02*
Y1070000D01*
X7270000D01*
Y900000D01*
X6810000D01*
G37*
G36*
G01X6480000Y1030000D02*
Y730000D01*
X6710000D01*
X6750000Y770000D01*
Y1000000D01*
X6720000Y1030000D01*
X6480000D01*
G37*
%LPC*%
G75*
G36*
G01X1704720Y-1120070D02*
Y-1105070D01*
X1702920Y-1104470D01*
G03X1669070Y-1076660I-38776J-12692D01*
G01X1659720Y-1075070D01*
X1659360Y-1076660D01*
G03X1629720Y-1120070I2969J-33851D01*
G01X1704720D01*
G37*
%LPD*%
G75*
G54D10*
X400000Y400000D03*
Y7220000D03*
X3900000Y500000D03*
X4340000D03*
X7220000Y400000D03*
Y7220000D03*
G54D20*
X2170000Y1020000D03*
G54D11*
X160000Y850000D03*
X800150Y1319850D03*
X860000Y7120000D03*
X1010000D03*
X1160000D03*
X1310000D03*
X800000Y7050000D03*
X950000D03*
X1100000Y6990000D03*
X1250000Y7060000D03*
X1290000Y7460000D03*
X840000D03*
X990000D03*
X1140000D03*
X1770000Y380000D03*
X1540000Y340000D03*
X1640000Y1410000D03*
X1460000Y7120000D03*
X1610000D03*
X1760000D03*
X1400000Y7000000D03*
X1550000Y7060000D03*
X1740000Y7460000D03*
X1590000D03*
X1890000D03*
X1440000D03*
X2270000Y220000D03*
X2150000Y340000D03*
X1940000Y1410000D03*
X1910000Y7120000D03*
X2860000Y200000D03*
X2650000Y190000D03*
X2840000Y760000D03*
X2650000Y740000D03*
X2970000Y1280000D03*
X2930000Y1860000D03*
X2690000Y1560000D03*
X2940000Y1470000D03*
X2690000Y1680000D03*
X2910000Y2190000D03*
X2990000Y2740000D03*
X3100000Y430000D03*
X3220000D03*
X3420000Y1250000D03*
X3220000Y940000D03*
X3060000Y1860000D03*
X3190000D03*
Y1470000D03*
X3430000Y2410000D03*
X3180000Y2380000D03*
X3190000Y2190000D03*
X3050000D03*
X3430000Y2310000D03*
X3310000Y2190000D03*
X3250000Y2740000D03*
X3950000Y1070000D03*
X3690000Y1690000D03*
X4060000Y1740000D03*
X3980000Y1660000D03*
X3780000D03*
X3890000D03*
X3980000Y1360000D03*
X3860000D03*
X4000000Y2390000D03*
X3690000Y2430000D03*
Y2090000D03*
X3990000Y2120000D03*
X3790000Y2180000D03*
X3920000Y2210000D03*
X3690000Y1990000D03*
X3980000Y2500000D03*
X3880000D03*
X4330000Y1660000D03*
X4200000Y1360000D03*
X4350000D03*
X4490000Y1620000D03*
X4370000Y1870000D03*
X4240000Y1660000D03*
X4570000Y1790000D03*
Y1690000D03*
X4650000Y1600000D03*
X4150000Y1660000D03*
X4510000Y1360000D03*
X4570000Y2380000D03*
X4280000Y2120000D03*
X4570000Y2280000D03*
Y2140000D03*
X4300000Y2500000D03*
X4410000D03*
X4370000Y3130000D03*
X4720000Y1280000D03*
X4830000Y1910000D03*
Y2010000D03*
X4790000Y3130000D03*
X4850000Y5190000D03*
X5170000Y6090000D03*
X5160000Y6410000D03*
X5010000D03*
X4860000D03*
X5510000Y300000D03*
X5310000Y6090000D03*
Y6410000D03*
X6190000Y7380000D03*
Y6960000D03*
X6430000Y7380000D03*
G54D30*
G01X-107300Y-2664600D02*
X7893700D01*
G01X-107300Y-759600D02*
Y-2664600D01*
G01X459970Y-2309000D02*
Y-2156600D01*
X417630D01*
X404090Y-2164220D01*
X395620Y-2174380D01*
X392230Y-2194700D01*
X395620Y-2215020D01*
X405780Y-2227720D01*
X417630Y-2235340D01*
X459970D01*
G01X417630D02*
X392230Y-2309000D01*
G01X260150D02*
X327890D01*
Y-2156600D01*
X260150D01*
G01X287250Y-2230260D02*
X327890D01*
G01X204280Y-2156600D02*
X161940Y-2309000D01*
X119600Y-2156600D01*
G01X-107300Y-2095640D02*
X4909200D01*
G01X-107300Y-1524140D02*
X4909200D01*
G01X7893700Y-759600D02*
X-107300D01*
G01X0Y0D02*
X7620000D01*
Y7620000D01*
X0D01*
Y0D01*
G01X313910Y-2603640D02*
X273700Y-2476640D01*
X233490Y-2603640D01*
G01X247970Y-2559190D02*
X299440D01*
G01X654700Y-2095640D02*
Y-2664600D01*
G01X3576520Y-2032140D02*
Y-1905140D01*
X3534700Y-2010970D01*
X3492880Y-1905140D01*
Y-2032140D01*
G01X3445410D02*
X3405200Y-1905140D01*
X3364990Y-2032140D01*
G01X3379470Y-1987690D02*
X3430940D01*
G01X3240320Y-1915720D02*
X3249970Y-1909370D01*
X3261220Y-1905140D01*
X3274090D01*
X3288570Y-1911490D01*
X3299820Y-1922070D01*
X3307870Y-1934770D01*
X3314300Y-1955940D01*
X3315910Y-1974990D01*
X3312690Y-1994040D01*
X3307870Y-2006740D01*
X3298220Y-2019440D01*
X3286960Y-2027910D01*
X3275700Y-2032140D01*
X3264440D01*
X3253180Y-2027910D01*
X3243530Y-2021560D01*
X3235490Y-2013090D01*
G01X3179980Y-2032140D02*
Y-1905140D01*
G01X3112420D02*
Y-2032140D01*
G01Y-1968640D02*
X3179980D01*
G01X3050480Y-2032140D02*
X2982920Y-1905140D01*
G01X3050480D02*
X2982920Y-2032140D01*
G01X2887200D02*
X2900070Y-2030020D01*
X2911320Y-2021560D01*
X2920980Y-2008860D01*
X2927410Y-1994040D01*
X2930630Y-1977110D01*
Y-1960170D01*
X2927410Y-1943240D01*
X2920980Y-1928420D01*
X2911320Y-1915720D01*
X2900070Y-1907260D01*
X2887200Y-1905140D01*
X2874330Y-1907260D01*
X2863080Y-1915720D01*
X2853420Y-1928420D01*
X2846990Y-1943240D01*
X2843770Y-1960170D01*
Y-1977110D01*
X2846990Y-1994040D01*
X2853420Y-2008860D01*
X2863080Y-2021560D01*
X2874330Y-2030020D01*
X2887200Y-2032140D01*
G01X2793080Y-2006740D02*
X2783440Y-2021560D01*
X2770570Y-2030020D01*
X2756090Y-2032140D01*
X2743220Y-2030020D01*
X2730360Y-2019440D01*
X2722320Y-2006740D01*
X2720710Y-1994040D01*
X2723920Y-1979230D01*
X2735180Y-1968640D01*
X2746440Y-1964410D01*
X2760920D01*
G01X2746440D02*
X2736790Y-1958060D01*
X2728750Y-1947480D01*
X2725530Y-1934770D01*
X2728750Y-1922070D01*
X2736790Y-1911490D01*
X2751270Y-1905140D01*
X2765740Y-1907260D01*
X2780220Y-1915720D01*
G01X2532480Y-2015210D02*
X2519610Y-2025790D01*
X2505130Y-2032140D01*
X2492270D01*
X2479400Y-2025790D01*
X2469750Y-2015210D01*
X2464920Y-2000390D01*
X2468140Y-1985580D01*
X2476180Y-1972870D01*
X2490660Y-1964410D01*
X2509960Y-1960170D01*
X2521220Y-1951710D01*
X2526040Y-1936890D01*
X2522820Y-1922070D01*
X2514780Y-1911490D01*
X2503530Y-1905140D01*
X2492270D01*
X2481010Y-1909370D01*
X2471360Y-1919960D01*
G01X2369200Y-1905140D02*
Y-2032140D01*
G01X2406190Y-1905140D02*
X2332210D01*
G01X2279910Y-2032140D02*
X2239700Y-1905140D01*
X2199490Y-2032140D01*
G01X2213970Y-1987690D02*
X2265440D01*
G01X2142370Y-2032140D02*
Y-1905140D01*
X2102160D01*
X2089290Y-1911490D01*
X2081250Y-1919960D01*
X2078030Y-1936890D01*
X2081250Y-1953820D01*
X2090900Y-1964410D01*
X2102160Y-1970760D01*
X2142370D01*
G01X2102160D02*
X2078030Y-2032140D01*
G01X1980700Y-1905140D02*
Y-2032140D01*
G01X2017690Y-1905140D02*
X1943710D01*
G01X1819030Y-2032140D02*
X1883370D01*
Y-1905140D01*
X1819030D01*
G01X1844770Y-1966520D02*
X1883370D01*
G01X1753870Y-2032140D02*
Y-1905140D01*
X1713660D01*
X1700790Y-1911490D01*
X1692750Y-1919960D01*
X1689530Y-1936890D01*
X1692750Y-1953820D01*
X1702400Y-1964410D01*
X1713660Y-1970760D01*
X1753870D01*
G01X1713660D02*
X1689530Y-2032140D01*
G01X1498080D02*
Y-1905140D01*
G01X1436970D02*
X1498080Y-1983460D01*
G01X1427320Y-2032140D02*
X1470740Y-1947480D01*
G01X1352500Y-1905140D02*
X1313900D01*
G01X1333200D02*
Y-2032140D01*
G01X1352500D02*
X1313900D01*
G01X1203700Y-1905140D02*
Y-2032140D01*
G01X1240690Y-1905140D02*
X1166710D01*
G01X4011370Y-2476640D02*
Y-2603640D01*
X3947030D01*
G01X3814320Y-2487220D02*
X3823970Y-2480870D01*
X3835220Y-2476640D01*
X3848090D01*
X3862570Y-2482990D01*
X3873820Y-2493570D01*
X3881870Y-2506270D01*
X3888300Y-2527440D01*
X3889910Y-2546490D01*
X3886690Y-2565540D01*
X3881870Y-2578240D01*
X3872220Y-2590940D01*
X3860960Y-2599410D01*
X3849700Y-2603640D01*
X3838440D01*
X3827180Y-2599410D01*
X3817530Y-2593060D01*
X3809490Y-2584590D01*
G01X3762020Y-2603640D02*
Y-2476640D01*
X3720200Y-2582470D01*
X3678380Y-2476640D01*
Y-2603640D01*
G01X3624480D02*
X3556920Y-2476640D01*
G01X3624480D02*
X3556920Y-2603640D01*
G01X3461200D02*
X3474070Y-2601520D01*
X3485320Y-2593060D01*
X3494980Y-2580360D01*
X3501410Y-2565540D01*
X3504630Y-2548610D01*
Y-2531670D01*
X3501410Y-2514740D01*
X3494980Y-2499920D01*
X3485320Y-2487220D01*
X3474070Y-2478760D01*
X3461200Y-2476640D01*
X3448330Y-2478760D01*
X3437080Y-2487220D01*
X3427420Y-2499920D01*
X3420990Y-2514740D01*
X3417770Y-2531670D01*
Y-2548610D01*
X3420990Y-2565540D01*
X3427420Y-2580360D01*
X3437080Y-2593060D01*
X3448330Y-2601520D01*
X3461200Y-2603640D01*
G01X3367080Y-2578240D02*
X3357440Y-2593060D01*
X3344570Y-2601520D01*
X3330090Y-2603640D01*
X3317220Y-2601520D01*
X3304360Y-2590940D01*
X3296320Y-2578240D01*
X3294710Y-2565540D01*
X3297920Y-2550730D01*
X3309180Y-2540140D01*
X3320440Y-2535910D01*
X3334920D01*
G01X3320440D02*
X3310790Y-2529560D01*
X3302750Y-2518980D01*
X3299530Y-2506270D01*
X3302750Y-2493570D01*
X3310790Y-2482990D01*
X3325270Y-2476640D01*
X3339740Y-2478760D01*
X3354220Y-2487220D01*
G01X3234370Y-2476640D02*
Y-2603640D01*
X3170030D01*
G01X3093610Y-2561310D02*
X3051790D01*
G01X2973760Y-2550730D02*
X2962500Y-2535910D01*
X2952850Y-2527440D01*
X2939980Y-2523210D01*
X2928720Y-2527440D01*
X2920680Y-2535910D01*
X2914250Y-2548610D01*
X2912640Y-2563420D01*
X2914250Y-2576130D01*
X2920680Y-2588830D01*
X2930330Y-2599410D01*
X2941590Y-2603640D01*
X2954460Y-2599410D01*
X2965720Y-2586710D01*
X2972150Y-2567660D01*
X2973760Y-2546490D01*
X2970540Y-2518980D01*
X2965720Y-2504150D01*
X2957680Y-2489340D01*
X2946420Y-2478760D01*
X2935160Y-2476640D01*
X2923900Y-2480870D01*
X2915860Y-2491460D01*
G01X2841040Y-2588830D02*
X2829780Y-2599410D01*
X2816920Y-2603640D01*
X2804050Y-2599410D01*
X2792790Y-2586710D01*
X2784750Y-2567660D01*
X2781530Y-2548610D01*
Y-2525320D01*
X2784750Y-2506270D01*
X2792790Y-2489340D01*
X2802440Y-2480870D01*
X2813700Y-2476640D01*
X2826570Y-2480870D01*
X2836220Y-2489340D01*
X2842650Y-2502040D01*
X2845870Y-2518980D01*
X2842650Y-2533790D01*
X2834610Y-2548610D01*
X2824960Y-2557080D01*
X2813700Y-2559190D01*
X2800830Y-2554960D01*
X2791180Y-2544370D01*
X2781530Y-2525320D01*
G01X2684200Y-2476640D02*
X2697070Y-2480870D01*
X2706720Y-2491460D01*
X2713150Y-2504150D01*
X2717980Y-2521090D01*
X2719580Y-2540140D01*
X2717980Y-2559190D01*
X2713150Y-2576130D01*
X2706720Y-2588830D01*
X2697070Y-2599410D01*
X2684200Y-2603640D01*
X2671330Y-2599410D01*
X2661680Y-2588830D01*
X2655250Y-2576130D01*
X2650420Y-2559190D01*
X2648820Y-2540140D01*
X2650420Y-2521090D01*
X2655250Y-2504150D01*
X2661680Y-2491460D01*
X2671330Y-2480870D01*
X2684200Y-2476640D01*
G01X2554700D02*
X2567570Y-2480870D01*
X2577220Y-2491460D01*
X2583650Y-2504150D01*
X2588480Y-2521090D01*
X2590080Y-2540140D01*
X2588480Y-2559190D01*
X2583650Y-2576130D01*
X2577220Y-2588830D01*
X2567570Y-2599410D01*
X2554700Y-2603640D01*
X2541830Y-2599410D01*
X2532180Y-2588830D01*
X2525750Y-2576130D01*
X2520920Y-2559190D01*
X2519320Y-2540140D01*
X2520920Y-2521090D01*
X2525750Y-2504150D01*
X2532180Y-2491460D01*
X2541830Y-2480870D01*
X2554700Y-2476640D01*
G01X2389820Y-2487220D02*
X2399470Y-2480870D01*
X2410720Y-2476640D01*
X2423590D01*
X2438070Y-2482990D01*
X2449320Y-2493570D01*
X2457370Y-2506270D01*
X2463800Y-2527440D01*
X2465410Y-2546490D01*
X2462190Y-2565540D01*
X2457370Y-2578240D01*
X2447720Y-2590940D01*
X2436460Y-2599410D01*
X2425200Y-2603640D01*
X2413940D01*
X2402680Y-2599410D01*
X2393030Y-2593060D01*
X2384990Y-2584590D01*
G01X2316610Y-2561310D02*
X2274790D01*
G01X2199980Y-2586710D02*
X2187110Y-2597290D01*
X2172630Y-2603640D01*
X2159770D01*
X2146900Y-2597290D01*
X2137250Y-2586710D01*
X2132420Y-2571890D01*
X2135640Y-2557080D01*
X2143680Y-2544370D01*
X2158160Y-2535910D01*
X2177460Y-2531670D01*
X2188720Y-2523210D01*
X2193540Y-2508390D01*
X2190320Y-2493570D01*
X2182280Y-2482990D01*
X2171030Y-2476640D01*
X2159770D01*
X2148510Y-2480870D01*
X2138860Y-2491460D01*
G01X2057610Y-2561310D02*
X2015790D01*
G01X1875030Y-2603640D02*
X1939370D01*
Y-2476640D01*
X1875030D01*
G01X1900770Y-2538020D02*
X1939370D01*
G01X1817910Y-2476640D02*
X1777700Y-2603640D01*
X1737490Y-2476640D01*
G01X1685190Y-2603640D02*
Y-2476640D01*
X1611210Y-2603640D01*
Y-2476640D01*
G01X4841470Y-2309000D02*
Y-2156600D01*
X4800830D01*
X4787280Y-2164220D01*
X4777120Y-2182000D01*
X4773730Y-2202320D01*
X4777120Y-2222640D01*
X4785590Y-2237880D01*
X4800830Y-2245500D01*
X4841470D01*
G01X4709390Y-2309000D02*
Y-2156600D01*
X4667050D01*
X4653510Y-2164220D01*
X4645040Y-2174380D01*
X4641650Y-2194700D01*
X4645040Y-2215020D01*
X4655200Y-2227720D01*
X4667050Y-2235340D01*
X4709390D01*
G01X4667050D02*
X4641650Y-2309000D01*
G01X4543440D02*
X4556990Y-2306460D01*
X4568840Y-2296300D01*
X4579000Y-2281060D01*
X4585780Y-2263280D01*
X4589160Y-2242960D01*
Y-2222640D01*
X4585780Y-2202320D01*
X4579000Y-2184540D01*
X4568840Y-2169300D01*
X4556990Y-2159140D01*
X4543440Y-2156600D01*
X4529890Y-2159140D01*
X4518040Y-2169300D01*
X4507880Y-2184540D01*
X4501100Y-2202320D01*
X4497720Y-2222640D01*
Y-2242960D01*
X4501100Y-2263280D01*
X4507880Y-2281060D01*
X4518040Y-2296300D01*
X4529890Y-2306460D01*
X4543440Y-2309000D01*
G01X4445230Y-2278520D02*
X4436760Y-2293760D01*
X4426600Y-2303920D01*
X4414750Y-2309000D01*
X4401200Y-2303920D01*
X4391040Y-2293760D01*
X4380880Y-2278520D01*
X4377490Y-2258200D01*
Y-2156600D01*
G01X4245410Y-2309000D02*
X4313150D01*
Y-2156600D01*
X4245410D01*
G01X4272510Y-2230260D02*
X4313150D01*
G01X4109950Y-2169300D02*
X4120110Y-2161680D01*
X4131960Y-2156600D01*
X4145510D01*
X4160750Y-2164220D01*
X4172600Y-2176920D01*
X4181070Y-2192160D01*
X4187840Y-2217560D01*
X4189540Y-2240420D01*
X4186150Y-2263280D01*
X4181070Y-2278520D01*
X4170910Y-2293760D01*
X4159050Y-2303920D01*
X4147200Y-2309000D01*
X4135350D01*
X4123490Y-2303920D01*
X4113330Y-2296300D01*
X4104860Y-2286140D01*
G01X4015120Y-2156600D02*
Y-2309000D01*
G01X4054070Y-2156600D02*
X3976170D01*
G01X3789910Y-2309000D02*
Y-2156600D01*
X3712010Y-2309000D01*
Y-2156600D01*
G01X3656130D02*
Y-2265820D01*
X3649360Y-2288680D01*
X3635810Y-2303920D01*
X3618880Y-2309000D01*
X3601950Y-2303920D01*
X3588400Y-2288680D01*
X3581630Y-2265820D01*
Y-2156600D01*
G01X3530830Y-2309000D02*
Y-2156600D01*
X3486800Y-2283600D01*
X3442770Y-2156600D01*
Y-2309000D01*
G01X3341170Y-2227720D02*
X3334400Y-2220100D01*
X3329320Y-2207400D01*
X3325930Y-2189620D01*
X3329320Y-2174380D01*
X3336090Y-2164220D01*
X3347950Y-2156600D01*
X3393670D01*
Y-2309000D01*
X3337790D01*
X3325930Y-2298840D01*
X3319160Y-2283600D01*
X3315770Y-2265820D01*
X3319160Y-2248040D01*
X3329320Y-2232800D01*
X3341170Y-2227720D01*
X3393670D01*
G01X3188770Y-2309000D02*
X3256510D01*
Y-2156600D01*
X3188770D01*
G01X3215870Y-2230260D02*
X3256510D01*
G01X3124430Y-2309000D02*
Y-2156600D01*
X3082090D01*
X3068550Y-2164220D01*
X3060080Y-2174380D01*
X3056690Y-2194700D01*
X3060080Y-2215020D01*
X3070240Y-2227720D01*
X3082090Y-2235340D01*
X3124430D01*
G01X3082090D02*
X3056690Y-2309000D01*
G01X2958480Y-2314080D02*
X2961870Y-2311540D01*
Y-2306460D01*
X2958480Y-2303920D01*
X2955090Y-2306460D01*
Y-2311540D01*
X2958480Y-2314080D01*
G01Y-2245500D02*
X2961870Y-2242960D01*
Y-2237880D01*
X2958480Y-2235340D01*
X2955090Y-2237880D01*
Y-2242960D01*
X2958480Y-2245500D01*
G01X4841470Y-1737500D02*
Y-1585100D01*
X4800830D01*
X4787280Y-1592720D01*
X4777120Y-1610500D01*
X4773730Y-1630820D01*
X4777120Y-1651140D01*
X4785590Y-1666380D01*
X4800830Y-1674000D01*
X4841470D01*
G01X4709390Y-1737500D02*
Y-1585100D01*
X4667050D01*
X4653510Y-1592720D01*
X4645040Y-1602880D01*
X4641650Y-1623200D01*
X4645040Y-1643520D01*
X4655200Y-1656220D01*
X4667050Y-1663840D01*
X4709390D01*
G01X4667050D02*
X4641650Y-1737500D01*
G01X4543440D02*
X4556990Y-1734960D01*
X4568840Y-1724800D01*
X4579000Y-1709560D01*
X4585780Y-1691780D01*
X4589160Y-1671460D01*
Y-1651140D01*
X4585780Y-1630820D01*
X4579000Y-1613040D01*
X4568840Y-1597800D01*
X4556990Y-1587640D01*
X4543440Y-1585100D01*
X4529890Y-1587640D01*
X4518040Y-1597800D01*
X4507880Y-1613040D01*
X4501100Y-1630820D01*
X4497720Y-1651140D01*
Y-1671460D01*
X4501100Y-1691780D01*
X4507880Y-1709560D01*
X4518040Y-1724800D01*
X4529890Y-1734960D01*
X4543440Y-1737500D01*
G01X4445230Y-1707020D02*
X4436760Y-1722260D01*
X4426600Y-1732420D01*
X4414750Y-1737500D01*
X4401200Y-1732420D01*
X4391040Y-1722260D01*
X4380880Y-1707020D01*
X4377490Y-1686700D01*
Y-1585100D01*
G01X4245410Y-1737500D02*
X4313150D01*
Y-1585100D01*
X4245410D01*
G01X4272510Y-1658760D02*
X4313150D01*
G01X4109950Y-1597800D02*
X4120110Y-1590180D01*
X4131960Y-1585100D01*
X4145510D01*
X4160750Y-1592720D01*
X4172600Y-1605420D01*
X4181070Y-1620660D01*
X4187840Y-1646060D01*
X4189540Y-1668920D01*
X4186150Y-1691780D01*
X4181070Y-1707020D01*
X4170910Y-1722260D01*
X4159050Y-1732420D01*
X4147200Y-1737500D01*
X4135350D01*
X4123490Y-1732420D01*
X4113330Y-1724800D01*
X4104860Y-1714640D01*
G01X4015120Y-1585100D02*
Y-1737500D01*
G01X4054070Y-1585100D02*
X3976170D01*
G01X3789910Y-1737500D02*
Y-1585100D01*
X3712010Y-1737500D01*
Y-1585100D01*
G01X3661220Y-1737500D02*
X3618880Y-1585100D01*
X3576540Y-1737500D01*
G01X3591790Y-1684160D02*
X3645980D01*
G01X3530830Y-1737500D02*
Y-1585100D01*
X3486800Y-1712100D01*
X3442770Y-1585100D01*
Y-1737500D01*
G01X3320850D02*
X3388590D01*
Y-1585100D01*
X3320850D01*
G01X3347950Y-1658760D02*
X3388590D01*
G01X3222640Y-1742580D02*
X3226030Y-1740040D01*
Y-1734960D01*
X3222640Y-1732420D01*
X3219250Y-1734960D01*
Y-1740040D01*
X3222640Y-1742580D01*
G01Y-1674000D02*
X3226030Y-1671460D01*
Y-1666380D01*
X3222640Y-1663840D01*
X3219250Y-1666380D01*
Y-1671460D01*
X3222640Y-1674000D01*
G01X4770350Y-835800D02*
X4780510Y-828180D01*
X4792360Y-823100D01*
X4805910D01*
X4821150Y-830720D01*
X4833000Y-843420D01*
X4841470Y-858660D01*
X4848240Y-884060D01*
X4849940Y-906920D01*
X4846550Y-929780D01*
X4841470Y-945020D01*
X4831310Y-960260D01*
X4819450Y-970420D01*
X4807600Y-975500D01*
X4795750D01*
X4783890Y-970420D01*
X4773730Y-962800D01*
X4765260Y-952640D01*
G01X4675520Y-975500D02*
X4689070Y-972960D01*
X4700920Y-962800D01*
X4711080Y-947560D01*
X4717860Y-929780D01*
X4721240Y-909460D01*
Y-889140D01*
X4717860Y-868820D01*
X4711080Y-851040D01*
X4700920Y-835800D01*
X4689070Y-825640D01*
X4675520Y-823100D01*
X4661970Y-825640D01*
X4650120Y-835800D01*
X4639960Y-851040D01*
X4633180Y-868820D01*
X4629800Y-889140D01*
Y-909460D01*
X4633180Y-929780D01*
X4639960Y-947560D01*
X4650120Y-962800D01*
X4661970Y-972960D01*
X4675520Y-975500D01*
G01X4587470D02*
Y-823100D01*
X4543440Y-950100D01*
X4499410Y-823100D01*
Y-975500D01*
G01X4445230D02*
Y-823100D01*
X4404590D01*
X4391040Y-830720D01*
X4380880Y-848500D01*
X4377490Y-868820D01*
X4380880Y-889140D01*
X4389350Y-904380D01*
X4404590Y-912000D01*
X4445230D01*
G01X4321620Y-975500D02*
X4279280Y-823100D01*
X4236940Y-975500D01*
G01X4252190Y-922160D02*
X4306380D01*
G01X4186150Y-975500D02*
Y-823100D01*
X4108250Y-975500D01*
Y-823100D01*
G01X4015120Y-975500D02*
Y-906920D01*
X4048990Y-823100D01*
G01X3981250D02*
X4015120Y-906920D01*
G01X3789910Y-975500D02*
Y-823100D01*
X3712010Y-975500D01*
Y-823100D01*
G01X3661220Y-975500D02*
X3618880Y-823100D01*
X3576540Y-975500D01*
G01X3591790Y-922160D02*
X3645980D01*
G01X3530830Y-975500D02*
Y-823100D01*
X3486800Y-950100D01*
X3442770Y-823100D01*
Y-975500D01*
G01X3320850D02*
X3388590D01*
Y-823100D01*
X3320850D01*
G01X3347950Y-896760D02*
X3388590D01*
G01X3222640Y-980580D02*
X3226030Y-978040D01*
Y-972960D01*
X3222640Y-970420D01*
X3219250Y-972960D01*
Y-978040D01*
X3222640Y-980580D01*
G01Y-912000D02*
X3226030Y-909460D01*
Y-904380D01*
X3222640Y-901840D01*
X3219250Y-904380D01*
Y-909460D01*
X3222640Y-912000D01*
G01X4909200Y-759600D02*
Y-2664600D01*
G01Y-2298840D02*
X7893700D01*
G01X4909200Y-1917840D02*
X7893700D01*
G01X4909200Y-1524140D02*
X7893700D01*
G01X7832060Y-1801000D02*
Y-1674000D01*
X7804970D01*
X7794130Y-1680350D01*
X7786000Y-1688820D01*
X7779230Y-1701510D01*
X7773810Y-1716340D01*
X7772460Y-1737500D01*
X7773810Y-1758670D01*
X7779230Y-1773490D01*
X7786000Y-1786190D01*
X7794130Y-1794650D01*
X7804970Y-1801000D01*
X7832060D01*
G01X7668490D02*
X7722670D01*
Y-1674000D01*
X7668490D01*
G01X7690160Y-1735380D02*
X7722670D01*
G01X7617350Y-1784070D02*
X7606510Y-1794650D01*
X7594320Y-1801000D01*
X7583480D01*
X7572640Y-1794650D01*
X7564520Y-1784070D01*
X7560450Y-1769250D01*
X7563160Y-1754440D01*
X7569930Y-1741730D01*
X7582130Y-1733270D01*
X7598380Y-1729030D01*
X7607870Y-1720570D01*
X7611930Y-1705750D01*
X7609220Y-1690930D01*
X7602450Y-1680350D01*
X7592960Y-1674000D01*
X7583480D01*
X7574000Y-1678230D01*
X7565870Y-1688820D01*
G01X7498480Y-1674000D02*
X7465970D01*
G01X7482220D02*
Y-1801000D01*
G01X7498480D02*
X7465970D01*
G01X7367410Y-1737500D02*
X7340320D01*
Y-1775600D01*
X7348450Y-1788300D01*
X7357930Y-1796770D01*
X7371480Y-1801000D01*
X7385020Y-1796770D01*
X7394510Y-1788300D01*
X7402630Y-1775600D01*
X7408050Y-1760780D01*
X7410760Y-1743850D01*
Y-1729030D01*
X7408050Y-1716340D01*
X7402630Y-1701510D01*
X7394510Y-1688820D01*
X7386380Y-1680350D01*
X7375540Y-1674000D01*
X7366060D01*
X7355220Y-1678230D01*
X7347090Y-1686700D01*
G01X7300020Y-1801000D02*
Y-1674000D01*
X7237700Y-1801000D01*
Y-1674000D01*
G01X7135090Y-1801000D02*
X7189270D01*
Y-1674000D01*
X7135090D01*
G01X7156760Y-1735380D02*
X7189270D01*
G01X7082590Y-1801000D02*
Y-1674000D01*
X7048730D01*
X7037890Y-1680350D01*
X7031120Y-1688820D01*
X7028410Y-1705750D01*
X7031120Y-1722680D01*
X7039240Y-1733270D01*
X7048730Y-1739620D01*
X7082590D01*
G01X7048730D02*
X7028410Y-1801000D01*
G01X6948820Y-1805230D02*
X6951530Y-1803120D01*
Y-1798880D01*
X6948820Y-1796770D01*
X6946110Y-1798880D01*
Y-1803120D01*
X6948820Y-1805230D01*
G01Y-1748090D02*
X6951530Y-1745970D01*
Y-1741730D01*
X6948820Y-1739620D01*
X6946110Y-1741730D01*
Y-1745970D01*
X6948820Y-1748090D01*
G01X6869230Y-1674000D02*
Y-1801000D01*
X6815050D01*
G01X6708370D02*
X6762550D01*
Y-1674000D01*
X6708370D01*
G01X6730040Y-1735380D02*
X6762550D01*
G01X6659940Y-1801000D02*
Y-1674000D01*
X6597620Y-1801000D01*
Y-1674000D01*
G01X6553260Y-1801000D02*
Y-1674000D01*
X6490940Y-1801000D01*
Y-1674000D01*
G01X6415420Y-1801000D02*
X6426260Y-1798880D01*
X6435740Y-1790420D01*
X6443870Y-1777720D01*
X6449290Y-1762900D01*
X6452000Y-1745970D01*
Y-1729030D01*
X6449290Y-1712100D01*
X6443870Y-1697280D01*
X6435740Y-1684580D01*
X6426260Y-1676120D01*
X6415420Y-1674000D01*
X6404580Y-1676120D01*
X6395100Y-1684580D01*
X6386970Y-1697280D01*
X6381550Y-1712100D01*
X6378840Y-1729030D01*
Y-1745970D01*
X6381550Y-1762900D01*
X6386970Y-1777720D01*
X6395100Y-1790420D01*
X6404580Y-1798880D01*
X6415420Y-1801000D01*
G01X6339900D02*
Y-1674000D01*
X6277580Y-1801000D01*
Y-1674000D01*
G01X6136020D02*
X6117060Y-1801000D01*
X6095380Y-1674000D01*
X6073710Y-1801000D01*
X6054740Y-1674000D01*
G01X6022570Y-1801000D02*
X5988700Y-1674000D01*
X5954830Y-1801000D01*
G01X5967030Y-1756550D02*
X6010380D01*
G01X5913180Y-1801000D02*
Y-1674000D01*
X5850860Y-1801000D01*
Y-1674000D01*
G01X5767210Y-1737500D02*
X5740120D01*
Y-1775600D01*
X5748250Y-1788300D01*
X5757730Y-1796770D01*
X5771280Y-1801000D01*
X5784820Y-1796770D01*
X5794310Y-1788300D01*
X5802430Y-1775600D01*
X5807850Y-1760780D01*
X5810560Y-1743850D01*
Y-1729030D01*
X5807850Y-1716340D01*
X5802430Y-1701510D01*
X5794310Y-1688820D01*
X5786180Y-1680350D01*
X5775340Y-1674000D01*
X5765860D01*
X5755020Y-1678230D01*
X5746890Y-1686700D01*
G01X7772460Y-2065580D02*
X7780590Y-2059230D01*
X7790070Y-2055000D01*
X7800900D01*
X7813100Y-2061350D01*
X7822580Y-2071930D01*
X7829350Y-2084630D01*
X7834770Y-2105800D01*
X7836130Y-2124850D01*
X7833420Y-2143900D01*
X7829350Y-2156600D01*
X7821230Y-2169300D01*
X7811740Y-2177770D01*
X7802260Y-2182000D01*
X7792780D01*
X7783290Y-2177770D01*
X7775170Y-2171420D01*
X7768390Y-2162950D01*
G01X7724030Y-2182000D02*
Y-2055000D01*
G01X7667130D02*
Y-2182000D01*
G01Y-2118500D02*
X7724030D01*
G01X7561810Y-2182000D02*
X7615990D01*
Y-2055000D01*
X7561810D01*
G01X7583480Y-2116380D02*
X7615990D01*
G01X7452420Y-2065580D02*
X7460550Y-2059230D01*
X7470030Y-2055000D01*
X7480860D01*
X7493060Y-2061350D01*
X7502540Y-2071930D01*
X7509310Y-2084630D01*
X7514730Y-2105800D01*
X7516090Y-2124850D01*
X7513380Y-2143900D01*
X7509310Y-2156600D01*
X7501190Y-2169300D01*
X7491700Y-2177770D01*
X7482220Y-2182000D01*
X7472740D01*
X7463250Y-2177770D01*
X7455130Y-2171420D01*
X7448350Y-2162950D01*
G01X7405340Y-2182000D02*
Y-2055000D01*
G01X7353870D02*
X7405340Y-2133320D01*
G01X7345740Y-2182000D02*
X7382310Y-2097340D01*
G01X7241770Y-2182000D02*
X7295950D01*
Y-2055000D01*
X7241770D01*
G01X7263440Y-2116380D02*
X7295950D01*
G01X7189270Y-2182000D02*
Y-2055000D01*
X7155410D01*
X7144570Y-2061350D01*
X7137800Y-2069820D01*
X7135090Y-2086750D01*
X7137800Y-2103680D01*
X7145920Y-2114270D01*
X7155410Y-2120620D01*
X7189270D01*
G01X7155410D02*
X7135090Y-2182000D01*
G01X7055500Y-2186230D02*
X7058210Y-2184120D01*
Y-2179880D01*
X7055500Y-2177770D01*
X7052790Y-2179880D01*
Y-2184120D01*
X7055500Y-2186230D01*
G01Y-2129090D02*
X7058210Y-2126970D01*
Y-2122730D01*
X7055500Y-2120620D01*
X7052790Y-2122730D01*
Y-2126970D01*
X7055500Y-2129090D01*
G01X6975910Y-2055000D02*
Y-2182000D01*
X6921730D01*
G01X6815050D02*
X6869230D01*
Y-2055000D01*
X6815050D01*
G01X6836720Y-2116380D02*
X6869230D01*
G01X6766620Y-2182000D02*
Y-2055000D01*
X6704300Y-2182000D01*
Y-2055000D01*
G01X6659940Y-2182000D02*
Y-2055000D01*
X6597620Y-2182000D01*
Y-2055000D01*
G01X6522100Y-2182000D02*
X6532940Y-2179880D01*
X6542420Y-2171420D01*
X6550550Y-2158720D01*
X6555970Y-2143900D01*
X6558680Y-2126970D01*
Y-2110030D01*
X6555970Y-2093100D01*
X6550550Y-2078280D01*
X6542420Y-2065580D01*
X6532940Y-2057120D01*
X6522100Y-2055000D01*
X6511260Y-2057120D01*
X6501780Y-2065580D01*
X6493650Y-2078280D01*
X6488230Y-2093100D01*
X6485520Y-2110030D01*
Y-2126970D01*
X6488230Y-2143900D01*
X6493650Y-2158720D01*
X6501780Y-2171420D01*
X6511260Y-2179880D01*
X6522100Y-2182000D01*
G01X6446580D02*
Y-2055000D01*
X6384260Y-2182000D01*
Y-2055000D01*
G01X6242700D02*
X6223740Y-2182000D01*
X6202060Y-2055000D01*
X6180390Y-2182000D01*
X6161420Y-2055000D01*
G01X6129250Y-2182000D02*
X6095380Y-2055000D01*
X6061510Y-2182000D01*
G01X6073710Y-2137550D02*
X6117060D01*
G01X6019860Y-2182000D02*
Y-2055000D01*
X5957540Y-2182000D01*
Y-2055000D01*
G01X5873890Y-2118500D02*
X5846800D01*
Y-2156600D01*
X5854930Y-2169300D01*
X5864410Y-2177770D01*
X5877960Y-2182000D01*
X5891500Y-2177770D01*
X5900990Y-2169300D01*
X5909110Y-2156600D01*
X5914530Y-2141780D01*
X5917240Y-2124850D01*
Y-2110030D01*
X5914530Y-2097340D01*
X5909110Y-2082510D01*
X5900990Y-2069820D01*
X5892860Y-2061350D01*
X5882020Y-2055000D01*
X5872540D01*
X5861700Y-2059230D01*
X5853570Y-2067700D01*
G01X6996230Y-848500D02*
Y-1039000D01*
X6911570D01*
G01X6841720D02*
X6788800Y-848500D01*
X6735880Y-1039000D01*
G01X6754930Y-972330D02*
X6822670D01*
G01X6623700Y-1039000D02*
Y-953280D01*
X6666030Y-848500D01*
G01X6581370D02*
X6623700Y-953280D01*
G01X6416270Y-1039000D02*
X6500930D01*
Y-848500D01*
X6416270D01*
G01X6450130Y-940570D02*
X6500930D01*
G01X6335830Y-1039000D02*
Y-848500D01*
X6282920D01*
X6265980Y-858030D01*
X6255400Y-870730D01*
X6251170Y-896130D01*
X6255400Y-921530D01*
X6268100Y-937400D01*
X6282920Y-946930D01*
X6335830D01*
G01X6282920D02*
X6251170Y-1039000D01*
G01X6128400Y-1045350D02*
X6132630Y-1042170D01*
Y-1035830D01*
X6128400Y-1032650D01*
X6124170Y-1035830D01*
Y-1042170D01*
X6128400Y-1045350D01*
G01Y-959630D02*
X6132630Y-956450D01*
Y-950100D01*
X6128400Y-946930D01*
X6124170Y-950100D01*
Y-956450D01*
X6128400Y-959630D01*
G01X6003520D02*
X5988700Y-937400D01*
X5976000Y-924700D01*
X5959070Y-918350D01*
X5944250Y-924700D01*
X5933670Y-937400D01*
X5925200Y-956450D01*
X5923080Y-978680D01*
X5925200Y-997730D01*
X5933670Y-1016780D01*
X5946370Y-1032650D01*
X5961180Y-1039000D01*
X5978120Y-1032650D01*
X5992930Y-1013610D01*
X6001400Y-985020D01*
X6003520Y-953280D01*
X5999290Y-912000D01*
X5992930Y-889770D01*
X5982350Y-867550D01*
X5967530Y-851670D01*
X5952720Y-848500D01*
X5937900Y-854850D01*
X5927310Y-870730D01*
G01X6936970Y-1254900D02*
X6928500Y-1245380D01*
X6922150Y-1229500D01*
X6917910Y-1207270D01*
X6922150Y-1188230D01*
X6930620Y-1175530D01*
X6945430Y-1166000D01*
X7002580D01*
Y-1356500D01*
X6932730D01*
X6917910Y-1343800D01*
X6909450Y-1324750D01*
X6905220Y-1302520D01*
X6909450Y-1280300D01*
X6922150Y-1261250D01*
X6936970Y-1254900D01*
X7002580D01*
G01X6788800Y-1356500D02*
X6805740Y-1353330D01*
X6820550Y-1340630D01*
X6833250Y-1321580D01*
X6841720Y-1299350D01*
X6845950Y-1273950D01*
Y-1248550D01*
X6841720Y-1223150D01*
X6833250Y-1200920D01*
X6820550Y-1181880D01*
X6805740Y-1169170D01*
X6788800Y-1166000D01*
X6771870Y-1169170D01*
X6757050Y-1181880D01*
X6744350Y-1200920D01*
X6735880Y-1223150D01*
X6731650Y-1248550D01*
Y-1273950D01*
X6735880Y-1299350D01*
X6744350Y-1321580D01*
X6757050Y-1340630D01*
X6771870Y-1353330D01*
X6788800Y-1356500D01*
G01X6623700Y-1166000D02*
Y-1356500D01*
G01X6672380Y-1166000D02*
X6575020D01*
G01X6458600D02*
Y-1356500D01*
G01X6507280Y-1166000D02*
X6409920D01*
G01X6293500Y-1356500D02*
X6310440Y-1353330D01*
X6325250Y-1340630D01*
X6337950Y-1321580D01*
X6346420Y-1299350D01*
X6350650Y-1273950D01*
Y-1248550D01*
X6346420Y-1223150D01*
X6337950Y-1200920D01*
X6325250Y-1181880D01*
X6310440Y-1169170D01*
X6293500Y-1166000D01*
X6276570Y-1169170D01*
X6261750Y-1181880D01*
X6249050Y-1200920D01*
X6240580Y-1223150D01*
X6236350Y-1248550D01*
Y-1273950D01*
X6240580Y-1299350D01*
X6249050Y-1321580D01*
X6261750Y-1340630D01*
X6276570Y-1353330D01*
X6293500Y-1356500D01*
G01X6183440D02*
Y-1166000D01*
X6128400Y-1324750D01*
X6073360Y-1166000D01*
Y-1356500D01*
G01X7832060Y-2563000D02*
Y-2436000D01*
X7804970D01*
X7794130Y-2442350D01*
X7786000Y-2450820D01*
X7779230Y-2463510D01*
X7773810Y-2478340D01*
X7772460Y-2499500D01*
X7773810Y-2520670D01*
X7779230Y-2535490D01*
X7786000Y-2548190D01*
X7794130Y-2556650D01*
X7804970Y-2563000D01*
X7832060D01*
G01X7729450D02*
X7695580Y-2436000D01*
X7661710Y-2563000D01*
G01X7673910Y-2518550D02*
X7717260D01*
G01X7588900Y-2436000D02*
Y-2563000D01*
G01X7620060Y-2436000D02*
X7557740D01*
G01X7455130Y-2563000D02*
X7509310D01*
Y-2436000D01*
X7455130D01*
G01X7476800Y-2497380D02*
X7509310D01*
G01X7375540Y-2567230D02*
X7378250Y-2565120D01*
Y-2560880D01*
X7375540Y-2558770D01*
X7372830Y-2560880D01*
Y-2565120D01*
X7375540Y-2567230D01*
G01Y-2510090D02*
X7378250Y-2507970D01*
Y-2503730D01*
X7375540Y-2501620D01*
X7372830Y-2503730D01*
Y-2507970D01*
X7375540Y-2510090D01*
G01X7294600Y-2457170D02*
X7286470Y-2444470D01*
X7276990Y-2438120D01*
X7266150Y-2436000D01*
X7252600Y-2440230D01*
X7243120Y-2450820D01*
X7240410Y-2463510D01*
X7241770Y-2476220D01*
X7247190Y-2486800D01*
X7274280Y-2507970D01*
X7286470Y-2522780D01*
X7294600Y-2543950D01*
X7297310Y-2563000D01*
X7240410D01*
G01X7191980Y-2537600D02*
X7183860Y-2552420D01*
X7173020Y-2560880D01*
X7160820Y-2563000D01*
X7149990Y-2560880D01*
X7139150Y-2550300D01*
X7132380Y-2537600D01*
X7131020Y-2524900D01*
X7133730Y-2510090D01*
X7143210Y-2499500D01*
X7152700Y-2495270D01*
X7164890D01*
G01X7152700D02*
X7144570Y-2488920D01*
X7137800Y-2478340D01*
X7135090Y-2465630D01*
X7137800Y-2452930D01*
X7144570Y-2442350D01*
X7156760Y-2436000D01*
X7168950Y-2438120D01*
X7181150Y-2446580D01*
G01X7083950Y-2546070D02*
X7073110Y-2556650D01*
X7060920Y-2563000D01*
X7050080D01*
X7039240Y-2556650D01*
X7031120Y-2546070D01*
X7027050Y-2531250D01*
X7029760Y-2516440D01*
X7036530Y-2503730D01*
X7048730Y-2495270D01*
X7064980Y-2491030D01*
X7074470Y-2482570D01*
X7078530Y-2467750D01*
X7075820Y-2452930D01*
X7069050Y-2442350D01*
X7059560Y-2436000D01*
X7050080D01*
X7040600Y-2440230D01*
X7032470Y-2450820D01*
G01X6921730Y-2563000D02*
X6975910D01*
Y-2436000D01*
X6921730D01*
G01X6943400Y-2497380D02*
X6975910D01*
G01X6869230Y-2563000D02*
Y-2436000D01*
X6836720D01*
X6825880Y-2442350D01*
X6817760Y-2457170D01*
X6815050Y-2474100D01*
X6817760Y-2491030D01*
X6824530Y-2503730D01*
X6836720Y-2510090D01*
X6869230D01*
G01X6735460Y-2563000D02*
Y-2436000D01*
X6751720Y-2461400D01*
G01Y-2563000D02*
X6719210D01*
G01X6612520D02*
Y-2436000D01*
X6662650Y-2527020D01*
X6594910D01*
G01X7893700Y-759600D02*
Y-2664600D01*
G54D12*
X254000Y1524000D03*
Y1778000D03*
Y2032000D03*
Y2286000D03*
Y2540000D03*
Y2794000D03*
Y3048000D03*
Y3302000D03*
Y3556000D03*
Y3810000D03*
Y4064000D03*
Y4318000D03*
Y4572000D03*
Y4826000D03*
Y5080000D03*
Y5334000D03*
Y5588000D03*
Y5842000D03*
Y6096000D03*
X508000Y1524000D03*
Y1778000D03*
Y2032000D03*
Y2286000D03*
Y2540000D03*
Y2794000D03*
Y3048000D03*
Y3302000D03*
Y3556000D03*
Y3810000D03*
Y4064000D03*
Y4318000D03*
Y4572000D03*
Y4826000D03*
Y5080000D03*
Y5334000D03*
Y5588000D03*
Y5842000D03*
Y6350000D03*
Y6096000D03*
X900000Y520000D03*
X1154000D03*
X1168400Y1524000D03*
Y1778000D03*
Y2032000D03*
Y2286000D03*
Y2540000D03*
Y2794000D03*
Y3048000D03*
Y3302000D03*
Y3556000D03*
Y3810000D03*
Y4064000D03*
Y4318000D03*
Y4572000D03*
Y4826000D03*
Y5080000D03*
Y5334000D03*
Y5588000D03*
Y5842000D03*
Y6096000D03*
X1408000Y520000D03*
X1662000D03*
X1916000D03*
X1422400Y1524000D03*
Y1778000D03*
Y2032000D03*
Y2286000D03*
Y2540000D03*
Y2794000D03*
Y3048000D03*
Y3302000D03*
Y3556000D03*
Y3810000D03*
Y4064000D03*
Y4318000D03*
Y4572000D03*
Y4826000D03*
Y5080000D03*
Y5334000D03*
Y5588000D03*
Y5842000D03*
Y6350000D03*
Y6096000D03*
X2384000Y6934000D03*
X2130000D03*
X2384000Y6680000D03*
X2130000D03*
X2384000Y7188000D03*
X2130000D03*
X2384000Y7442000D03*
X2130000D03*
X2892000Y6934000D03*
X2638000D03*
X2892000Y6680000D03*
X2638000D03*
X2892000Y7188000D03*
X2638000D03*
X2892000Y7442000D03*
X2638000D03*
X3400000Y6934000D03*
X3146000D03*
X3400000Y6680000D03*
X3146000D03*
X3400000Y7188000D03*
X3146000D03*
X3400000Y7442000D03*
X3146000D03*
X4162000Y6934000D03*
Y6680000D03*
X3908000Y6934000D03*
X3654000D03*
X3908000Y6680000D03*
X3654000D03*
X4162000Y7442000D03*
Y7188000D03*
X3908000D03*
X3654000D03*
X3908000Y7442000D03*
X3654000D03*
X4416000Y6934000D03*
Y6680000D03*
Y7442000D03*
Y7188000D03*
X6197600Y1524000D03*
Y1778000D03*
Y2032000D03*
Y2286000D03*
Y2540000D03*
Y2794000D03*
Y3048000D03*
Y3302000D03*
Y3556000D03*
Y3810000D03*
Y4064000D03*
Y4318000D03*
Y4572000D03*
Y4826000D03*
Y5080000D03*
Y5334000D03*
Y5588000D03*
Y5842000D03*
Y6096000D03*
X6451600Y1524000D03*
Y1778000D03*
Y2032000D03*
Y2286000D03*
Y2540000D03*
Y2794000D03*
Y3048000D03*
Y3302000D03*
Y3556000D03*
Y3810000D03*
Y4064000D03*
Y4318000D03*
Y4572000D03*
Y4826000D03*
Y5080000D03*
Y5334000D03*
Y5588000D03*
Y5842000D03*
Y6350000D03*
Y6096000D03*
X7112000Y1524000D03*
Y1778000D03*
X7366000Y1524000D03*
Y1778000D03*
X7112000Y2032000D03*
Y2286000D03*
X7366000Y2032000D03*
Y2286000D03*
X7112000Y2540000D03*
Y2794000D03*
Y3048000D03*
X7366000Y2540000D03*
Y2794000D03*
Y3048000D03*
X7112000Y3302000D03*
Y3556000D03*
X7366000Y3302000D03*
Y3556000D03*
X7112000Y3810000D03*
X7366000D03*
X7112000Y4064000D03*
X7366000D03*
X7112000Y4318000D03*
Y4572000D03*
X7366000Y4318000D03*
Y4572000D03*
X7112000Y4826000D03*
Y5080000D03*
X7366000Y4826000D03*
Y5080000D03*
X7112000Y5334000D03*
Y5588000D03*
Y5842000D03*
X7366000Y5334000D03*
Y5588000D03*
Y5842000D03*
X7112000Y6096000D03*
X7366000Y6350000D03*
Y6096000D03*
G54D21*
X2420000Y3110000D03*
X2380000Y3040000D03*
X2500000Y3350000D03*
X2580000Y3310000D03*
X2690000Y3270000D03*
X2620000Y3230000D03*
X2460000Y3190000D03*
X2540000Y3150000D03*
X2870000Y3970000D03*
X2990000Y3700000D03*
X2830000Y3840000D03*
X2970000Y4050000D03*
X2900000Y4380000D03*
X2930000Y4980000D03*
X3070000Y3620000D03*
X3330000D03*
X3250000Y3940000D03*
X3490000Y4100000D03*
X3070000Y3700000D03*
X3330000Y4100000D03*
X3050000Y4050000D03*
X3250000Y3860000D03*
X3330000Y3700000D03*
X3250000Y4020000D03*
Y3780000D03*
X3330000Y3940000D03*
X3410000Y4020000D03*
Y3860000D03*
X3490000Y3940000D03*
Y4020000D03*
X3330000Y3860000D03*
X3410000Y3940000D03*
X3490000Y3860000D03*
X3410000Y4660000D03*
X3490000Y4260000D03*
X3330000Y4660000D03*
X3490000Y4180000D03*
X3150000Y4540000D03*
X3410000Y4580000D03*
X3330000Y4180000D03*
X3410000Y4260000D03*
X3490000Y4340000D03*
X3330000D03*
X3410000D03*
X3490000Y4420000D03*
X3410000D03*
X3490000Y4500000D03*
Y4660000D03*
Y4580000D03*
X3330000D03*
Y4420000D03*
X3150000Y4300000D03*
X3330000Y4260000D03*
X3150000Y4420000D03*
X3170000Y4740000D03*
X3410000Y4820000D03*
X3250000Y5060000D03*
X3330000Y4980000D03*
X3410000Y4740000D03*
X3250000D03*
X3330000Y4820000D03*
X3490000D03*
X3010000Y4980000D03*
X3330000Y4740000D03*
X3250000Y5140000D03*
X3490000Y4740000D03*
X3410000Y5060000D03*
X3250000Y5220000D03*
X3410000Y4980000D03*
X3490000Y5060000D03*
X3410000Y5140000D03*
X3490000Y4980000D03*
Y5140000D03*
X3170000Y4980000D03*
X3250000Y5450000D03*
Y5320000D03*
X3570000Y3620000D03*
X3650000D03*
X3890000D03*
X4050000D03*
X3810000Y4100000D03*
X3730000D03*
X4050000Y3700000D03*
Y4100000D03*
X3650000Y3700000D03*
X3890000D03*
X3570000Y4100000D03*
Y3700000D03*
X4050000Y3860000D03*
Y4020000D03*
Y3940000D03*
X3650000Y3860000D03*
X3730000Y3940000D03*
Y4020000D03*
Y3860000D03*
X3890000Y3940000D03*
Y4100000D03*
Y4020000D03*
Y3860000D03*
X3570000Y3940000D03*
Y4020000D03*
Y3860000D03*
X3650000Y3940000D03*
Y4020000D03*
Y4100000D03*
X3890000Y4420000D03*
X3810000D03*
Y4500000D03*
Y4580000D03*
X4050000Y4660000D03*
Y4260000D03*
X3570000Y4580000D03*
X3650000D03*
Y4500000D03*
X3810000Y4660000D03*
X3890000D03*
X3970000Y4580000D03*
Y4500000D03*
X3570000Y4340000D03*
X3650000Y4420000D03*
X3730000Y4580000D03*
X3650000Y4340000D03*
X3890000D03*
X3970000Y4660000D03*
X3570000Y4420000D03*
Y4500000D03*
X4050000Y4340000D03*
X3730000D03*
X3810000D03*
X4050000Y4420000D03*
X3890000Y4180000D03*
Y4260000D03*
X4050000Y4180000D03*
X3570000Y4740000D03*
X4050000D03*
X3570000Y4820000D03*
X4050000Y4900000D03*
X3570000D03*
X3730000D03*
X3810000D03*
X3730000Y4820000D03*
X3970000D03*
X3810000D03*
X3970000Y4900000D03*
X3810000Y5140000D03*
X3890000Y4980000D03*
X3570000Y5060000D03*
Y4980000D03*
Y5140000D03*
X3650000Y5060000D03*
Y4980000D03*
Y5140000D03*
X3730000Y5060000D03*
X3810000Y4980000D03*
X3730000Y5140000D03*
X3810000Y5060000D03*
X3970000Y5140000D03*
Y4980000D03*
Y5060000D03*
X4050000Y5140000D03*
Y4980000D03*
X3890000Y4900000D03*
Y4820000D03*
X4050000Y5060000D03*
X3570000Y5380000D03*
X3970000D03*
X3730000D03*
X3570000Y5300000D03*
X3970000D03*
X3730000D03*
X4610000Y3620000D03*
X4370000D03*
X4290000D03*
X4370000Y3940000D03*
Y4020000D03*
X4290000D03*
X4210000Y4100000D03*
X4290000Y3700000D03*
X4610000D03*
X4370000D03*
Y3860000D03*
X4600000Y4090000D03*
X4370000Y3780000D03*
X4130000Y3860000D03*
Y3940000D03*
Y4020000D03*
X4210000D03*
X4290000Y3940000D03*
X4130000Y4100000D03*
X4290000Y3860000D03*
X4130000Y4180000D03*
X4210000D03*
Y4340000D03*
X4130000Y4260000D03*
X4600000Y4160000D03*
X4290000Y4340000D03*
X4550000Y4300000D03*
X4130000Y4340000D03*
X4290000Y4420000D03*
X4550000Y4430000D03*
X4130000Y4420000D03*
Y4500000D03*
Y4660000D03*
X4210000Y4580000D03*
X4290000D03*
X4470000Y4300000D03*
X4290000Y4260000D03*
X4370000Y5060000D03*
X4130000Y4900000D03*
X4290000Y4980000D03*
X4370000D03*
X4210000Y4820000D03*
X4370000D03*
Y5220000D03*
Y5140000D03*
X4130000D03*
Y4980000D03*
Y5060000D03*
X4210000Y5220000D03*
Y4980000D03*
X4560000Y4780000D03*
Y4850000D03*
X4130000Y4740000D03*
X4290000Y4820000D03*
X4940000Y1610000D03*
Y1710000D03*
X4870000Y1760000D03*
Y1660000D03*
X4940000Y1810000D03*
X4780000Y4410000D03*
Y4480000D03*
Y4590000D03*
Y4660000D03*
X4720000Y5140000D03*
Y5060000D03*
X4780000Y4850000D03*
Y4780000D03*
G54D13*
X254000Y6350000D03*
X820000Y6600000D03*
X1168400Y6350000D03*
X1620000Y6600000D03*
X2170000Y520000D03*
X2480000Y710000D03*
Y1370000D03*
Y930000D03*
Y1150000D03*
X2810000Y4620000D03*
X3860000Y3450000D03*
X4550000Y5780000D03*
X4920000Y1250000D03*
Y1470000D03*
X4860000Y5780000D03*
Y6000000D03*
X6197600Y6350000D03*
X7030000Y1230000D03*
Y980000D03*
X7112000Y6350000D03*
G54D22*
X2839500Y590000D03*
X2966500D03*
Y1110000D03*
X2839500D03*
X3093500Y590000D03*
X3220500D03*
Y1110000D03*
X3093500D03*
G54D14*
X530150Y850000D03*
X669850D03*
X250150D03*
X389850D03*
X2360150Y220000D03*
Y520000D03*
X2059850Y710000D03*
X1920150D03*
X2360150Y370000D03*
X2499850Y220000D03*
Y520000D03*
Y370000D03*
X2920150Y3840000D03*
X3329850Y2090000D03*
X3190150D03*
X3329850Y1950000D03*
X3190150D03*
X3059850Y3840000D03*
X3989850Y1870000D03*
X3850150D03*
X4000150Y1460000D03*
X3859850D03*
X3720150D03*
X3989850Y2020000D03*
X3850150D03*
X4260150Y690000D03*
X4399850D03*
X4279850Y1870000D03*
X4140150D03*
X4139850Y1460000D03*
X4279850Y2020000D03*
X4140150D03*
X4950150Y4120000D03*
X5089850D03*
X4950150Y4400000D03*
X5089850D03*
X4950150Y4260000D03*
X5089850D03*
Y4910000D03*
X4950150D03*
X5489850Y1210000D03*
X5350150D03*
X6710150Y950000D03*
X6849850D03*
G54D23*
X5112000Y6608000D03*
X4858000D03*
Y7370000D03*
X5112000D03*
X5620000Y6608000D03*
X5366000D03*
Y7370000D03*
G54D24*
X5495000Y900000D03*
X5305000D03*
X6355000Y950000D03*
X6545000D03*
G54D15*
X392000Y1020000D03*
X646000D03*
X1154000D03*
X900000D03*
X1916000D03*
X1662000D03*
X1408000D03*
G54D25*
X5620000Y7370000D03*
G54D16*
X640000Y6830000D03*
X510000Y6840000D03*
X350000Y6740000D03*
X250000Y6840000D03*
X640000Y6550000D03*
X1070000Y6740000D03*
X1170000Y6840000D03*
X1320000Y6740000D03*
X1420000Y6840000D03*
X2730000Y5340000D03*
X2930000D03*
X2730000Y5760000D03*
X2930000D03*
X2730000Y5480000D03*
X2930000D03*
X3880000Y760000D03*
Y680000D03*
Y840000D03*
Y920000D03*
X4370000Y830000D03*
Y930000D03*
X4460000Y1170000D03*
X4410000Y1050000D03*
X5000000Y360000D03*
X4760000D03*
X4880000D03*
X4760000Y490000D03*
X5160000Y590000D03*
Y720000D03*
X5220000Y1310000D03*
X5090000Y1280000D03*
X5130000Y980000D03*
Y870000D03*
X4990000Y1070000D03*
X4760000Y1050000D03*
Y920000D03*
X5340000Y720000D03*
Y590000D03*
X5770000Y530000D03*
Y630000D03*
Y430000D03*
X5350000Y1310000D03*
X5800000Y980000D03*
X5690000D03*
X6280000Y630000D03*
X6160000D03*
Y740000D03*
X6180000Y900000D03*
Y1000000D03*
X6280000Y790000D03*
X6200000Y6830000D03*
X6070000D03*
X5990000Y6640000D03*
X6820000Y6740000D03*
X6920000Y6830000D03*
X6550000Y6740000D03*
X6450000Y6830000D03*
X7370000Y1030000D03*
X7470000Y1130000D03*
X7220000Y940000D03*
Y1030000D03*
X7050000Y6830000D03*
X7140000D03*
X7230000D03*
X7470000Y6740000D03*
X7370000Y6830000D03*
G54D26*
G01X4600000Y4160000D02*
X4577000Y4137000D01*
X4513000D01*
X4440000Y4210000D01*
X4273950D01*
X4199950Y4284000D01*
X4165990D01*
X4149990Y4300000D01*
X4090000D01*
X4050000Y4340000D01*
G01Y4420000D02*
X4090000Y4380000D01*
X4160010D01*
X4264010Y4484000D01*
X4460040D01*
X4486040Y4510000D01*
X4640000D01*
X4693000Y4457000D01*
X4757000D01*
X4780000Y4480000D01*
G01X4600000Y4090000D02*
X4577000Y4113000D01*
X4503050D01*
X4430050Y4186000D01*
X4264000D01*
X4190000Y4260000D01*
X4130000D01*
G01X4550000Y4300000D02*
X4510000Y4340000D01*
X4290000D01*
G01X4130000D02*
X4146000Y4356000D01*
X4169960D01*
X4273960Y4460000D01*
X4469990D01*
X4495990Y4486000D01*
X4630050D01*
X4683050Y4433000D01*
X4757000D01*
X4780000Y4410000D01*
G01X4550000Y4430000D02*
X4540000Y4420000D01*
X4290000D01*
G01X4130000D02*
X4158000Y4448000D01*
X4177990D01*
X4245990Y4516000D01*
X4336000D01*
X4380000Y4560000D01*
X4653950D01*
X4706950Y4613000D01*
X4757000D01*
X4780000Y4590000D01*
G01X4130000Y4500000D02*
X4158000Y4472000D01*
X4168040D01*
X4236040Y4540000D01*
X4326050D01*
X4370050Y4584000D01*
X4644000D01*
X4697000Y4637000D01*
X4757000D01*
X4780000Y4660000D01*
G01Y4850000D02*
X4757000Y4827000D01*
X4717010D01*
X4550010Y4660000D01*
X4264050D01*
X4238000Y4633950D01*
Y4608000D01*
X4210000Y4580000D01*
G01X4780000Y4780000D02*
X4757000Y4803000D01*
X4726960D01*
X4559960Y4636000D01*
X4274000D01*
X4262000Y4624000D01*
Y4608000D01*
X4290000Y4580000D01*
G01X4560000Y4780000D02*
X4537000Y4803000D01*
X4516960D01*
X4419960Y4706000D01*
X4225990D01*
X4207990Y4688000D01*
X4158000D01*
X4130000Y4660000D01*
G01X4560000Y4850000D02*
X4537000Y4827000D01*
X4507010D01*
X4410010Y4730000D01*
X4216040D01*
X4198040Y4712000D01*
X4158000D01*
X4130000Y4740000D01*
G54D17*
X1030000Y290000D03*
X6560000D03*
X6600000Y7210000D03*
G54D27*
G01X669850Y850000D02*
X2250000D01*
X2300000Y900000D01*
Y1450000D01*
X2470000Y1620000D01*
X3260000D01*
X3580000Y1300000D01*
X4230000D01*
X4280000Y1350000D01*
Y1390000D01*
X4310000Y1420000D01*
X4450000D01*
X4510000Y1360000D01*
G01X392000Y1020000D02*
Y852150D01*
X389850Y850000D01*
G01X530150D02*
X389850D01*
G01X2970000Y4050000D02*
X2030000D01*
X1780000Y3800000D01*
Y3180000D01*
X1542000Y2942000D01*
X614000D01*
X508000Y3048000D01*
G01Y3302000D02*
X614000Y3196000D01*
X1506000D01*
X1680000Y3370000D01*
Y3850000D01*
X1970000Y4140000D01*
X3290000D01*
X3330000Y4100000D01*
G01X254000Y3556000D02*
X400000Y3410000D01*
X1540000D01*
X1630000Y3500000D01*
Y3870000D01*
X1940000Y4180000D01*
X3330000D01*
G01X508000Y3556000D02*
X614000Y3450000D01*
X1510000D01*
X1580000Y3520000D01*
Y3890000D01*
X1910000Y4220000D01*
X3350000D01*
X3390000Y4260000D01*
X3410000D01*
G01X254000Y3302000D02*
X400000Y3156000D01*
X1536000D01*
X1730000Y3350000D01*
Y3820000D01*
X2010000Y4100000D01*
X3000000D01*
X3050000Y4050000D01*
G01X508000Y4064000D02*
X614000Y3958000D01*
X1508000D01*
X1840000Y4290000D01*
X3070000D01*
X3120000Y4340000D01*
X3330000D01*
G01X3410000D02*
X3370000Y4300000D01*
X3260000D01*
X3210000Y4250000D01*
X1870000D01*
X1538000Y3918000D01*
X400000D01*
X254000Y4064000D01*
G01X3490000Y4340000D02*
X3450000Y4380000D01*
X3110000D01*
X3060000Y4330000D01*
X1810000D01*
X1652000Y4172000D01*
X400000D01*
X254000Y4318000D01*
G01Y4572000D02*
X400000Y4426000D01*
X1506000D01*
X1530000Y4450000D01*
X3000000D01*
X3038000Y4488000D01*
X3422000D01*
X3490000Y4420000D01*
G01X508000Y4318000D02*
X614000Y4212000D01*
X1622000D01*
X1830000Y4420000D01*
X3030000D01*
X3072000Y4462000D01*
X3368000D01*
X3410000Y4420000D01*
G01X3490000Y4500000D02*
X3476000Y4514000D01*
X3246000D01*
X3180000Y4580000D01*
X3070000D01*
X2970000Y4480000D01*
X1510000D01*
X1496000Y4466000D01*
X614000D01*
X508000Y4572000D01*
G01X254000Y4826000D02*
X400000Y4680000D01*
X1560000D01*
X1730000Y4510000D01*
X2940000D01*
X3040000Y4610000D01*
X3200000D01*
X3270000Y4540000D01*
X3530000D01*
X3570000Y4500000D01*
G01X3490000Y4580000D02*
X3450000Y4620000D01*
X3290000D01*
X3236000Y4674000D01*
X3056000D01*
X2970000Y4760000D01*
X2510000D01*
X2082000Y5188000D01*
X400000D01*
X254000Y5334000D01*
G01X3330000Y4580000D02*
X3280000D01*
X3212000Y4648000D01*
X3022000D01*
X2940000Y4730000D01*
X1540000D01*
X1530000Y4720000D01*
X614000D01*
X508000Y4826000D01*
G01X3330000Y4740000D02*
X3310000D01*
X3260000Y4790000D01*
X3060000D01*
X3030000Y4820000D01*
X2610000D01*
X1988000Y5442000D01*
X400000D01*
X254000Y5588000D01*
G01Y5842000D02*
X400000Y5696000D01*
X1894000D01*
X2560000Y5030000D01*
X3047700D01*
X3217700Y4860000D01*
X3430000D01*
X3450000Y4840000D01*
Y4800000D01*
X3470000Y4780000D01*
X3510000D01*
X3530000Y4760000D01*
Y4680000D01*
X3610000Y4600000D01*
Y4460000D01*
X3570000Y4420000D01*
G01X3490000Y4740000D02*
X3470000D01*
X3430000Y4780000D01*
X3310000D01*
X3270000Y4820000D01*
X3090000D01*
X3060000Y4850000D01*
X2660000D01*
X2028000Y5482000D01*
X614000D01*
X508000Y5588000D01*
G01Y5334000D02*
X614000Y5228000D01*
X2122000D01*
X2560000Y4790000D01*
X3000000D01*
X3090000Y4700000D01*
X3450000D01*
X3490000Y4660000D01*
G01X900000Y1020000D02*
Y1180150D01*
G01X1050000D02*
X900000D01*
G01X1050000Y1319850D02*
X1419850D01*
X1930000Y1830000D01*
X2780000D01*
X2810000Y1800000D01*
X3400000D01*
X3600000Y1600000D01*
X4350000D01*
X4410000Y1660000D01*
Y1720000D01*
X4480000Y1790000D01*
X4570000D01*
G01X800000Y7050000D02*
Y6870000D01*
X990000Y6680000D01*
X1390000D01*
X1430000Y6720000D01*
X1720000D01*
X1750000Y6690000D01*
Y6270000D01*
X1980000Y6040000D01*
X3280000D01*
X3610000Y5710000D01*
Y5040000D01*
X3630000Y5020000D01*
X3670000D01*
X3700000Y4990000D01*
Y4930000D01*
X3730000Y4900000D01*
G01X3810000D02*
Y4920000D01*
X3770000Y4960000D01*
Y5170000D01*
X3680000Y5260000D01*
Y5800000D01*
X3340000Y6140000D01*
X2040000D01*
X1850000Y6330000D01*
Y6750000D01*
X1670000Y6930000D01*
X1280000D01*
X1160000Y7050000D01*
X950000D01*
G01X3730000Y4820000D02*
X3770000Y4860000D01*
Y4920000D01*
X3730000Y4960000D01*
Y5000000D01*
X3690000Y5040000D01*
Y5180000D01*
X3650000Y5220000D01*
Y5750000D01*
X3310000Y6090000D01*
X2010000D01*
X1800000Y6300000D01*
Y6740000D01*
X1640000Y6900000D01*
X1190000D01*
X1100000Y6990000D01*
G01X3970000Y4820000D02*
X3930000Y4860000D01*
Y5000000D01*
X3950000Y5020000D01*
X3990000D01*
X4010000Y5040000D01*
Y5190000D01*
X4060000Y5240000D01*
Y5580000D01*
X3400000Y6240000D01*
X2100000D01*
X1950000Y6390000D01*
Y6770000D01*
X1720000Y7000000D01*
X1500000D01*
X1440000Y7060000D01*
X1250000D01*
G01X1290000Y7460000D02*
Y7359850D01*
G01X840000Y7460000D02*
Y7359850D01*
G01X990000Y7460000D02*
Y7359850D01*
G01X1140000Y7460000D02*
Y7359850D01*
G01X1540000Y340000D02*
X1639850D01*
X1640000Y339850D01*
G01X1770000Y199200D02*
X1899050D01*
X1900000Y200150D01*
G01X1640000D02*
X1769050D01*
X1770000Y199200D01*
G01X1408000Y520000D02*
X1688000Y800000D01*
X2280000D01*
X2340000Y860000D01*
Y1240000D01*
X2360000Y1260000D01*
X2590000D01*
X2660000Y1190000D01*
Y1040000D01*
X2740000Y960000D01*
X2950000D01*
X2966500Y976500D01*
Y1110000D01*
G01X1640000Y1180150D02*
X1790000D01*
G01X1662000Y1020000D02*
Y1158150D01*
X1640000Y1180150D01*
G01X1790000Y1319850D02*
Y1470000D01*
X2110000Y1790000D01*
X2760000D01*
X2790000Y1760000D01*
X3350000D01*
X3540000Y1570000D01*
X4370000D01*
X4490000Y1690000D01*
X4570000D01*
G01X3810000Y4820000D02*
X3850000Y4860000D01*
Y5090000D01*
X4020000Y5260000D01*
Y5540000D01*
X3370000Y6190000D01*
X2070000D01*
X1900000Y6360000D01*
Y6760000D01*
X1700000Y6960000D01*
X1440000D01*
X1400000Y7000000D01*
G01X3970000Y4900000D02*
X4010000Y4940000D01*
X4070000D01*
X4090000Y4960000D01*
Y5630000D01*
X3430000Y6290000D01*
X2130000D01*
X2000000Y6420000D01*
Y6780000D01*
X1720000Y7060000D01*
X1550000D01*
G01X1740000Y7460000D02*
Y7359850D01*
G01X1590000Y7460000D02*
Y7359850D01*
G01X1440000Y7460000D02*
Y7359850D01*
G01X1900000Y200150D02*
X2050000D01*
G01X2059850Y710000D02*
X2260000D01*
X2480000Y930000D01*
G01X1916000Y520000D02*
Y355850D01*
X1900000Y339850D01*
G01X1916000Y520000D02*
Y705850D01*
X1920150Y710000D01*
G01X2360150Y370000D02*
Y520000D01*
G01X2170000D02*
X2360150D01*
G01X1940000Y1180150D02*
X2090000D01*
G01X1916000Y1020000D02*
Y1156150D01*
X1940000Y1180150D01*
G01X4650000Y1600000D02*
X4590000Y1540000D01*
X3500000D01*
X3320000Y1720000D01*
X2770000D01*
X2740000Y1750000D01*
X2520150D01*
X2090000Y1319850D01*
G01X1890000Y7460000D02*
Y7359850D01*
G01X2650000Y740000D02*
Y639850D01*
G01Y370800D02*
Y500150D01*
G01X2499850Y220000D02*
Y370000D01*
G01X2650000Y370800D02*
X2500650D01*
X2499850Y370000D01*
G01X2966500Y590000D02*
Y346350D01*
X2960000Y339850D01*
G01X4370000Y3130000D02*
X4430000Y3190000D01*
X4810000D01*
X4850000Y3150000D01*
Y2230000D01*
X4670000Y2050000D01*
Y1870000D01*
X4790000Y1750000D01*
Y1450000D01*
X4580000Y1240000D01*
X4320000D01*
X4260000Y1180000D01*
X3760000D01*
X3400000Y820000D01*
X2590000D01*
X2480000Y710000D01*
G01X2499850Y520000D02*
Y690150D01*
X2480000Y710000D01*
G01Y1150000D02*
X2750000Y880000D01*
X3340000D01*
X3720000Y1260000D01*
X4240000D01*
X4280000Y1300000D01*
X4530000D01*
X4710000Y1480000D01*
Y1730000D01*
X4570000Y1870000D01*
Y2140000D01*
G01X2839500Y1110000D02*
Y1329650D01*
X2840000Y1330150D01*
G01X2970000Y1280000D02*
Y1113500D01*
X2966500Y1110000D01*
G01X2480000Y930000D02*
X2560000Y850000D01*
X3370000D01*
X3740000Y1220000D01*
X4250000D01*
X4300000Y1270000D01*
X4560000D01*
X4750000Y1460000D01*
Y1740000D01*
X4620000Y1870000D01*
Y2090000D01*
X4790000Y2260000D01*
Y3130000D01*
G01X2690000Y1330150D02*
X2519850D01*
X2480000Y1370000D01*
G01X2840000Y1330150D02*
X2690000D01*
G01X2940000Y1470000D02*
X2840150D01*
X2840000Y1469850D01*
G01X2690000Y1680000D02*
X3280000D01*
X3500000Y1460000D01*
X3720150D01*
G01X2930000Y1860000D02*
Y1930150D01*
X2910000Y1950150D01*
G01X3100000Y430000D02*
Y349850D01*
X3110000Y339850D01*
G01X3100000Y430000D02*
Y583500D01*
X3093500Y590000D01*
G01X3220000Y430000D02*
Y589500D01*
X3220500Y590000D01*
G01X3093500Y1110000D02*
Y1326650D01*
X3090000Y1330150D01*
G01X3060000Y1860000D02*
Y1940150D01*
X3050000Y1950150D01*
G01X3190000Y1860000D02*
Y1949850D01*
X3190150Y1950000D01*
G01X3329850Y2090000D02*
Y1950000D01*
G01X3310000Y2190000D02*
Y2109850D01*
X3329850Y2090000D01*
G01X4370000Y3780000D02*
X4260000D01*
X4210000Y3830000D01*
Y3940000D01*
X4170000Y3980000D01*
X3290000D01*
X3250000Y4020000D01*
G01X3059850Y3840000D02*
Y3969050D01*
X3060800Y3970000D01*
G01X3250000Y4020000D02*
X3110800D01*
X3060800Y3970000D01*
G01X3980000Y1360000D02*
Y1439850D01*
X4000150Y1460000D01*
G01X3860000Y1360000D02*
Y1459850D01*
X3859850Y1460000D01*
G01X4210000Y4340000D02*
X4250000Y4380000D01*
X4610000D01*
X4650000Y4340000D01*
X4890150D01*
X4950150Y4400000D01*
G01X4470000Y4300000D02*
X4510000Y4260000D01*
X4950150D01*
G01X4290000D02*
X4460000D01*
X4490000Y4230000D01*
X4840150D01*
X4950150Y4120000D01*
G01X4370000Y4820000D02*
X4520000Y4970000D01*
X4860010D01*
X4940160Y5050150D01*
X4950000D01*
G01X4950150Y4910000D02*
X4930150Y4930000D01*
X4540000D01*
X4390000Y4780000D01*
X4330000D01*
X4290000Y4820000D01*
G01X4950000Y5050150D02*
X5219850D01*
X5460000Y4810000D01*
Y1860000D01*
X5210000Y1610000D01*
X4940000D01*
G01Y1710000D02*
X5190000D01*
X5380000Y1900000D01*
Y4250000D01*
X5230000Y4400000D01*
X5089850D01*
G01X4870000Y1760000D02*
X5180000D01*
X5340000Y1920000D01*
Y4150000D01*
X5230000Y4260000D01*
X5089850D01*
G01X4870000Y1660000D02*
X5200000D01*
X5420000Y1880000D01*
Y4707000D01*
X5217000Y4910000D01*
X5089850D01*
G01X4940000Y1810000D02*
X5170000D01*
X5300000Y1940000D01*
Y4050000D01*
X5230000Y4120000D01*
X5089850D01*
G54D18*
X900000Y1180150D03*
Y1319850D03*
X1050000Y1180150D03*
Y1319850D03*
X1290000Y7220150D03*
Y7359850D03*
X1140000Y7220150D03*
Y7359850D03*
X990000Y7220150D03*
Y7359850D03*
X840000Y7220150D03*
Y7359850D03*
X1640000Y200150D03*
Y339850D03*
Y1180150D03*
Y1319850D03*
X1790000Y1180150D03*
Y1319850D03*
X1890000Y7220150D03*
Y7359850D03*
X1740000Y7220150D03*
Y7359850D03*
X1590000Y7220150D03*
Y7359850D03*
X1440000Y7220150D03*
Y7359850D03*
X2050000Y200150D03*
X1900000D03*
X2050000Y339850D03*
X1900000D03*
X1940000Y1180150D03*
Y1319850D03*
X2090000Y1180150D03*
Y1319850D03*
X2960000Y200150D03*
Y339850D03*
X2650000Y500150D03*
Y639850D03*
X2690000Y1330150D03*
X2840000D03*
X2690000Y1469850D03*
X2840000D03*
X2910000Y1950150D03*
Y2089850D03*
X3110000Y200150D03*
Y339850D03*
X3090000Y1330150D03*
Y1469850D03*
X3050000Y1950150D03*
Y2089850D03*
X3160000Y5449850D03*
Y5310150D03*
X3790000Y2270150D03*
Y2409850D03*
X4890000Y650150D03*
Y789850D03*
X5210000Y1070150D03*
Y1209850D03*
X4950000Y5050150D03*
Y5189850D03*
X5700000Y730150D03*
X5490000Y590150D03*
Y729850D03*
X5700000Y869850D03*
X6390000Y769850D03*
Y630150D03*
X6530000D03*
Y769850D03*
G54D28*
G01X160000Y850000D02*
X250150D01*
G01X900000Y1319850D02*
X800150D01*
G01X990000Y7220150D02*
X840000D01*
G01X1140000D02*
X990000D01*
G01X1290000D02*
X1140000D01*
G01X1440000D02*
X1290000D01*
G01X1310000Y7120000D02*
Y7200150D01*
X1290000Y7220150D01*
G01X1160000Y7120000D02*
Y7200150D01*
X1140000Y7220150D01*
G01X1010000Y7120000D02*
Y7200150D01*
X990000Y7220150D01*
G01X860000Y7120000D02*
Y7200150D01*
X840000Y7220150D01*
G01X1770000Y380000D02*
Y300800D01*
G01X1640000Y1410000D02*
Y1319850D01*
G01X1590000Y7220150D02*
X1440000D01*
G01X1740000D02*
X1590000D01*
G01X1890000D02*
X1740000D01*
G01X1760000Y7120000D02*
Y7200150D01*
X1740000Y7220150D01*
G01X1610000Y7120000D02*
Y7200150D01*
X1590000Y7220150D01*
G01X1460000Y7120000D02*
Y7200150D01*
X1440000Y7220150D01*
G01X2270000Y220000D02*
X2360150D01*
G01X2150000Y340000D02*
X2050150D01*
X2050000Y339850D01*
G01X1940000Y1410000D02*
Y1319850D01*
G01X1910000Y7120000D02*
Y7200150D01*
X1890000Y7220150D01*
G01X2840000Y760000D02*
Y590500D01*
X2839500Y590000D01*
G01X3110000Y200150D02*
X2960000D01*
G01D02*
X2860150D01*
X2860000Y200000D01*
G01X2650000Y269200D02*
Y190000D01*
G01X2690000Y1469850D02*
Y1560000D01*
G01X2910000Y2190000D02*
Y2089850D01*
G01X3050000D02*
X2910000D01*
G01X2959200Y3970000D02*
X2870000D01*
G01X2920150Y3840000D02*
X2830000D01*
G01X2930000Y4980000D02*
Y4920800D01*
X2919200Y4910000D01*
G01X3220500Y1110000D02*
Y940500D01*
X3220000Y940000D01*
G01X3190000Y1470000D02*
X3090150D01*
X3090000Y1469850D01*
G01X3050000Y2190000D02*
Y2089850D01*
G01X3190000Y2190000D02*
Y2090150D01*
X3190150Y2090000D01*
G01X3050000Y2089850D02*
X3190000D01*
X3190150Y2090000D01*
G01X3260000Y3609200D02*
X3150000D01*
G01X3330000Y3620000D02*
X3270800D01*
X3260000Y3609200D01*
G01X3250000Y3940000D02*
X3190800D01*
X3180000Y3950800D01*
G01X3490000Y4100000D02*
X3430800D01*
X3420000Y4089200D01*
G01X3570000Y3620000D02*
X3510800D01*
X3500000Y3609200D01*
G01X3330000Y3620000D02*
X3389200D01*
X3400000Y3609200D01*
G01D02*
X3500000D01*
G01X3070000Y3620000D02*
X3139200D01*
X3150000Y3609200D01*
G01X3260000Y3710800D02*
X3150000D01*
G01X3070000Y3700000D02*
X3139200D01*
X3150000Y3710800D01*
G01X3250000Y3860000D02*
X3190800D01*
X3180000Y3849200D01*
G01X3330000Y3700000D02*
X3389200D01*
X3400000Y3710800D01*
G01X3500000D02*
X3400000D01*
G01X3570000Y3700000D02*
X3510800D01*
X3500000Y3710800D01*
G01X3490000Y4260000D02*
X3559200D01*
X3570000Y4270800D01*
G01X3490000Y4180000D02*
X3430800D01*
X3420000Y4190800D01*
G01X3250000Y5060000D02*
X3190800D01*
X3180000Y5049200D01*
G01X3330000Y4980000D02*
X3399200Y4910800D01*
Y4910000D01*
G01X3490000Y4820000D02*
Y4899200D01*
X3500800Y4910000D01*
G01X3010000Y4980000D02*
Y4920800D01*
X3020800Y4910000D01*
G01X3250000Y5140000D02*
X3190800D01*
X3180000Y5150800D01*
G01X3570000Y5380000D02*
X3510800D01*
X3500000Y5390800D01*
G01X3250000Y5450000D02*
X3160150D01*
X3160000Y5449850D01*
G01X3570000Y5300000D02*
X3510800D01*
X3500000Y5289200D01*
G01X3250000Y5320000D02*
X3169850D01*
X3160000Y5310150D01*
G01X3980800Y1740000D02*
Y1860950D01*
X3989850Y1870000D01*
G01X3980000Y1660000D02*
Y1739200D01*
X3980800Y1740000D01*
G01X4060000D02*
X3980800D01*
G01X3879200D02*
X3870000Y1749200D01*
Y1850150D01*
X3850150Y1870000D01*
G01X3879200Y1740000D02*
Y1670800D01*
X3890000Y1660000D01*
G01X3690000Y2430000D02*
X3769850D01*
X3790000Y2409850D01*
G01X3920000Y2390800D02*
X3809050D01*
X3790000Y2409850D01*
G01X4000000Y2390000D02*
X3920800D01*
X3920000Y2390800D01*
G01X3690000Y2090000D02*
X3610800D01*
X3610000Y2090800D01*
G01X3990000Y2120000D02*
Y2020150D01*
X3989850Y2020000D01*
G01X3790000Y2270150D02*
Y2180000D01*
G01X3920000Y2289200D02*
X3809050D01*
X3790000Y2270150D01*
G01X3920000Y2289200D02*
Y2210000D01*
G01X3690000Y1990000D02*
X3610800D01*
X3610000Y1989200D01*
G01X3850150Y1870000D02*
Y2020000D01*
G01X3980000Y2500000D02*
Y2579200D01*
X3980800Y2580000D01*
G01X3880000Y2500000D02*
Y2579200D01*
X3879200Y2580000D01*
G01X4050000Y3620000D02*
X4109200D01*
X4120000Y3609200D01*
G01X3890000Y3620000D02*
X3830800D01*
X3820000Y3609200D01*
G01X3650000Y3620000D02*
X3709200D01*
X3720000Y3609200D01*
G01X3820000D02*
X3720000D01*
G01X4050000Y3700000D02*
X4109200D01*
X4120000Y3710800D01*
G01X4050000Y4100000D02*
X4019200Y4069200D01*
X3970000D01*
G01X3890000Y3700000D02*
X3830800D01*
X3820000Y3710800D01*
G01X3650000Y3700000D02*
X3709200D01*
X3720000Y3710800D01*
G01X3820000D02*
X3720000D01*
G01X3730000Y4100000D02*
Y4129200D01*
X3690000Y4169200D01*
G01X3810000Y4420000D02*
X3740800D01*
X3730000Y4409200D01*
G01X3810000Y4100000D02*
Y4169200D01*
G01X3900000Y4489200D02*
X3889200Y4500000D01*
X3810000D01*
G01X3890000Y4420000D02*
Y4479200D01*
X3900000Y4489200D01*
G01X4130000Y4180000D02*
X4050000Y4260000D01*
G01Y4590800D02*
Y4660000D01*
G01Y4260000D02*
X4030800Y4279200D01*
X3970000D01*
G01Y4170800D02*
Y4279200D01*
G01X3810000Y4500000D02*
Y4420000D01*
G01X3650000Y4500000D02*
X3719200D01*
X3730000Y4510800D01*
G01X3970000Y4500000D02*
X4039200D01*
X4050000Y4489200D01*
G01X3730000Y4580000D02*
Y4689200D01*
X3740800Y4700000D01*
G01X3650000Y4340000D02*
Y4310800D01*
X3690000Y4270800D01*
G01X3890000Y4340000D02*
X3930800Y4380800D01*
X3970000D01*
G01Y4660000D02*
X3969200D01*
X3900000Y4590800D01*
G01X3570000Y4100000D02*
Y4169200D01*
G01X3810000Y4270800D02*
Y4340000D01*
G01X4050000Y4740000D02*
X3950800D01*
X3940800Y4730000D01*
G01X3570000Y4740000D02*
X3599200D01*
X3639200Y4700000D01*
G01X3570000Y4820000D02*
X3629200D01*
X3640000Y4809200D01*
G01X4050000Y4660000D02*
Y4740000D01*
G01Y4900000D02*
Y4840800D01*
X4039200Y4830000D01*
G01X3570000Y4900000D02*
X3629200D01*
X3640000Y4910800D01*
G01X3810000Y4660000D02*
Y4700800D01*
X3839200Y4730000D01*
G01X3730000Y5380000D02*
X3789200D01*
X3800000Y5390800D01*
G01X3970000Y5380000D02*
X3910800D01*
X3900000Y5390800D01*
G01X3800000D02*
X3900000D01*
G01X3730000Y5300000D02*
X3789200D01*
X3800000Y5289200D01*
G01X3970000Y5300000D02*
X3910800D01*
X3900000Y5289200D01*
G01X3800000D02*
X3900000D01*
G01X4200000Y1360000D02*
Y1399850D01*
X4139850Y1460000D01*
G01X4250800Y1740000D02*
X4260000Y1749200D01*
Y1850150D01*
X4279850Y1870000D01*
G01X4240000Y1660000D02*
Y1729200D01*
X4250800Y1740000D01*
G01X4149200D02*
Y1860950D01*
X4140150Y1870000D01*
G01X4150000Y1660000D02*
Y1739200D01*
X4149200Y1740000D01*
G01X4570000Y2380000D02*
X4649200D01*
X4650000Y2380800D01*
G01X4280000Y2120000D02*
Y2020150D01*
X4279850Y2020000D01*
G01X4570000Y2280000D02*
X4649200D01*
X4650000Y2279200D01*
G01X4370000Y1870000D02*
X4279850D01*
G01X4140150D02*
Y2020000D01*
G01X4370000Y4020000D02*
Y4089200D01*
X4380800Y4100000D01*
G01X4370000Y3940000D02*
X4429200D01*
X4440000Y3950800D01*
G01X4130000Y4180000D02*
X4210000Y4100000D01*
G01X4290000Y3620000D02*
X4230800D01*
X4220000Y3609200D01*
G01X4370000Y3620000D02*
X4429200D01*
X4440000Y3609200D01*
G01X4610000Y3620000D02*
X4550800D01*
X4540000Y3609200D01*
G01X4220000D02*
X4120000D01*
G01X4540000D02*
X4440000D01*
G01X4290000Y4020000D02*
X4370000D01*
G01Y3940000D02*
Y4020000D01*
G01X4290000Y3700000D02*
X4230800D01*
X4220000Y3710800D01*
G01D02*
X4120000D01*
G01X4610000Y3700000D02*
X4550800D01*
X4540000Y3710800D01*
G01D02*
X4440000D01*
G01X4370000Y3700000D02*
X4429200D01*
X4440000Y3710800D01*
G01X4370000Y3860000D02*
X4429200D01*
X4440000Y3849200D01*
G01X4210000Y4180000D02*
X4279200Y4110800D01*
Y4100000D01*
G01X4370000Y5060000D02*
X4310800D01*
X4300000Y5049200D01*
G01X4370000Y4980000D02*
Y4919200D01*
X4350800Y4900000D01*
G01X4130000D02*
Y4840800D01*
X4140800Y4830000D01*
G01X4370000Y5060000D02*
X4439200D01*
X4450000Y5049200D01*
G01X4290000Y4980000D02*
Y5039200D01*
X4300000Y5049200D01*
G01X4720000Y5140000D02*
X4660800D01*
X4650000Y5150800D01*
G01X4720000Y5060000D02*
X4660800D01*
X4650000Y5049200D01*
G01X4210000Y4820000D02*
Y4860800D01*
X4249200Y4900000D01*
G01X4370000Y5140000D02*
X4310800D01*
X4300000Y5150800D01*
G01X4370000Y5140000D02*
X4439200D01*
X4450000Y5150800D01*
G01X4300000D02*
Y5200000D01*
X4320000Y5220000D01*
X4370000D01*
G01X4830000Y1910000D02*
X4750800D01*
X4750000Y1909200D01*
G01X4830000Y2010000D02*
X4750800D01*
X4750000Y2010800D01*
G01X4850000Y5190000D02*
X4949850D01*
X4950000Y5189850D01*
G54D19*
X1770000Y199200D03*
Y300800D03*
X2650000Y370800D03*
Y269200D03*
X2959200Y3970000D03*
X2919200Y4910000D03*
X3510000Y2410800D03*
Y2309200D03*
X3500000Y3710800D03*
Y3609200D03*
X3180000Y3849200D03*
Y3950800D03*
X3400000Y3710800D03*
Y3609200D03*
X3260000Y3710800D03*
Y3609200D03*
X3150000Y3710800D03*
Y3609200D03*
X3060800Y3970000D03*
X3420000Y4089200D03*
Y4190800D03*
X3180000Y5150800D03*
Y5049200D03*
X3020800Y4910000D03*
X3500800D03*
X3399200D03*
X3500000Y5289200D03*
Y5390800D03*
X3879200Y1740000D03*
X3980800D03*
X3610000Y2090800D03*
Y1989200D03*
X3920000Y2390800D03*
Y2289200D03*
X3980800Y2580000D03*
X3879200D03*
X3970000Y4069200D03*
X3820000Y3710800D03*
Y3609200D03*
X3720000Y3710800D03*
Y3609200D03*
X3900000Y4590800D03*
Y4489200D03*
X3690000Y4270800D03*
Y4169200D03*
X3970000Y4380800D03*
Y4279200D03*
X3730000Y4510800D03*
Y4409200D03*
X3970000Y4170800D03*
X3570000Y4169200D03*
Y4270800D03*
X3810000D03*
Y4169200D03*
X4050000Y4489200D03*
Y4590800D03*
X3740800Y4700000D03*
X3639200D03*
X3640000Y4910800D03*
Y4809200D03*
X4039200Y4830000D03*
X3839200Y4730000D03*
X3940800D03*
X3900000Y5289200D03*
Y5390800D03*
X3800000Y5289200D03*
Y5390800D03*
X4460000Y819200D03*
Y920800D03*
X4149200Y1740000D03*
X4250800D03*
X4650000Y2380800D03*
Y2279200D03*
X4440000Y3849200D03*
Y3950800D03*
Y3710800D03*
Y3609200D03*
X4279200Y4100000D03*
X4380800D03*
X4220000Y3710800D03*
Y3609200D03*
X4120000Y3710800D03*
Y3609200D03*
X4540000Y3710800D03*
Y3609200D03*
X4450000Y5150800D03*
Y5049200D03*
X4140800Y4830000D03*
X4249200Y4900000D03*
X4350800D03*
X4650000Y5049200D03*
Y5150800D03*
X4300000D03*
Y5049200D03*
X5080000Y1190800D03*
Y1089200D03*
X4750000Y1909200D03*
Y2010800D03*
X5460800Y1060000D03*
X5359200D03*
G54D29*
G01X3510000Y2410800D02*
X3430800D01*
X3430000Y2410000D01*
G01X3510000Y2309200D02*
X3430800D01*
X3430000Y2310000D01*
M02*
