G04 ================== begin FILE IDENTIFICATION RECORD ==================*
G04 Layout Name:  Lattice MACHXO3 STARTER KIT REVA.brd*
G04 Film Name:    TOP*
G04 File Format:  Gerber RS274X*
G04 File Origin:  Cadence Allegro 16.6-S021*
G04 Origin Date:  Tue Sep 23 23:04:21 2014*
G04 *
G04 Layer:  DRAWING FORMAT/TOP*
G04 Layer:  BOARD GEOMETRY/LOGO*
G04 Layer:  BOARD GEOMETRY/OUTLINE*
G04 Layer:  ETCH/TOP*
G04 Layer:  PIN/TOP*
G04 Layer:  VIA CLASS/TOP*
G04 *
G04 Offset:    (0.0000 0.0000)*
G04 Mirror:    No*
G04 Mode:      Positive*
G04 Rotation:  0*
G04 FullContactRelief:  No*
G04 UndefLineWidth:     0.1500*
G04 ================== end FILE IDENTIFICATION RECORD ====================*
%FSLAX35Y35*MOMM*%
%IR0*IPPOS*OFA0.00000B0.00000*MIA0B0*SFA1.00000B1.00000*%
%ADD33R,.7874X.9906*%
%ADD27R,.5X3.1*%
%ADD22R,.6X2.2*%
%ADD29R,.28X1.6*%
%ADD24R,1.6X.28*%
%ADD36R,1.4X.95*%
%ADD17C,.6*%
%ADD25C,.35*%
%ADD21C,.45*%
%ADD11C,.55*%
%ADD15R,.5588X.5588*%
%ADD31R,2.2X1.2*%
%ADD28R,2.X3.3*%
%ADD26R,2.X2.5*%
%ADD23R,1.4X1.2*%
%ADD34R,2.2X3.6*%
%ADD19C,1.*%
%ADD32C,1.5*%
%ADD12C,1.6*%
%ADD35R,1.5X1.5*%
%ADD14C,1.4224*%
%ADD13R,1.6X1.6*%
%ADD20R,1.4224X1.4224*%
%AMMACRO10*
4,1,36,0.0,-.0635,
-.011027,-.062535,
-.021718,-.05967,
-.03175,-.054993,
-.040817,-.048644,
-.048644,-.040817,
-.054993,-.03175,
-.05967,-.021718,
-.062535,-.011027,
-.0635,0.0,
-.062535,.011027,
-.05967,.021718,
-.054993,.03175,
-.048644,.040817,
-.040817,.048644,
-.03175,.054993,
-.021718,.05967,
-.011027,.062535,
0.0,.0635,
.011027,.062535,
.021718,.05967,
.03175,.054993,
.040817,.048644,
.048644,.040817,
.054993,.03175,
.05967,.021718,
.062535,.011027,
.0635,0.0,
.062535,-.011027,
.05967,-.021718,
.054993,-.03175,
.048644,-.040817,
.040817,-.048644,
.03175,-.054993,
.021718,-.05967,
.011027,-.062535,
0.0,-.0635,
0.0*
%
%ADD10MACRO10*%
%ADD16R,.889X.8128*%
%ADD30R,.8128X.889*%
%ADD18R,.9906X.7874*%
%ADD37C,.2*%
%ADD38C,.12*%
%ADD39C,.3*%
%ADD40C,.13*%
%ADD41C,.17*%
%ADD42C,.8*%
%ADD43C,.28*%
%ADD44C,.15*%
G75*
%LPD*%
G75*
G36*
G01X560000Y6290000D02*
Y6640000D01*
X200000D01*
Y6290000D01*
X560000D01*
G37*
G36*
G01X1470000D02*
Y6640000D01*
X1110000D01*
Y6290000D01*
X1470000D01*
G37*
G36*
G01X2970000Y5440000D02*
Y5660000D01*
X2690000D01*
Y5440000D01*
X2970000D01*
G37*
G36*
G01X3840000Y960000D02*
Y650000D01*
X3980000D01*
Y960000D01*
X3840000D01*
G37*
G36*
G01X4250000Y650000D02*
Y980000D01*
X4290000Y1020000D01*
Y1080000D01*
X4330000Y1120000D01*
Y1230000D01*
X4470000D01*
X4500000Y1200000D01*
Y1100000D01*
X6300000D01*
X6360000Y1040000D01*
Y750000D01*
X6260000D01*
X6160000Y850000D01*
X5760000D01*
X5670000Y940000D01*
X5380000D01*
X5270000Y830000D01*
X4750000D01*
X4720000Y860000D01*
Y980000D01*
X4700000Y1000000D01*
X4460000D01*
X4430000Y970000D01*
Y670000D01*
X4410000Y650000D01*
X4250000D01*
G37*
G36*
G01X4710000Y550000D02*
Y310000D01*
X5040000D01*
Y550000D01*
X4710000D01*
G37*
G36*
G01X5660000Y540000D02*
X5150000D01*
X5070000Y620000D01*
X4820000D01*
Y780000D01*
X5660000D01*
Y540000D01*
G37*
G36*
G01X5476020Y-1250630D02*
X5453680Y-1256050D01*
X5432500Y-1257570D01*
X5432290Y-1256040D01*
G02X5362150Y-1204020I-4403J67359D01*
G01X5360500Y-1203570D01*
Y-1182570D01*
X5362150Y-1182120D01*
G02X5417950Y-1126920I73999J-19001D01*
G01X5501150Y-1106160D01*
G03X5504500Y-1071570I-8487J18279D01*
G03X5400100Y-1087770I-20272J-213861D01*
G01X5393500Y-1089570D01*
Y-1080570D01*
X5395030Y-1080360D01*
G02X5403300Y-1040200I163040J-12643D01*
G02X5495360Y-1025080I103348J-341431D01*
G02X5578750Y-1042320I18689J-119901D01*
G02X5596090Y-1062930I-14892J-30129D01*
G01X5598910Y-1074220D01*
X5600500Y-1104570D01*
X5598990Y-1104680D01*
X5591500Y-1251570D01*
X5507500D01*
Y-1239570D01*
X5509000Y-1239470D01*
X5513500Y-1197570D01*
Y-1152570D01*
X5462950Y-1168920D01*
G03X5459500Y-1212570I1820J-22105D01*
G01X5488980Y-1209620D01*
G02X5476020Y-1250630I-164111J29310D01*
G37*
G36*
G01X6235750Y-896820D02*
G03X5994700Y-1039170I117715J-474602D01*
G01X5982250Y-1057320D01*
X5967850Y-1081020D01*
X5964850Y-1090020D01*
X5957500Y-1107570D01*
X5959090Y-1158930D01*
G03X5982250Y-1202820I86849J17773D01*
G01X5985700Y-1208970D01*
G03X6158850Y-1292160I224135J244719D01*
G01X6182500Y-1296570D01*
X6056500Y-1299570D01*
X6020290Y-1295040D01*
X5954140Y-1282980D01*
G02X5846500Y-1224570I31160J185808D01*
G01X5840500D01*
X5818750Y-1247820D01*
X5817250Y-1249320D01*
G02X5531290Y-1364100I-346425J449468D01*
G01X5438500Y-1374570D01*
G03X5650900Y-1286370I-119558J587762D01*
G03X5742910Y-1167920I-123677J191031D01*
G03X5719300Y-1072170I-111719J23238D01*
G03X5541250Y-977820I-244927J-247031D01*
G01X5531500Y-975570D01*
G02X5711850Y-989160I37456J-706419D01*
G02X5855500Y-1059570I-30293J-243546D01*
G01X5861500D01*
G02X5898250Y-1021320I101429J-60672D01*
G02X6203710Y-899040I376278J-497292D01*
G01X6245500Y-894570D01*
X6235750Y-896820D01*
G37*
G36*
G01X6080000Y390000D02*
X5720000D01*
X5700000Y410000D01*
Y660000D01*
X5710000Y670000D01*
X5810000D01*
X5830000Y650000D01*
Y570000D01*
X5850000Y550000D01*
X6080000D01*
Y390000D01*
G37*
G36*
G01X6302500Y-1188570D02*
X6305500D01*
G02X6293500Y-1245570I-197588J11834D01*
G02X6266350Y-1253090I-31196J59860D01*
G02X6173630I-46360J250810D01*
G02X6102700Y-1208970I10628J96162D01*
G02X6117700Y-1060170I121099J62949D01*
G02X6248290Y-1028040I94540J-102799D01*
G02X6310300Y-1063170I-12795J-94879D01*
G01X6316300Y-1075170D01*
X6326500Y-1098570D01*
Y-1143570D01*
X6170500Y-1146570D01*
G03X6183250Y-1187820I42061J-9595D01*
G03X6263790Y-1199010I50995J71598D01*
G01X6302500Y-1192110D01*
Y-1188570D01*
G37*
G36*
G01X6190000Y540000D02*
X6090000Y640000D01*
X5860000D01*
Y780000D01*
X6180000D01*
X6250000Y710000D01*
X6500000D01*
Y860000D01*
X6670000D01*
Y540000D01*
X6190000D01*
G37*
G36*
G01X6150000Y6640000D02*
Y6320000D01*
X6500000D01*
Y6640000D01*
X6150000D01*
G37*
G36*
G01X6457010Y-996460D02*
X6443500Y-1251570D01*
X6359500D01*
X6363990Y-1170670D01*
X6366990Y-1110650D01*
X6374500Y-954570D01*
X6458500D01*
X6459250Y-956820D01*
X6461500Y-957570D01*
X6458500D01*
X6457010Y-996460D01*
G37*
G36*
G01X6503950Y-1190220D02*
X6533500Y-1200570D01*
X6569500D01*
X6569950Y-1198920D01*
G03X6580750Y-1193820I-432J14901D01*
G01X6584500Y-1191570D01*
Y-1176570D01*
G02X6574750Y-1168320I22620J36619D01*
G01X6549250Y-1148820D01*
G02X6535750Y-1138320I21010J40941D01*
G01X6534250Y-1136820D01*
G02X6520300Y-1123170I8232J22366D01*
G02X6560680Y-1028050I43472J37676D01*
G01X6584500Y-1023570D01*
X6638360Y-1028060D01*
X6638680Y-1028090D01*
X6662950Y-1031220D01*
X6667370Y-1033810D01*
X6672980Y-1062420D01*
X6674500Y-1089570D01*
X6668050Y-1087920D01*
G03X6605500Y-1080570I-46219J-123502D01*
G01X6605050Y-1082220D01*
G03X6594250Y-1087320I432J-14901D01*
G03X6592300Y-1102170I2868J-7930D01*
G03X6606250Y-1115820I35161J21981D01*
G01X6625900Y-1129770D01*
X6657250Y-1157820D01*
X6658300Y-1159170D01*
X6668500Y-1176570D01*
Y-1206570D01*
X6666850Y-1207020D01*
G02X6605310Y-1253100I-68581J27457D01*
G01X6581680Y-1256050D01*
X6560500Y-1257570D01*
X6560350Y-1256060D01*
G02X6495980Y-1245420I-3546J178578D01*
G01X6491500Y-1185570D01*
X6503950Y-1190220D01*
G37*
G36*
G01X6881500Y-1029570D02*
X6880750Y-1031820D01*
X6876700Y-1042170D01*
G03X6871150Y-1056120I49858J-27915D01*
G01X6868300Y-1061970D01*
X6831910Y-1164920D01*
X6829090Y-1176220D01*
X6827500Y-1182570D01*
X6821500D01*
X6820040Y-1164820D01*
X6785500Y-1029570D01*
X6701500D01*
X6705850Y-1041120D01*
X6776500Y-1248570D01*
Y-1266570D01*
X6774700Y-1267170D01*
G02X6752050Y-1295220I-76487J38592D01*
G01X6743500Y-1299570D01*
X6710500D01*
G02X6689500Y-1290570I8379J48551D01*
G03X6701710Y-1352100I99460J-12240D01*
G03X6799900Y-1346370I41461J133690D01*
G03X6849700Y-1288170I-45429J89279D01*
G01X6955150Y-1047120D01*
G02X6962500Y-1029570I84859J-25225D01*
G01X6881500D01*
G37*
G36*
G01X7120000Y6640000D02*
Y6510000D01*
X7190000Y6440000D01*
Y6270000D01*
X6950000D01*
X6870000Y6350000D01*
Y6640000D01*
X7120000D01*
G37*
G36*
G01X6983500Y-1188570D02*
G03X6992850Y-1193160I13490J15661D01*
G03X7052950Y-1198920I39057J91100D01*
G03X7060750Y-1171320I-643J15084D01*
G01X7048750Y-1162320D01*
G02X6990940Y-1104280I66325J123873D01*
G02X7031850Y-1030980I55640J17013D01*
G02X7088500Y-1023570I56079J-208480D01*
G01X7142290Y-1031040D01*
X7154500Y-1032570D01*
X7155990Y-1074470D01*
X7157500Y-1089570D01*
X7151500D01*
G03X7139210Y-1085010I-17435J-28148D01*
G01X7124500Y-1080570D01*
G03X7079950Y-1084920I-15740J-69100D01*
G03X7080250Y-1109820I7348J-12363D01*
G01X7093750Y-1120320D01*
G02X7147300Y-1171170I-59340J-116112D01*
G01X7151500Y-1176570D01*
G02X7128250Y-1237320I-62809J-10786D01*
G02X7088310Y-1253100I-63605J102554D01*
G01X7064500Y-1257570D01*
X7013260Y-1253030D01*
X6980790Y-1247130D01*
G02X6975980Y-1221420I66560J25757D01*
G01X6973010Y-1191720D01*
X6971500Y-1185570D01*
X6977500D01*
X6983500Y-1188570D01*
G37*
G36*
G01X6950000Y900000D02*
X7230000D01*
X7270000Y940000D01*
Y1170000D01*
X7170000D01*
Y1090000D01*
X7140000Y1060000D01*
X6950000D01*
Y900000D01*
G37*
G36*
G01X7420000Y1230000D02*
Y1560000D01*
X7310000D01*
X7300000Y1550000D01*
Y1360000D01*
X7250000Y1310000D01*
X6950000D01*
Y1150000D01*
X7110000D01*
Y1230000D01*
X7420000D01*
G37*
G36*
G01X7010000Y6700000D02*
Y6860000D01*
X7270000D01*
Y6700000D01*
X7010000D01*
G37*
G36*
G01X7170000Y6640000D02*
Y6550000D01*
X7290000Y6430000D01*
Y6330000D01*
X7440000D01*
Y6640000D01*
X7170000D01*
G37*
%LPC*%
G75*
G36*
G01X6173500Y-1116570D02*
Y-1101570D01*
X6175300Y-1100970D01*
G02X6209150Y-1073160I38776J-12692D01*
G01X6218500Y-1071570D01*
X6218850Y-1073160D01*
G02X6248500Y-1116570I-2970J-33860D01*
G01X6173500D01*
G37*
%LPD*%
G75*
G54D10*
X400000Y400000D03*
Y7220000D03*
X3900000Y500000D03*
X4340000D03*
X7220000Y400000D03*
Y7220000D03*
G54D20*
X2170000Y1020000D03*
G54D11*
G01X640000Y6830000D02*
Y6740800D01*
G01D02*
X510950D01*
X510000Y6739850D01*
G01X640000Y6639200D02*
Y6550000D01*
G01X6070000Y6740800D02*
X6199050D01*
X6200000Y6739850D01*
G01X6070000Y6830000D02*
Y6740800D01*
G01Y6639200D02*
X5990800D01*
X5990000Y6640000D01*
X160000Y850000D03*
X800150Y1319850D03*
X860000Y7120000D03*
X1010000D03*
X1160000D03*
X1310000D03*
X800000Y7050000D03*
X950000D03*
X1100000Y6990000D03*
X1250000Y7060000D03*
X1290000Y7460000D03*
X840000D03*
X990000D03*
X1140000D03*
X1770000Y380000D03*
X1540000Y340000D03*
X1640000Y1410000D03*
X1460000Y7120000D03*
X1610000D03*
X1760000D03*
X1400000Y7000000D03*
X1550000Y7060000D03*
X1740000Y7460000D03*
X1590000D03*
X1890000D03*
X1440000D03*
X2270000Y220000D03*
X2150000Y340000D03*
X1940000Y1410000D03*
X1910000Y7120000D03*
X2860000Y200000D03*
X2650000Y190000D03*
X2840000Y760000D03*
X2650000Y740000D03*
X2970000Y1280000D03*
X2930000Y1860000D03*
X2690000Y1560000D03*
X2940000Y1470000D03*
X2690000Y1680000D03*
X2910000Y2190000D03*
X2990000Y2740000D03*
X3100000Y430000D03*
X3220000D03*
X3420000Y1250000D03*
X3220000Y940000D03*
X3060000Y1860000D03*
X3190000D03*
Y1470000D03*
X3430000Y2410000D03*
X3180000Y2380000D03*
X3190000Y2190000D03*
X3050000D03*
X3430000Y2310000D03*
X3310000Y2190000D03*
X3250000Y2740000D03*
X3950000Y1070000D03*
X3690000Y1690000D03*
X4060000Y1740000D03*
X3980000Y1660000D03*
X3780000D03*
X3890000D03*
X3980000Y1360000D03*
X3860000D03*
X4000000Y2390000D03*
X3690000Y2430000D03*
Y2090000D03*
X3990000Y2120000D03*
X3790000Y2180000D03*
X3920000Y2210000D03*
X3690000Y1990000D03*
X3980000Y2500000D03*
X3880000D03*
X4330000Y1660000D03*
X4200000Y1360000D03*
X4350000D03*
X4490000Y1620000D03*
X4370000Y1870000D03*
X4240000Y1660000D03*
X4570000Y1790000D03*
Y1690000D03*
X4650000Y1600000D03*
X4150000Y1660000D03*
X4510000Y1360000D03*
X4570000Y2380000D03*
X4280000Y2120000D03*
X4570000Y2280000D03*
Y2140000D03*
X4300000Y2500000D03*
X4410000D03*
X4370000Y3130000D03*
X4720000Y1280000D03*
X4830000Y1910000D03*
Y2010000D03*
X4790000Y3130000D03*
X4850000Y5190000D03*
X5170000Y6090000D03*
X5160000Y6410000D03*
X5010000D03*
X4860000D03*
X5510000Y300000D03*
X5310000Y6090000D03*
Y6410000D03*
X6190000Y7380000D03*
Y6960000D03*
X6430000Y7380000D03*
G54D30*
X4369850Y1180000D03*
X4230150D03*
X4580150D03*
X5060150Y200000D03*
X5199850D03*
X4719850Y1180000D03*
G54D12*
X254000Y1524000D03*
Y1778000D03*
Y2032000D03*
Y2286000D03*
Y2540000D03*
Y2794000D03*
Y3048000D03*
Y3302000D03*
Y3556000D03*
Y3810000D03*
Y4064000D03*
Y4318000D03*
Y4572000D03*
Y4826000D03*
Y5080000D03*
Y5334000D03*
Y5588000D03*
Y5842000D03*
Y6096000D03*
X508000Y1524000D03*
Y1778000D03*
Y2032000D03*
Y2286000D03*
Y2540000D03*
Y2794000D03*
Y3048000D03*
Y3302000D03*
Y3556000D03*
Y3810000D03*
Y4064000D03*
Y4318000D03*
Y4572000D03*
Y4826000D03*
Y5080000D03*
Y5334000D03*
Y5588000D03*
Y5842000D03*
Y6350000D03*
Y6096000D03*
X900000Y520000D03*
X1154000D03*
X1168400Y1524000D03*
Y1778000D03*
Y2032000D03*
Y2286000D03*
Y2540000D03*
Y2794000D03*
Y3048000D03*
Y3302000D03*
Y3556000D03*
Y3810000D03*
Y4064000D03*
Y4318000D03*
Y4572000D03*
Y4826000D03*
Y5080000D03*
Y5334000D03*
Y5588000D03*
Y5842000D03*
Y6096000D03*
X1408000Y520000D03*
X1662000D03*
X1916000D03*
X1422400Y1524000D03*
Y1778000D03*
Y2032000D03*
Y2286000D03*
Y2540000D03*
Y2794000D03*
Y3048000D03*
Y3302000D03*
Y3556000D03*
Y3810000D03*
Y4064000D03*
Y4318000D03*
Y4572000D03*
Y4826000D03*
Y5080000D03*
Y5334000D03*
Y5588000D03*
Y5842000D03*
Y6350000D03*
Y6096000D03*
X2384000Y6934000D03*
X2130000D03*
X2384000Y6680000D03*
X2130000D03*
X2384000Y7188000D03*
X2130000D03*
X2384000Y7442000D03*
X2130000D03*
X2892000Y6934000D03*
X2638000D03*
X2892000Y6680000D03*
X2638000D03*
X2892000Y7188000D03*
X2638000D03*
X2892000Y7442000D03*
X2638000D03*
X3400000Y6934000D03*
X3146000D03*
X3400000Y6680000D03*
X3146000D03*
X3400000Y7188000D03*
X3146000D03*
X3400000Y7442000D03*
X3146000D03*
X4162000Y6934000D03*
Y6680000D03*
X3908000Y6934000D03*
X3654000D03*
X3908000Y6680000D03*
X3654000D03*
X4162000Y7442000D03*
Y7188000D03*
X3908000D03*
X3654000D03*
X3908000Y7442000D03*
X3654000D03*
X4416000Y6934000D03*
Y6680000D03*
Y7442000D03*
Y7188000D03*
X6197600Y1524000D03*
Y1778000D03*
Y2032000D03*
Y2286000D03*
Y2540000D03*
Y2794000D03*
Y3048000D03*
Y3302000D03*
Y3556000D03*
Y3810000D03*
Y4064000D03*
Y4318000D03*
Y4572000D03*
Y4826000D03*
Y5080000D03*
Y5334000D03*
Y5588000D03*
Y5842000D03*
Y6096000D03*
X6451600Y1524000D03*
Y1778000D03*
Y2032000D03*
Y2286000D03*
Y2540000D03*
Y2794000D03*
Y3048000D03*
Y3302000D03*
Y3556000D03*
Y3810000D03*
Y4064000D03*
Y4318000D03*
Y4572000D03*
Y4826000D03*
Y5080000D03*
Y5334000D03*
Y5588000D03*
Y5842000D03*
Y6350000D03*
Y6096000D03*
X7112000Y1524000D03*
Y1778000D03*
X7366000Y1524000D03*
Y1778000D03*
X7112000Y2032000D03*
Y2286000D03*
X7366000Y2032000D03*
Y2286000D03*
X7112000Y2540000D03*
Y2794000D03*
Y3048000D03*
X7366000Y2540000D03*
Y2794000D03*
Y3048000D03*
X7112000Y3302000D03*
Y3556000D03*
X7366000Y3302000D03*
Y3556000D03*
X7112000Y3810000D03*
X7366000D03*
X7112000Y4064000D03*
X7366000D03*
X7112000Y4318000D03*
Y4572000D03*
X7366000Y4318000D03*
Y4572000D03*
X7112000Y4826000D03*
Y5080000D03*
X7366000Y4826000D03*
Y5080000D03*
X7112000Y5334000D03*
Y5588000D03*
Y5842000D03*
X7366000Y5334000D03*
Y5588000D03*
Y5842000D03*
X7112000Y6096000D03*
X7366000Y6350000D03*
Y6096000D03*
G54D21*
X2420000Y3110000D03*
X2380000Y3040000D03*
X2500000Y3350000D03*
X2580000Y3310000D03*
X2690000Y3270000D03*
X2620000Y3230000D03*
X2460000Y3190000D03*
X2540000Y3150000D03*
X2870000Y3970000D03*
X2990000Y3700000D03*
X2830000Y3840000D03*
X2970000Y4050000D03*
X2900000Y4380000D03*
X2930000Y4980000D03*
X3070000Y3620000D03*
X3330000D03*
X3250000Y3940000D03*
X3490000Y4100000D03*
X3070000Y3700000D03*
X3330000Y4100000D03*
X3050000Y4050000D03*
X3250000Y3860000D03*
X3330000Y3700000D03*
X3250000Y4020000D03*
Y3780000D03*
X3330000Y3940000D03*
X3410000Y4020000D03*
Y3860000D03*
X3490000Y3940000D03*
Y4020000D03*
X3330000Y3860000D03*
X3410000Y3940000D03*
X3490000Y3860000D03*
X3410000Y4660000D03*
X3490000Y4260000D03*
X3330000Y4660000D03*
X3490000Y4180000D03*
X3150000Y4540000D03*
X3410000Y4580000D03*
X3330000Y4180000D03*
X3410000Y4260000D03*
X3490000Y4340000D03*
X3330000D03*
X3410000D03*
X3490000Y4420000D03*
X3410000D03*
X3490000Y4500000D03*
Y4660000D03*
Y4580000D03*
X3330000D03*
Y4420000D03*
X3150000Y4300000D03*
X3330000Y4260000D03*
X3150000Y4420000D03*
X3170000Y4740000D03*
X3410000Y4820000D03*
X3250000Y5060000D03*
X3330000Y4980000D03*
X3410000Y4740000D03*
X3250000D03*
X3330000Y4820000D03*
X3490000D03*
X3010000Y4980000D03*
X3330000Y4740000D03*
X3250000Y5140000D03*
X3490000Y4740000D03*
X3410000Y5060000D03*
X3250000Y5220000D03*
X3410000Y4980000D03*
X3490000Y5060000D03*
X3410000Y5140000D03*
X3490000Y4980000D03*
Y5140000D03*
X3170000Y4980000D03*
X3250000Y5450000D03*
Y5320000D03*
X3570000Y3620000D03*
X3650000D03*
X3890000D03*
X4050000D03*
X3810000Y4100000D03*
X3730000D03*
X4050000Y3700000D03*
Y4100000D03*
X3650000Y3700000D03*
X3890000D03*
X3570000Y4100000D03*
Y3700000D03*
X4050000Y3860000D03*
Y4020000D03*
Y3940000D03*
X3650000Y3860000D03*
X3730000Y3940000D03*
Y4020000D03*
Y3860000D03*
X3890000Y3940000D03*
Y4100000D03*
Y4020000D03*
Y3860000D03*
X3570000Y3940000D03*
Y4020000D03*
Y3860000D03*
X3650000Y3940000D03*
Y4020000D03*
Y4100000D03*
X3890000Y4420000D03*
X3810000D03*
Y4500000D03*
Y4580000D03*
X4050000Y4660000D03*
Y4260000D03*
X3570000Y4580000D03*
X3650000D03*
Y4500000D03*
X3810000Y4660000D03*
X3890000D03*
X3970000Y4580000D03*
Y4500000D03*
X3570000Y4340000D03*
X3650000Y4420000D03*
X3730000Y4580000D03*
X3650000Y4340000D03*
X3890000D03*
X3970000Y4660000D03*
X3570000Y4420000D03*
Y4500000D03*
X4050000Y4340000D03*
X3730000D03*
X3810000D03*
X4050000Y4420000D03*
X3890000Y4180000D03*
Y4260000D03*
X4050000Y4180000D03*
X3570000Y4740000D03*
X4050000D03*
X3570000Y4820000D03*
X4050000Y4900000D03*
X3570000D03*
X3730000D03*
X3810000D03*
X3730000Y4820000D03*
X3970000D03*
X3810000D03*
X3970000Y4900000D03*
X3810000Y5140000D03*
X3890000Y4980000D03*
X3570000Y5060000D03*
Y4980000D03*
Y5140000D03*
X3650000Y5060000D03*
Y4980000D03*
Y5140000D03*
X3730000Y5060000D03*
X3810000Y4980000D03*
X3730000Y5140000D03*
X3810000Y5060000D03*
X3970000Y5140000D03*
Y4980000D03*
Y5060000D03*
X4050000Y5140000D03*
Y4980000D03*
X3890000Y4900000D03*
Y4820000D03*
X4050000Y5060000D03*
X3570000Y5380000D03*
X3970000D03*
X3730000D03*
X3570000Y5300000D03*
X3970000D03*
X3730000D03*
X4610000Y3620000D03*
X4370000D03*
X4290000D03*
X4370000Y3940000D03*
Y4020000D03*
X4290000D03*
X4210000Y4100000D03*
X4290000Y3700000D03*
X4610000D03*
X4370000D03*
Y3860000D03*
X4600000Y4090000D03*
X4370000Y3780000D03*
X4130000Y3860000D03*
Y3940000D03*
Y4020000D03*
X4210000D03*
X4290000Y3940000D03*
X4130000Y4100000D03*
X4290000Y3860000D03*
X4130000Y4180000D03*
X4210000D03*
Y4340000D03*
X4130000Y4260000D03*
X4600000Y4160000D03*
X4290000Y4340000D03*
X4550000Y4300000D03*
X4130000Y4340000D03*
X4290000Y4420000D03*
X4550000Y4430000D03*
X4130000Y4420000D03*
Y4500000D03*
Y4660000D03*
X4210000Y4580000D03*
X4290000D03*
X4470000Y4300000D03*
X4290000Y4260000D03*
X4370000Y5060000D03*
X4130000Y4900000D03*
X4290000Y4980000D03*
X4370000D03*
X4210000Y4820000D03*
X4370000D03*
Y5220000D03*
Y5140000D03*
X4130000D03*
Y4980000D03*
Y5060000D03*
X4210000Y5220000D03*
Y4980000D03*
X4560000Y4780000D03*
Y4850000D03*
X4130000Y4740000D03*
X4290000Y4820000D03*
X4940000Y1610000D03*
Y1710000D03*
X4870000Y1760000D03*
Y1660000D03*
X4940000Y1810000D03*
X4780000Y4410000D03*
Y4480000D03*
Y4590000D03*
Y4660000D03*
X4720000Y5140000D03*
Y5060000D03*
X4780000Y4850000D03*
Y4780000D03*
G54D40*
G01X508000Y1524000D02*
X614000Y1418000D01*
X1528000D01*
X2060000Y1950000D01*
Y3550000D01*
X2610000Y4100000D01*
X3080000D01*
X3120000Y4060000D01*
X3210000D01*
G01X3290000Y4140000D02*
X3250000Y4100000D01*
X3140000D01*
X3110000Y4130000D01*
X2570000D01*
X2010000Y3570000D01*
Y2080000D01*
X1562000Y1632000D01*
X400000D01*
X254000Y1778000D01*
G01X508000D02*
X614000Y1672000D01*
X1532000D01*
X1960000Y2100000D01*
Y3590000D01*
X2540000Y4170000D01*
X3130000D01*
X3160000Y4140000D01*
X3210000D01*
G01X254000Y2032000D02*
X400000Y1886000D01*
X1556000D01*
X1910000Y2240000D01*
Y3610000D01*
X2500000Y4200000D01*
X3160000D01*
X3180000Y4180000D01*
X3250000D01*
X3290000Y4220000D01*
G01X3210000D02*
X3200000Y4230000D01*
X2460000D01*
X1860000Y3630000D01*
Y2260000D01*
X1526000Y1926000D01*
X614000D01*
X508000Y2032000D01*
G01X3290000Y4300000D02*
X3250000Y4260000D01*
X2420000D01*
X1810000Y3650000D01*
Y2390000D01*
X1560000Y2140000D01*
X400000D01*
X254000Y2286000D01*
G01X508000D02*
X614000Y2180000D01*
X1530000D01*
X1760000Y2410000D01*
Y3670000D01*
X2430000Y4340000D01*
X3250000D01*
X3290000Y4380000D01*
G01X3450000Y4540000D02*
X3410000Y4500000D01*
X3040000D01*
X2980000Y4440000D01*
X2460000D01*
X1710000Y3690000D01*
Y2800000D01*
X1558000Y2648000D01*
X400000D01*
X254000Y2794000D01*
G01X3290000Y4540000D02*
X3250000Y4580000D01*
X3070000D01*
X2960000Y4470000D01*
X2420000D01*
X1660000Y3710000D01*
Y2820000D01*
X1528000Y2688000D01*
X614000D01*
X508000Y2794000D01*
G01X3210000Y4620000D02*
X3060000D01*
X2940000Y4500000D01*
X2380000D01*
X1610000Y3730000D01*
Y2980000D01*
X1532000Y2902000D01*
X400000D01*
X254000Y3048000D01*
G01X3290000Y4780000D02*
X3250000Y4820000D01*
X2820000D01*
X2460000Y5180000D01*
Y5590000D01*
X2314000Y5736000D01*
X614000D01*
X508000Y5842000D01*
G01X3370000Y4860000D02*
X3330000Y4900000D01*
X2880000D01*
X2560000Y5220000D01*
Y5630000D01*
X2200000Y5990000D01*
X614000D01*
X508000Y6096000D01*
G01X254000D02*
X400000Y5950000D01*
X2170000D01*
X2510000Y5610000D01*
Y5200000D01*
X2850000Y4860000D01*
X3210000D01*
G01X3100000Y430000D02*
X2950000Y280000D01*
X1140000D01*
X900000Y520000D01*
G01X3220000Y430000D02*
X3150000Y500000D01*
X2440000D01*
X2290000Y650000D01*
X1284000D01*
X1154000Y520000D01*
G01X800000Y7050000D02*
Y7195720D01*
X813000Y7208720D01*
X840000D01*
G01X950000Y7050000D02*
Y7195720D01*
X963000Y7208720D01*
X990000D01*
G01X1100000Y6990000D02*
Y7195720D01*
X1113000Y7208720D01*
X1140000D01*
G01X1250000Y7060000D02*
Y7195720D01*
X1263000Y7208720D01*
X1290000D01*
G01Y7460000D02*
Y7371280D01*
G01X840000Y7460000D02*
Y7371280D01*
G01X990000Y7460000D02*
Y7371280D01*
G01X1140000Y7460000D02*
Y7371280D01*
G01X4170000Y5020000D02*
X4210000Y5060000D01*
Y5120000D01*
X4260000Y5170000D01*
Y5950000D01*
X3930000Y6280000D01*
X2240000D01*
X1800000Y6720000D01*
Y6970000D01*
X1700000Y7070000D01*
Y7195720D01*
X1713000Y7208720D01*
X1740000D01*
G01X4250000Y5100000D02*
X4310000Y5160000D01*
Y5970000D01*
X3950000Y6330000D01*
X2260000D01*
X1850000Y6740000D01*
Y7195720D01*
X1863000Y7208720D01*
X1890000D01*
G01X1400000Y7000000D02*
Y7195720D01*
X1413000Y7208720D01*
X1440000D01*
G01X1550000Y7060000D02*
Y7195720D01*
X1563000Y7208720D01*
X1590000D01*
G01X1740000Y7460000D02*
Y7371280D01*
G01X1590000Y7460000D02*
Y7371280D01*
G01X1440000Y7460000D02*
Y7371280D01*
G01X2380000Y3040000D02*
X2389850Y3039850D01*
X3390000D01*
G01X1890000Y7460000D02*
Y7371280D01*
G01X3560000Y1735000D02*
X3055000D01*
X2930000Y1860000D01*
G01X2929500Y2020000D02*
X2930000Y2019500D01*
Y1860000D01*
G01X4650000Y3039850D02*
Y3170000D01*
X4570000Y3250000D01*
X3800000D01*
X3700000Y3350000D01*
X2500000D01*
G01X4510000Y3039850D02*
Y3170000D01*
X4470000Y3210000D01*
X3790000D01*
X3690000Y3310000D01*
X2580000D01*
G01X2690000Y3270000D02*
X3680000D01*
X3780000Y3170000D01*
X3959850D01*
X4090000Y3039850D01*
G01X2620000Y3230000D02*
X3670000D01*
X3770080Y3129920D01*
X3859930D01*
X3950000Y3039850D01*
G01X2460000Y3190000D02*
X3659850D01*
X3810000Y3039850D01*
G01X2540000Y3150000D02*
X3560000D01*
X3670000Y3040000D01*
Y3039850D01*
G01X3530000D02*
Y3040000D01*
X3460000Y3110000D01*
X2420000D01*
G01X3290000Y4620000D02*
X3250000Y4660000D01*
X2850000D01*
X2810000Y4620000D01*
G01X3210000Y4380000D02*
X2900000D01*
G01X3420000Y1069200D02*
X3574200D01*
X3580000Y1075000D01*
G01X3560000Y1785000D02*
X3135000D01*
X3060000Y1860000D01*
G01X3560000Y1835000D02*
X3215000D01*
X3190000Y1860000D01*
G01X3056500Y2020000D02*
X3060000Y2016500D01*
Y1860000D01*
G01X3183500Y2020000D02*
X3190000Y2013500D01*
Y1860000D01*
G01X3310000Y2190000D02*
Y2020500D01*
X3310500Y2020000D01*
G01X3390000Y2900150D02*
X3550150Y2740000D01*
X3840000D01*
X3855000Y2725000D01*
Y2630000D01*
G01X3905000D02*
Y2745000D01*
X3880000Y2770000D01*
X3660150D01*
X3530000Y2900150D01*
G01X3290000Y4060000D02*
X3250000Y4020000D01*
G01Y3780000D02*
X3290000Y3820000D01*
Y3900000D01*
G01X3370000Y3980000D02*
X3330000Y3940000D01*
G01X3450000Y4060000D02*
X3410000Y4020000D01*
G01X3450000Y3900000D02*
X3410000Y3860000D01*
G01X3530000Y3980000D02*
X3490000Y3940000D01*
G01X3530000Y4060000D02*
X3490000Y4020000D01*
G01X3370000Y3900000D02*
X3330000Y3860000D01*
G01X3450000Y3980000D02*
X3410000Y3940000D01*
G01X3530000Y3900000D02*
X3490000Y3860000D01*
G01X3210000Y4540000D02*
X3150000D01*
G01X3370000D02*
X3410000Y4580000D01*
G01X3370000Y4140000D02*
X3330000Y4100000D01*
G01X3370000Y4220000D02*
X3330000Y4180000D01*
G01X3450000Y4300000D02*
X3410000Y4260000D01*
G01X3530000Y4380000D02*
X3490000Y4340000D01*
G01X3370000Y4380000D02*
X3330000Y4340000D01*
G01X3530000Y4300000D02*
X3570000Y4340000D01*
G01X3450000Y4380000D02*
X3410000Y4340000D01*
G01X3530000Y4460000D02*
X3490000Y4420000D01*
G01X3450000Y4460000D02*
X3410000Y4420000D01*
G01X3530000Y4540000D02*
X3490000Y4500000D01*
G01X3450000Y4620000D02*
X3490000Y4660000D01*
G01X3530000Y4620000D02*
X3490000Y4580000D01*
G01X3370000Y4620000D02*
X3330000Y4580000D01*
G01X3370000Y4460000D02*
X3330000Y4420000D01*
G01X3210000Y4300000D02*
X3150000D01*
G01X3370000D02*
X3330000Y4260000D01*
G01X3150000Y4420000D02*
X3250000D01*
X3290000Y4460000D01*
G01X3210000Y4700000D02*
X3170000Y4740000D01*
G01X3370000Y4700000D02*
X3410000Y4660000D01*
G01X3290000Y4700000D02*
X3330000Y4660000D01*
G01X3450000Y4700000D02*
X3410000Y4740000D01*
G01X3210000Y4780000D02*
X3250000Y4740000D01*
G01X3290000Y4860000D02*
X3330000Y4820000D01*
G01X3370000Y4780000D02*
X3330000Y4740000D01*
G01X3530000Y4700000D02*
X3490000Y4740000D01*
G01X3370000Y5020000D02*
X3410000Y5060000D01*
G01X3290000Y5100000D02*
Y5180000D01*
X3250000Y5220000D01*
G01X3450000Y4940000D02*
X3410000Y4980000D01*
G01X3530000Y5020000D02*
X3490000Y5060000D01*
G01X3450000Y5100000D02*
X3410000Y5140000D01*
G01X3530000Y4940000D02*
X3490000Y4980000D01*
G01X3530000Y5100000D02*
X3490000Y5140000D01*
G01X3210000Y4940000D02*
X3170000Y4980000D01*
G01X3580000Y1075000D02*
X3595000D01*
X3690000Y1170000D01*
Y1320000D01*
X3720000Y1350000D01*
X3780000D01*
X3805000Y1375000D01*
Y1490000D01*
G01X3800000Y1245000D02*
X3805800Y1250800D01*
X3847000D01*
G01D02*
X3950000D01*
G01X3860000Y1360000D02*
Y1263800D01*
X3847000Y1250800D01*
G01X4005000Y1490000D02*
Y1385000D01*
X3980000Y1360000D01*
G01X3855000Y1490000D02*
Y1365000D01*
X3860000Y1360000D01*
G01X3955000Y2630000D02*
Y2765000D01*
X3920000Y2800000D01*
X3770150D01*
X3670000Y2900150D01*
G01X4105000Y2630000D02*
Y2745150D01*
X3950000Y2900150D01*
G01X3810000D02*
X3880150Y2830000D01*
X3960000D01*
X4005000Y2785000D01*
Y2630000D01*
G01X4010000Y3900000D02*
X4050000Y3860000D01*
G01X4010000Y4060000D02*
X4050000Y4020000D01*
G01X4010000Y3980000D02*
X4050000Y3940000D01*
G01X3690000Y3900000D02*
X3650000Y3860000D01*
G01X3770000Y3980000D02*
X3730000Y3940000D01*
G01X3770000Y4060000D02*
X3730000Y4020000D01*
G01X3770000Y3900000D02*
X3730000Y3860000D01*
G01X3850000Y3900000D02*
X3890000Y3940000D01*
G01X3850000Y4060000D02*
X3890000Y4100000D01*
G01X3850000Y3980000D02*
X3890000Y4020000D01*
G01X3930000Y3900000D02*
X3890000Y3860000D01*
G01X3610000Y3980000D02*
X3570000Y3940000D01*
G01X3610000Y4060000D02*
X3570000Y4020000D01*
G01X3610000Y3900000D02*
X3570000Y3860000D01*
G01X3690000Y3980000D02*
X3650000Y3940000D01*
G01X3690000Y4060000D02*
X3650000Y4020000D01*
G01X3610000Y4620000D02*
X3570000Y4580000D01*
G01X3610000Y4380000D02*
X3650000Y4420000D01*
G01X3610000Y4460000D02*
X3570000Y4420000D01*
G01X3610000Y4540000D02*
X3570000Y4500000D01*
G01X3930000Y4140000D02*
X3890000Y4180000D01*
G01X3650000Y4100000D02*
Y4180000D01*
X3610000Y4220000D01*
G01X3890000Y4260000D02*
X3810000D01*
X3770000Y4300000D01*
G01X4010000Y4220000D02*
X4050000Y4180000D01*
G01X3730000Y4900000D02*
X3670000D01*
X3650000Y4880000D01*
Y4760000D01*
X3670000Y4740000D01*
X3710000D01*
X3750000Y4700000D01*
X3770000D01*
G01X3850000Y4860000D02*
X3810000Y4900000D01*
G01X3730000Y4820000D02*
Y4760000D01*
X3750000Y4740000D01*
X3790000D01*
X3830000Y4700000D01*
X3850000D01*
G01X4010000Y4780000D02*
X3970000Y4820000D01*
G01X3930000Y4700000D02*
X3890000Y4740000D01*
X3830000D01*
X3810000Y4760000D01*
Y4820000D01*
G01X4010000Y4860000D02*
X3970000Y4900000D01*
G01X3850000Y5100000D02*
X3810000Y5140000D01*
G01X3850000Y4940000D02*
X3890000Y4980000D01*
G01X3610000Y5020000D02*
X3570000Y5060000D01*
G01X3610000Y4940000D02*
X3570000Y4980000D01*
G01X3610000Y5100000D02*
X3570000Y5140000D01*
G01X3690000Y5020000D02*
X3650000Y5060000D01*
G01X3690000Y4940000D02*
X3650000Y4980000D01*
G01X3690000Y5100000D02*
X3650000Y5140000D01*
G01X3770000Y5020000D02*
X3730000Y5060000D01*
G01X3770000Y4940000D02*
X3810000Y4980000D01*
G01X3770000Y5100000D02*
X3730000Y5140000D01*
G01X3850000Y5020000D02*
X3810000Y5060000D01*
G01X3930000Y5100000D02*
X3970000Y5140000D01*
G01X3930000Y4940000D02*
X3970000Y4980000D01*
G01X3930000Y5020000D02*
X3970000Y5060000D01*
G01X4010000Y5100000D02*
X4050000Y5140000D01*
G01X4010000Y4940000D02*
X4050000Y4980000D01*
G01X3930000Y4860000D02*
X3890000Y4900000D01*
G01X3930000Y4780000D02*
X3890000Y4820000D01*
G01X4010000Y5020000D02*
X4050000Y5060000D01*
G01X4219200Y1050000D02*
Y1169050D01*
X4230150Y1180000D01*
G01X4200000Y805000D02*
Y1030800D01*
X4219200Y1050000D01*
G01X4405000Y1490000D02*
Y1355150D01*
X4580150Y1180000D01*
G01X4700000Y1785000D02*
X4575000D01*
X4570000Y1790000D01*
G01X4700000Y1685000D02*
X4575000D01*
X4570000Y1690000D01*
G01X4505000Y1490000D02*
Y1365000D01*
X4510000Y1360000D01*
G01X4700000Y2135000D02*
X4575000D01*
X4570000Y2140000D01*
G01X4510000Y2900150D02*
X4370000D01*
G01D02*
X4205000Y2735150D01*
Y2630000D01*
G01X4650000Y2900150D02*
X4539850Y2790000D01*
X4320000D01*
X4255000Y2725000D01*
Y2630000D01*
G01X4090000Y2900150D02*
X4230000D01*
G01D02*
Y2820000D01*
X4155000Y2745000D01*
Y2630000D01*
G01X4370000Y3039850D02*
Y3130000D01*
G01Y3039850D02*
X4230000D01*
G01X4090000Y3900000D02*
X4130000Y3860000D01*
G01X4090000Y3980000D02*
X4130000Y3940000D01*
G01X4170000Y4060000D02*
X4130000Y4020000D01*
G01X4170000Y3980000D02*
X4210000Y4020000D01*
G01X4250000Y3900000D02*
X4290000Y3940000D01*
G01X4090000Y4060000D02*
X4130000Y4100000D01*
G01X4290000Y3860000D02*
X4210000D01*
X4170000Y3900000D01*
G01X4250000Y4300000D02*
X4210000Y4340000D01*
G01X4410000Y4300000D02*
X4470000D01*
G01X4330000Y4220000D02*
X4290000Y4260000D01*
G01X4330000Y4780000D02*
X4370000Y4820000D01*
G01X4090000Y5100000D02*
X4130000Y5140000D01*
G01X4090000Y4940000D02*
X4130000Y4980000D01*
G01X4090000Y5020000D02*
X4130000Y5060000D01*
G01X4170000Y5100000D02*
Y5180000D01*
X4210000Y5220000D01*
G01X4170000Y4940000D02*
X4210000Y4980000D01*
G01X4250000Y4860000D02*
X4290000Y4820000D01*
G01X5199850Y200000D02*
X5348720D01*
G01X4650000Y1600000D02*
X4780000D01*
X4810000Y1630000D01*
Y1720000D01*
X4795000Y1735000D01*
X4700000D01*
G01X4790000Y2900150D02*
X4650000D01*
G01X4790000Y3130000D02*
X4790150Y3040000D01*
X4790000Y3039850D01*
G01X5160000Y6410000D02*
Y6319850D01*
G01X5010000D02*
Y6410000D01*
G01X4860000D02*
Y6319850D01*
G01X5366000Y7370000D02*
X5240000Y7244000D01*
Y6490000D01*
X5160000Y6410000D01*
G01X5112000Y7370000D02*
X4980000Y7238000D01*
Y6440000D01*
X5010000Y6410000D01*
G01X4858000Y7370000D02*
X4740000Y7252000D01*
Y6530000D01*
X4860000Y6410000D01*
G01X5310000D02*
Y6319850D01*
G01X5620000Y7370000D02*
X5490000Y7240000D01*
Y6490010D01*
X5409990Y6410000D01*
X5310000D01*
G01X6190000Y6960000D02*
X6307500D01*
X6310000Y6962500D01*
G54D13*
X254000Y6350000D03*
X820000Y6600000D03*
X1168400Y6350000D03*
X1620000Y6600000D03*
X2170000Y520000D03*
X2480000Y710000D03*
Y1370000D03*
Y930000D03*
Y1150000D03*
X2810000Y4620000D03*
X3860000Y3450000D03*
X4550000Y5780000D03*
X4920000Y1250000D03*
Y1470000D03*
X4860000Y5780000D03*
Y6000000D03*
X6197600Y6350000D03*
X7030000Y1230000D03*
Y980000D03*
X7112000Y6350000D03*
G54D31*
X4930000Y720000D03*
Y490000D03*
Y950000D03*
X5970000Y720000D03*
Y490000D03*
Y950000D03*
G54D22*
X2929500Y2020000D03*
Y2540000D03*
X3310500Y2020000D03*
X3183500D03*
X3056500D03*
Y2540000D03*
X3183500D03*
X3310500D03*
G54D41*
G01X4055000Y1490000D02*
Y1411990D01*
X4066000Y1400990D01*
Y973010D01*
X4040000Y947010D01*
Y805000D01*
G01X4105000Y1490000D02*
Y1411990D01*
X4094000Y1400990D01*
Y973010D01*
X4120000Y947010D01*
Y805000D01*
G54D14*
X392000Y1020000D03*
X646000D03*
X1154000D03*
X900000D03*
X1916000D03*
X1662000D03*
X1408000D03*
G54D32*
X5112000Y6608000D03*
X4858000D03*
Y7370000D03*
X5112000D03*
X5620000Y6608000D03*
X5366000D03*
Y7370000D03*
G54D23*
X3580000Y1245000D03*
Y1075000D03*
X3800000Y1245000D03*
Y1075000D03*
G54D42*
G01X510000Y6840000D02*
Y6739850D01*
G01X250000Y6840000D02*
Y6739850D01*
G01X350000Y6740000D02*
X250150D01*
X250000Y6739850D01*
G01X1170000Y6840000D02*
Y6739850D01*
G01X1070000Y6740000D02*
X1169850D01*
X1170000Y6739850D01*
G01X1320000Y6740000D02*
X1419850D01*
X1420000Y6739850D01*
G01Y6840000D02*
Y6739850D01*
G01Y6600150D02*
X1619850D01*
X1620000Y6600000D01*
G01X2930000Y5340000D02*
X2830150D01*
X2830000Y5340150D01*
G01X2730000Y5340000D02*
X2829850D01*
X2830000Y5340150D01*
G01X2930000Y5760000D02*
X2830150D01*
X2830000Y5759850D01*
G01X2730000Y5760000D02*
X2829850D01*
X2830000Y5759850D01*
G01X6200000Y6830000D02*
Y6739850D01*
G01X6820000Y6740000D02*
X6919850D01*
X6920000Y6739850D01*
G01X6450000Y6830000D02*
Y6739850D01*
G01X6550000Y6740000D02*
X6450150D01*
X6450000Y6739850D01*
G01X7470000Y1130000D02*
X7370150D01*
X7370000Y1130150D01*
G01Y1030000D02*
Y1130150D01*
G01Y6830000D02*
Y6739850D01*
G01X7470000Y6740000D02*
X7370150D01*
X7370000Y6739850D01*
G01X6920000Y6830000D02*
Y6739850D01*
G54D15*
X640000Y6740800D03*
Y6639200D03*
X2979200Y850000D03*
X3080800D03*
X3420000Y1170800D03*
Y1069200D03*
X3069200Y2740000D03*
X3170800D03*
X3950000Y1149200D03*
Y1250800D03*
X4219200Y1050000D03*
X4320800D03*
X5120000Y3279200D03*
Y3380800D03*
Y3579200D03*
Y3680800D03*
Y3980800D03*
Y3879200D03*
Y4179200D03*
Y4280800D03*
Y4580800D03*
Y4479200D03*
Y4779200D03*
Y4880800D03*
Y5180800D03*
Y5079200D03*
Y5379200D03*
Y5480800D03*
X5250000Y3530800D03*
Y3429200D03*
Y4029200D03*
Y3729200D03*
Y3830800D03*
Y4329200D03*
Y4430800D03*
Y4130800D03*
Y4629200D03*
Y4730800D03*
Y5229200D03*
Y5030800D03*
Y4929200D03*
Y5330800D03*
Y5529200D03*
Y5630800D03*
X6070000Y6740800D03*
Y6639200D03*
G54D24*
X3560000Y1685000D03*
Y1735000D03*
Y1785000D03*
Y1835000D03*
Y1885000D03*
Y1935000D03*
Y1985000D03*
Y2035000D03*
Y2085000D03*
Y2135000D03*
Y2185000D03*
Y2235000D03*
Y2285000D03*
Y2335000D03*
Y2385000D03*
Y2435000D03*
X4700000Y1835000D03*
Y1785000D03*
Y1735000D03*
Y1685000D03*
Y2385000D03*
Y2335000D03*
Y2285000D03*
Y2235000D03*
Y2185000D03*
Y2135000D03*
Y2085000D03*
Y2035000D03*
Y1985000D03*
Y1935000D03*
Y1885000D03*
Y2435000D03*
G54D33*
X5511280Y200000D03*
X5348720D03*
G54D43*
G01X3560000Y2385000D02*
X3455000D01*
X3430000Y2410000D01*
G01X3560000Y2335000D02*
X3455000D01*
X3430000Y2310000D01*
G01X3560000Y1685000D02*
X3685000D01*
X3690000Y1690000D01*
G01X3955000Y1490000D02*
Y1635000D01*
X3980000Y1660000D01*
G01X3755000Y1490000D02*
Y1635000D01*
X3780000Y1660000D01*
G01X3905000Y1490000D02*
Y1645000D01*
X3890000Y1660000D01*
G01X3560000Y2085000D02*
X3685000D01*
X3690000Y2090000D01*
G01X3560000Y2435000D02*
X3685000D01*
X3690000Y2430000D01*
G01X3980000Y2500000D02*
X4030000D01*
X4055000Y2525000D01*
Y2630000D01*
G01X3880000Y2500000D02*
X3830000D01*
X3805000Y2525000D01*
Y2630000D01*
G01X4305000Y1490000D02*
Y1635000D01*
X4330000Y1660000D01*
G01X4205000Y1490000D02*
Y1365000D01*
X4200000Y1360000D01*
G01X4355000Y1490000D02*
Y1365000D01*
X4350000Y1360000D01*
G01X4455000Y1490000D02*
Y1585000D01*
X4490000Y1620000D01*
G01X4255000Y1490000D02*
Y1645000D01*
X4240000Y1660000D01*
G01X4155000Y1490000D02*
Y1655000D01*
X4150000Y1660000D01*
G01X4700000Y2385000D02*
X4575000D01*
X4570000Y2380000D01*
G01X4305000Y2630000D02*
Y2505000D01*
X4300000Y2500000D01*
G01X4405000Y2630000D02*
Y2505000D01*
X4410000Y2500000D01*
G01X4830000Y1910000D02*
Y1860000D01*
X4805000Y1835000D01*
X4700000D01*
G01X4830000Y2010000D02*
Y2060000D01*
X4805000Y2085000D01*
X4700000D01*
G54D16*
X250000Y6600150D03*
Y6739850D03*
X510000Y6600150D03*
Y6739850D03*
X1170000Y6600150D03*
Y6739850D03*
X1420000Y6600150D03*
Y6739850D03*
X2830000Y5620150D03*
Y5759850D03*
Y5479850D03*
Y5340150D03*
X3530000Y2900150D03*
X3390000D03*
X3530000Y3039850D03*
X3390000D03*
X3670000Y2900150D03*
X3810000D03*
X3950000D03*
X4090000D03*
X3670000Y3039850D03*
X3810000D03*
X3950000D03*
X4090000D03*
X4510000Y2900150D03*
X4370000D03*
X4230000D03*
X4650000D03*
X4510000Y3039850D03*
X4370000D03*
X4230000D03*
X4650000D03*
X4790000Y2900150D03*
Y3039850D03*
X5160000Y6319850D03*
Y6180150D03*
X5010000Y6319850D03*
Y6180150D03*
X4860000Y6319850D03*
Y6180150D03*
X5310000Y6319850D03*
Y6180150D03*
X6200000Y6600150D03*
Y6739850D03*
X6450000Y6600150D03*
Y6739850D03*
X6920000Y6600150D03*
Y6739850D03*
X7220000Y1269850D03*
Y1130150D03*
X7370000Y1269850D03*
Y1130150D03*
X7070000Y6600150D03*
Y6739850D03*
X7220000Y6600150D03*
Y6739850D03*
X7370000Y6600150D03*
Y6739850D03*
G54D34*
X5550000Y720000D03*
X6590000D03*
G54D25*
G01X2840000Y760000D02*
Y820000D01*
X2870000Y850000D01*
X2979200D01*
G01X2929500Y2540000D02*
Y2679500D01*
X2990000Y2740000D01*
G01X3420000Y1250000D02*
X3575000D01*
X3580000Y1245000D01*
G01X3420000Y1250000D02*
Y1170800D01*
G01X3220000Y940000D02*
Y890000D01*
X3180000Y850000D01*
X3080800D01*
G01X3180000Y2380000D02*
Y2536500D01*
X3183500Y2540000D01*
G01X2990000Y2740000D02*
X3069200D01*
G01X3250000D02*
X3170800D01*
G01X3310500Y2540000D02*
Y2679500D01*
X3250000Y2740000D01*
G01X3070000Y3700000D02*
X2990000D01*
G01X3530000Y4140000D02*
X3570000Y4100000D01*
G01X3950000Y1070000D02*
X3805000D01*
X3800000Y1075000D01*
G01X3950000Y1149200D02*
Y1070000D01*
G01X5060150Y200000D02*
Y289850D01*
X5010000Y340000D01*
G01X4719850Y1180000D02*
Y1279850D01*
X4720000Y1280000D01*
G01X4860000Y6000000D02*
Y6180150D01*
G01D02*
X5010000D01*
G01X5160000D02*
X5170000Y6170150D01*
Y6090000D01*
G01X5160000Y6180150D02*
X5310000D01*
G01X5010000D02*
X5160000D01*
G01X5510000Y300000D02*
Y201280D01*
X5511280Y200000D01*
G01X5310000Y6090000D02*
Y6180150D01*
G01X6430000Y7380000D02*
X6312500D01*
X6310000Y7377500D01*
G01X6190000Y7380000D02*
X6307500D01*
X6310000Y7377500D01*
X3530000Y4060000D03*
Y3980000D03*
Y3900000D03*
X3450000Y4060000D03*
Y3980000D03*
Y3900000D03*
X3370000Y4060000D03*
Y3980000D03*
Y3900000D03*
X3290000Y4060000D03*
Y3980000D03*
Y3900000D03*
X3210000Y4060000D03*
Y3980000D03*
Y3900000D03*
X3530000Y4620000D03*
Y4540000D03*
Y4460000D03*
Y4380000D03*
Y4300000D03*
Y4220000D03*
Y4140000D03*
X3450000Y4620000D03*
Y4540000D03*
Y4460000D03*
Y4380000D03*
Y4300000D03*
Y4220000D03*
Y4140000D03*
X3370000Y4620000D03*
Y4540000D03*
Y4460000D03*
Y4380000D03*
Y4300000D03*
Y4220000D03*
Y4140000D03*
X3290000Y4620000D03*
Y4540000D03*
Y4460000D03*
Y4380000D03*
Y4300000D03*
Y4220000D03*
Y4140000D03*
X3210000Y4620000D03*
Y4540000D03*
Y4460000D03*
Y4380000D03*
Y4300000D03*
Y4220000D03*
Y4140000D03*
X3530000Y5100000D03*
Y5020000D03*
Y4940000D03*
Y4860000D03*
Y4780000D03*
Y4700000D03*
X3450000Y5100000D03*
Y5020000D03*
Y4940000D03*
Y4860000D03*
Y4780000D03*
Y4700000D03*
X3370000Y5100000D03*
Y5020000D03*
Y4940000D03*
Y4860000D03*
Y4780000D03*
Y4700000D03*
X3290000Y5100000D03*
Y5020000D03*
Y4940000D03*
Y4860000D03*
Y4780000D03*
Y4700000D03*
X3210000Y5100000D03*
Y5020000D03*
Y4940000D03*
Y4860000D03*
Y4780000D03*
Y4700000D03*
X4090000Y4060000D03*
Y3980000D03*
Y3900000D03*
X4010000Y4060000D03*
Y3980000D03*
Y3900000D03*
X3930000Y4060000D03*
Y3980000D03*
Y3900000D03*
X3850000Y4060000D03*
Y3980000D03*
Y3900000D03*
X3770000Y4060000D03*
Y3980000D03*
Y3900000D03*
X3690000Y4060000D03*
Y3980000D03*
Y3900000D03*
X3610000Y4060000D03*
Y3980000D03*
Y3900000D03*
X4090000Y4620000D03*
Y4540000D03*
Y4460000D03*
Y4380000D03*
Y4300000D03*
Y4220000D03*
Y4140000D03*
X4010000Y4620000D03*
Y4540000D03*
Y4460000D03*
Y4380000D03*
Y4300000D03*
Y4220000D03*
Y4140000D03*
X3930000Y4620000D03*
Y4540000D03*
Y4460000D03*
Y4380000D03*
Y4300000D03*
Y4220000D03*
Y4140000D03*
X3850000Y4620000D03*
Y4540000D03*
Y4460000D03*
Y4380000D03*
Y4300000D03*
Y4220000D03*
Y4140000D03*
X3770000Y4620000D03*
Y4540000D03*
Y4460000D03*
Y4380000D03*
Y4300000D03*
Y4220000D03*
Y4140000D03*
X3690000Y4620000D03*
Y4540000D03*
Y4460000D03*
Y4380000D03*
Y4300000D03*
Y4220000D03*
Y4140000D03*
X3610000Y4620000D03*
Y4540000D03*
Y4460000D03*
Y4380000D03*
Y4300000D03*
Y4220000D03*
Y4140000D03*
X4090000Y5100000D03*
Y5020000D03*
Y4940000D03*
Y4860000D03*
Y4780000D03*
Y4700000D03*
X4010000Y5100000D03*
Y5020000D03*
Y4940000D03*
Y4860000D03*
Y4780000D03*
Y4700000D03*
X3930000Y5100000D03*
Y5020000D03*
Y4940000D03*
Y4860000D03*
Y4780000D03*
Y4700000D03*
X3850000Y5100000D03*
Y5020000D03*
Y4940000D03*
Y4860000D03*
Y4780000D03*
Y4700000D03*
X3770000Y5100000D03*
Y5020000D03*
Y4940000D03*
Y4860000D03*
Y4780000D03*
Y4700000D03*
X3690000Y5100000D03*
Y5020000D03*
Y4940000D03*
Y4860000D03*
Y4780000D03*
Y4700000D03*
X3610000Y5100000D03*
Y5020000D03*
Y4940000D03*
Y4860000D03*
Y4780000D03*
Y4700000D03*
X4410000Y4060000D03*
Y3980000D03*
Y3900000D03*
X4330000Y4060000D03*
Y3980000D03*
Y3900000D03*
X4250000Y4060000D03*
Y3980000D03*
Y3900000D03*
X4170000Y4060000D03*
Y3980000D03*
Y3900000D03*
X4410000Y4620000D03*
Y4540000D03*
Y4460000D03*
Y4380000D03*
Y4300000D03*
Y4220000D03*
Y4140000D03*
X4330000Y4620000D03*
Y4540000D03*
Y4460000D03*
Y4380000D03*
Y4300000D03*
Y4220000D03*
Y4140000D03*
X4250000Y4620000D03*
Y4540000D03*
Y4460000D03*
Y4380000D03*
Y4300000D03*
Y4220000D03*
Y4140000D03*
X4170000Y4620000D03*
Y4540000D03*
Y4460000D03*
Y4380000D03*
Y4300000D03*
Y4220000D03*
Y4140000D03*
X4410000Y5100000D03*
Y5020000D03*
Y4940000D03*
Y4860000D03*
Y4780000D03*
Y4700000D03*
X4330000Y5100000D03*
Y5020000D03*
Y4940000D03*
Y4860000D03*
Y4780000D03*
Y4700000D03*
X4250000Y5100000D03*
Y5020000D03*
Y4940000D03*
Y4860000D03*
Y4780000D03*
Y4700000D03*
X4170000Y5100000D03*
Y5020000D03*
Y4940000D03*
Y4860000D03*
Y4780000D03*
Y4700000D03*
G54D44*
G01X-107300Y-759600D02*
Y-2664600D01*
G01X7893700D02*
X-107300D01*
G01X13940Y-2065580D02*
X5810Y-2059230D01*
X-3670Y-2055000D01*
X-14500D01*
X-26700Y-2061350D01*
X-36180Y-2071930D01*
X-42950Y-2084630D01*
X-48370Y-2105800D01*
X-49730Y-2124850D01*
X-47020Y-2143900D01*
X-42950Y-2156600D01*
X-34830Y-2169300D01*
X-25340Y-2177770D01*
X-15860Y-2182000D01*
X-6380D01*
X3110Y-2177770D01*
X11230Y-2171420D01*
X18010Y-2162950D01*
G01X62370Y-2182000D02*
Y-2055000D01*
G01X119270D02*
Y-2182000D01*
G01Y-2118500D02*
X62370D01*
G01X224590Y-2182000D02*
X170410D01*
Y-2055000D01*
X224590D01*
G01X202920Y-2116380D02*
X170410D01*
G01X333980Y-2065580D02*
X325850Y-2059230D01*
X316370Y-2055000D01*
X305540D01*
X293340Y-2061350D01*
X283860Y-2071930D01*
X277090Y-2084630D01*
X271670Y-2105800D01*
X270310Y-2124850D01*
X273020Y-2143900D01*
X277090Y-2156600D01*
X285210Y-2169300D01*
X294700Y-2177770D01*
X304180Y-2182000D01*
X313660D01*
X323150Y-2177770D01*
X331270Y-2171420D01*
X338050Y-2162950D01*
G01X381060Y-2182000D02*
Y-2055000D01*
G01X432530D02*
X381060Y-2133320D01*
G01X440660Y-2182000D02*
X404090Y-2097340D01*
G01X544630Y-2182000D02*
X490450D01*
Y-2055000D01*
X544630D01*
G01X522960Y-2116380D02*
X490450D01*
G01X597130Y-2182000D02*
Y-2055000D01*
X630990D01*
X641830Y-2061350D01*
X648600Y-2069820D01*
X651310Y-2086750D01*
X648600Y-2103680D01*
X640480Y-2114270D01*
X630990Y-2120620D01*
X597130D01*
G01X630990D02*
X651310Y-2182000D01*
G01X730900Y-2186230D02*
X728190Y-2184120D01*
Y-2179880D01*
X730900Y-2177770D01*
X733610Y-2179880D01*
Y-2184120D01*
X730900Y-2186230D01*
G01Y-2129090D02*
X728190Y-2126970D01*
Y-2122730D01*
X730900Y-2120620D01*
X733610Y-2122730D01*
Y-2126970D01*
X730900Y-2129090D01*
G01X810490Y-2055000D02*
Y-2182000D01*
X864670D01*
G01X971350D02*
X917170D01*
Y-2055000D01*
X971350D01*
G01X949680Y-2116380D02*
X917170D01*
G01X1019780Y-2182000D02*
Y-2055000D01*
X1082100Y-2182000D01*
Y-2055000D01*
G01X1126460Y-2182000D02*
Y-2055000D01*
X1188780Y-2182000D01*
Y-2055000D01*
G01X1264300Y-2182000D02*
X1253460Y-2179880D01*
X1243980Y-2171420D01*
X1235850Y-2158720D01*
X1230430Y-2143900D01*
X1227720Y-2126970D01*
Y-2110030D01*
X1230430Y-2093100D01*
X1235850Y-2078280D01*
X1243980Y-2065580D01*
X1253460Y-2057120D01*
X1264300Y-2055000D01*
X1275140Y-2057120D01*
X1284620Y-2065580D01*
X1292750Y-2078280D01*
X1298170Y-2093100D01*
X1300880Y-2110030D01*
Y-2126970D01*
X1298170Y-2143900D01*
X1292750Y-2158720D01*
X1284620Y-2171420D01*
X1275140Y-2179880D01*
X1264300Y-2182000D01*
G01X1339820D02*
Y-2055000D01*
X1402140Y-2182000D01*
Y-2055000D01*
G01X1543700D02*
X1562660Y-2182000D01*
X1584340Y-2055000D01*
X1606010Y-2182000D01*
X1624980Y-2055000D01*
G01X1657150Y-2182000D02*
X1691020Y-2055000D01*
X1724890Y-2182000D01*
G01X1712690Y-2137550D02*
X1669340D01*
G01X1766540Y-2182000D02*
Y-2055000D01*
X1828860Y-2182000D01*
Y-2055000D01*
G01X1912510Y-2118500D02*
X1939600D01*
Y-2156600D01*
X1931470Y-2169300D01*
X1921990Y-2177770D01*
X1908440Y-2182000D01*
X1894900Y-2177770D01*
X1885410Y-2169300D01*
X1877290Y-2156600D01*
X1871870Y-2141780D01*
X1869160Y-2124850D01*
Y-2110030D01*
X1871870Y-2097340D01*
X1877290Y-2082510D01*
X1885410Y-2069820D01*
X1893540Y-2061350D01*
X1904380Y-2055000D01*
X1913860D01*
X1924700Y-2059230D01*
X1932830Y-2067700D01*
G01X-45660Y-2563000D02*
Y-2436000D01*
X-18570D01*
X-7730Y-2442350D01*
X400Y-2450820D01*
X7170Y-2463510D01*
X12590Y-2478340D01*
X13940Y-2499500D01*
X12590Y-2520670D01*
X7170Y-2535490D01*
X400Y-2548190D01*
X-7730Y-2556650D01*
X-18570Y-2563000D01*
X-45660D01*
G01X56950D02*
X90820Y-2436000D01*
X124690Y-2563000D01*
G01X112490Y-2518550D02*
X69140D01*
G01X197500Y-2436000D02*
Y-2563000D01*
G01X166340Y-2436000D02*
X228660D01*
G01X331270Y-2563000D02*
X277090D01*
Y-2436000D01*
X331270D01*
G01X309600Y-2497380D02*
X277090D01*
G01X410860Y-2567230D02*
X408150Y-2565120D01*
Y-2560880D01*
X410860Y-2558770D01*
X413570Y-2560880D01*
Y-2565120D01*
X410860Y-2567230D01*
G01Y-2510090D02*
X408150Y-2507970D01*
Y-2503730D01*
X410860Y-2501620D01*
X413570Y-2503730D01*
Y-2507970D01*
X410860Y-2510090D01*
G01X491800Y-2457170D02*
X499930Y-2444470D01*
X509410Y-2438120D01*
X520250Y-2436000D01*
X533800Y-2440230D01*
X543280Y-2450820D01*
X545990Y-2463510D01*
X544630Y-2476220D01*
X539210Y-2486800D01*
X512120Y-2507970D01*
X499930Y-2522780D01*
X491800Y-2543950D01*
X489090Y-2563000D01*
X545990D01*
G01X594420Y-2537600D02*
X602540Y-2552420D01*
X613380Y-2560880D01*
X625580Y-2563000D01*
X636410Y-2560880D01*
X647250Y-2550300D01*
X654020Y-2537600D01*
X655380Y-2524900D01*
X652670Y-2510090D01*
X643190Y-2499500D01*
X633700Y-2495270D01*
X621510D01*
G01X633700D02*
X641830Y-2488920D01*
X648600Y-2478340D01*
X651310Y-2465630D01*
X648600Y-2452930D01*
X641830Y-2442350D01*
X629640Y-2436000D01*
X617450Y-2438120D01*
X605250Y-2446580D01*
G01X702450Y-2546070D02*
X713290Y-2556650D01*
X725480Y-2563000D01*
X736320D01*
X747160Y-2556650D01*
X755280Y-2546070D01*
X759350Y-2531250D01*
X756640Y-2516440D01*
X749870Y-2503730D01*
X737670Y-2495270D01*
X721420Y-2491030D01*
X711930Y-2482570D01*
X707870Y-2467750D01*
X710580Y-2452930D01*
X717350Y-2442350D01*
X726840Y-2436000D01*
X736320D01*
X745800Y-2440230D01*
X753930Y-2450820D01*
G01X864670Y-2563000D02*
X810490D01*
Y-2436000D01*
X864670D01*
G01X843000Y-2497380D02*
X810490D01*
G01X917170Y-2563000D02*
Y-2436000D01*
X949680D01*
X960520Y-2442350D01*
X968640Y-2457170D01*
X971350Y-2474100D01*
X968640Y-2491030D01*
X961870Y-2503730D01*
X949680Y-2510090D01*
X917170D01*
G01X1050940Y-2563000D02*
Y-2436000D01*
X1034680Y-2461400D01*
G01Y-2563000D02*
X1067190D01*
G01X1173880D02*
Y-2436000D01*
X1123750Y-2527020D01*
X1191490D01*
G01X2877200Y-2298840D02*
X-107300D01*
G01X-45660Y-1801000D02*
Y-1674000D01*
X-18570D01*
X-7730Y-1680350D01*
X400Y-1688820D01*
X7170Y-1701510D01*
X12590Y-1716340D01*
X13940Y-1737500D01*
X12590Y-1758670D01*
X7170Y-1773490D01*
X400Y-1786190D01*
X-7730Y-1794650D01*
X-18570Y-1801000D01*
X-45660D01*
G01X117910D02*
X63730D01*
Y-1674000D01*
X117910D01*
G01X96240Y-1735380D02*
X63730D01*
G01X169050Y-1784070D02*
X179890Y-1794650D01*
X192080Y-1801000D01*
X202920D01*
X213760Y-1794650D01*
X221880Y-1784070D01*
X225950Y-1769250D01*
X223240Y-1754440D01*
X216470Y-1741730D01*
X204270Y-1733270D01*
X188020Y-1729030D01*
X178530Y-1720570D01*
X174470Y-1705750D01*
X177180Y-1690930D01*
X183950Y-1680350D01*
X193440Y-1674000D01*
X202920D01*
X212400Y-1678230D01*
X220530Y-1688820D01*
G01X287920Y-1674000D02*
X320430D01*
G01X304180D02*
Y-1801000D01*
G01X287920D02*
X320430D01*
G01X418990Y-1737500D02*
X446080D01*
Y-1775600D01*
X437950Y-1788300D01*
X428470Y-1796770D01*
X414920Y-1801000D01*
X401380Y-1796770D01*
X391890Y-1788300D01*
X383770Y-1775600D01*
X378350Y-1760780D01*
X375640Y-1743850D01*
Y-1729030D01*
X378350Y-1716340D01*
X383770Y-1701510D01*
X391890Y-1688820D01*
X400020Y-1680350D01*
X410860Y-1674000D01*
X420340D01*
X431180Y-1678230D01*
X439310Y-1686700D01*
G01X486380Y-1801000D02*
Y-1674000D01*
X548700Y-1801000D01*
Y-1674000D01*
G01X651310Y-1801000D02*
X597130D01*
Y-1674000D01*
X651310D01*
G01X629640Y-1735380D02*
X597130D01*
G01X703810Y-1801000D02*
Y-1674000D01*
X737670D01*
X748510Y-1680350D01*
X755280Y-1688820D01*
X757990Y-1705750D01*
X755280Y-1722680D01*
X747160Y-1733270D01*
X737670Y-1739620D01*
X703810D01*
G01X737670D02*
X757990Y-1801000D01*
G01X837580Y-1805230D02*
X834870Y-1803120D01*
Y-1798880D01*
X837580Y-1796770D01*
X840290Y-1798880D01*
Y-1803120D01*
X837580Y-1805230D01*
G01Y-1748090D02*
X834870Y-1745970D01*
Y-1741730D01*
X837580Y-1739620D01*
X840290Y-1741730D01*
Y-1745970D01*
X837580Y-1748090D01*
G01X917170Y-1674000D02*
Y-1801000D01*
X971350D01*
G01X1078030D02*
X1023850D01*
Y-1674000D01*
X1078030D01*
G01X1056360Y-1735380D02*
X1023850D01*
G01X1126460Y-1801000D02*
Y-1674000D01*
X1188780Y-1801000D01*
Y-1674000D01*
G01X1233140Y-1801000D02*
Y-1674000D01*
X1295460Y-1801000D01*
Y-1674000D01*
G01X1370980Y-1801000D02*
X1360140Y-1798880D01*
X1350660Y-1790420D01*
X1342530Y-1777720D01*
X1337110Y-1762900D01*
X1334400Y-1745970D01*
Y-1729030D01*
X1337110Y-1712100D01*
X1342530Y-1697280D01*
X1350660Y-1684580D01*
X1360140Y-1676120D01*
X1370980Y-1674000D01*
X1381820Y-1676120D01*
X1391300Y-1684580D01*
X1399430Y-1697280D01*
X1404850Y-1712100D01*
X1407560Y-1729030D01*
Y-1745970D01*
X1404850Y-1762900D01*
X1399430Y-1777720D01*
X1391300Y-1790420D01*
X1381820Y-1798880D01*
X1370980Y-1801000D01*
G01X1446500D02*
Y-1674000D01*
X1508820Y-1801000D01*
Y-1674000D01*
G01X1650380D02*
X1669340Y-1801000D01*
X1691020Y-1674000D01*
X1712690Y-1801000D01*
X1731660Y-1674000D01*
G01X1763830Y-1801000D02*
X1797700Y-1674000D01*
X1831570Y-1801000D01*
G01X1819370Y-1756550D02*
X1776020D01*
G01X1873220Y-1801000D02*
Y-1674000D01*
X1935540Y-1801000D01*
Y-1674000D01*
G01X2019190Y-1737500D02*
X2046280D01*
Y-1775600D01*
X2038150Y-1788300D01*
X2028670Y-1796770D01*
X2015120Y-1801000D01*
X2001580Y-1796770D01*
X1992090Y-1788300D01*
X1983970Y-1775600D01*
X1978550Y-1760780D01*
X1975840Y-1743850D01*
Y-1729030D01*
X1978550Y-1716340D01*
X1983970Y-1701510D01*
X1992090Y-1688820D01*
X2000220Y-1680350D01*
X2011060Y-1674000D01*
X2020540D01*
X2031380Y-1678230D01*
X2039510Y-1686700D01*
G01X2877200Y-1524140D02*
X-107300D01*
G01X2877200Y-1917840D02*
X-107300D01*
G01Y-759600D02*
X7893700D01*
G01X0Y0D02*
X7620000D01*
Y7620000D01*
X0D01*
Y0D01*
G01X790170Y-848500D02*
Y-1039000D01*
X874830D01*
G01X944680D02*
X997600Y-848500D01*
X1050520Y-1039000D01*
G01X1031470Y-972330D02*
X963730D01*
G01X1162700Y-1039000D02*
Y-953280D01*
X1120370Y-848500D01*
G01X1205030D02*
X1162700Y-953280D01*
G01X1370130Y-1039000D02*
X1285470D01*
Y-848500D01*
X1370130D01*
G01X1336270Y-940570D02*
X1285470D01*
G01X1450570Y-1039000D02*
Y-848500D01*
X1503480D01*
X1520420Y-858030D01*
X1531000Y-870730D01*
X1535230Y-896130D01*
X1531000Y-921530D01*
X1518300Y-937400D01*
X1503480Y-946930D01*
X1450570D01*
G01X1503480D02*
X1535230Y-1039000D01*
G01X1658000Y-1045350D02*
X1653770Y-1042170D01*
Y-1035830D01*
X1658000Y-1032650D01*
X1662230Y-1035830D01*
Y-1042170D01*
X1658000Y-1045350D01*
G01Y-959630D02*
X1653770Y-956450D01*
Y-950100D01*
X1658000Y-946930D01*
X1662230Y-950100D01*
Y-956450D01*
X1658000Y-959630D01*
G01X1823100Y-848500D02*
X1806160Y-854850D01*
X1793470Y-870730D01*
X1785000Y-889770D01*
X1778650Y-915180D01*
X1776530Y-943750D01*
X1778650Y-972330D01*
X1785000Y-997730D01*
X1793470Y-1016780D01*
X1806160Y-1032650D01*
X1823100Y-1039000D01*
X1840030Y-1032650D01*
X1852730Y-1016780D01*
X1861200Y-997730D01*
X1867550Y-972330D01*
X1869670Y-943750D01*
X1867550Y-915180D01*
X1861200Y-889770D01*
X1852730Y-870730D01*
X1840030Y-854850D01*
X1823100Y-848500D01*
G01X1988200Y-1039000D02*
Y-848500D01*
X1962800Y-886600D01*
G01Y-1039000D02*
X2013600D01*
G01X1213500Y-1166000D02*
Y-1356500D01*
G01X1164820Y-1166000D02*
X1262180D01*
G01X1378600Y-1356500D02*
X1361660Y-1353330D01*
X1346850Y-1340630D01*
X1334150Y-1321580D01*
X1325680Y-1299350D01*
X1321450Y-1273950D01*
Y-1248550D01*
X1325680Y-1223150D01*
X1334150Y-1200920D01*
X1346850Y-1181880D01*
X1361660Y-1169170D01*
X1378600Y-1166000D01*
X1395530Y-1169170D01*
X1410350Y-1181880D01*
X1423050Y-1200920D01*
X1431520Y-1223150D01*
X1435750Y-1248550D01*
Y-1273950D01*
X1431520Y-1299350D01*
X1423050Y-1321580D01*
X1410350Y-1340630D01*
X1395530Y-1353330D01*
X1378600Y-1356500D01*
G01X1501370D02*
Y-1166000D01*
X1552170D01*
X1569100Y-1175530D01*
X1581800Y-1197750D01*
X1586030Y-1223150D01*
X1581800Y-1248550D01*
X1571220Y-1267600D01*
X1552170Y-1277130D01*
X1501370D01*
G01X2877200Y-759600D02*
Y-2664600D01*
G01X2944930Y-2309000D02*
Y-2156600D01*
X2985570D01*
X2999120Y-2164220D01*
X3009280Y-2182000D01*
X3012670Y-2202320D01*
X3009280Y-2222640D01*
X3000810Y-2237880D01*
X2985570Y-2245500D01*
X2944930D01*
G01X3077010Y-2309000D02*
Y-2156600D01*
X3119350D01*
X3132890Y-2164220D01*
X3141360Y-2174380D01*
X3144750Y-2194700D01*
X3141360Y-2215020D01*
X3131200Y-2227720D01*
X3119350Y-2235340D01*
X3077010D01*
G01X3119350D02*
X3144750Y-2309000D01*
G01X3242960D02*
X3229410Y-2306460D01*
X3217560Y-2296300D01*
X3207400Y-2281060D01*
X3200620Y-2263280D01*
X3197240Y-2242960D01*
Y-2222640D01*
X3200620Y-2202320D01*
X3207400Y-2184540D01*
X3217560Y-2169300D01*
X3229410Y-2159140D01*
X3242960Y-2156600D01*
X3256510Y-2159140D01*
X3268360Y-2169300D01*
X3278520Y-2184540D01*
X3285300Y-2202320D01*
X3288680Y-2222640D01*
Y-2242960D01*
X3285300Y-2263280D01*
X3278520Y-2281060D01*
X3268360Y-2296300D01*
X3256510Y-2306460D01*
X3242960Y-2309000D01*
G01X3341170Y-2278520D02*
X3349640Y-2293760D01*
X3359800Y-2303920D01*
X3371650Y-2309000D01*
X3385200Y-2303920D01*
X3395360Y-2293760D01*
X3405520Y-2278520D01*
X3408910Y-2258200D01*
Y-2156600D01*
G01X3540990Y-2309000D02*
X3473250D01*
Y-2156600D01*
X3540990D01*
G01X3513890Y-2230260D02*
X3473250D01*
G01X3676450Y-2169300D02*
X3666290Y-2161680D01*
X3654440Y-2156600D01*
X3640890D01*
X3625650Y-2164220D01*
X3613800Y-2176920D01*
X3605330Y-2192160D01*
X3598560Y-2217560D01*
X3596860Y-2240420D01*
X3600250Y-2263280D01*
X3605330Y-2278520D01*
X3615490Y-2293760D01*
X3627350Y-2303920D01*
X3639200Y-2309000D01*
X3651050D01*
X3662910Y-2303920D01*
X3673070Y-2296300D01*
X3681540Y-2286140D01*
G01X3771280Y-2156600D02*
Y-2309000D01*
G01X3732330Y-2156600D02*
X3810230D01*
G01X3996490Y-2309000D02*
Y-2156600D01*
X4074390Y-2309000D01*
Y-2156600D01*
G01X4130270D02*
Y-2265820D01*
X4137040Y-2288680D01*
X4150590Y-2303920D01*
X4167520Y-2309000D01*
X4184450Y-2303920D01*
X4198000Y-2288680D01*
X4204770Y-2265820D01*
Y-2156600D01*
G01X4255570Y-2309000D02*
Y-2156600D01*
X4299600Y-2283600D01*
X4343630Y-2156600D01*
Y-2309000D01*
G01X4445230Y-2227720D02*
X4452000Y-2220100D01*
X4457080Y-2207400D01*
X4460470Y-2189620D01*
X4457080Y-2174380D01*
X4450310Y-2164220D01*
X4438450Y-2156600D01*
X4392730D01*
Y-2309000D01*
X4448610D01*
X4460470Y-2298840D01*
X4467240Y-2283600D01*
X4470630Y-2265820D01*
X4467240Y-2248040D01*
X4457080Y-2232800D01*
X4445230Y-2227720D01*
X4392730D01*
G01X4597630Y-2309000D02*
X4529890D01*
Y-2156600D01*
X4597630D01*
G01X4570530Y-2230260D02*
X4529890D01*
G01X4661970Y-2309000D02*
Y-2156600D01*
X4704310D01*
X4717850Y-2164220D01*
X4726320Y-2174380D01*
X4729710Y-2194700D01*
X4726320Y-2215020D01*
X4716160Y-2227720D01*
X4704310Y-2235340D01*
X4661970D01*
G01X4704310D02*
X4729710Y-2309000D01*
G01X4827920Y-2314080D02*
X4824530Y-2311540D01*
Y-2306460D01*
X4827920Y-2303920D01*
X4831310Y-2306460D01*
Y-2311540D01*
X4827920Y-2314080D01*
G01Y-2245500D02*
X4824530Y-2242960D01*
Y-2237880D01*
X4827920Y-2235340D01*
X4831310Y-2237880D01*
Y-2242960D01*
X4827920Y-2245500D01*
G01X7893700Y-2095640D02*
X2877200D01*
G01X2944930Y-1737500D02*
Y-1585100D01*
X2985570D01*
X2999120Y-1592720D01*
X3009280Y-1610500D01*
X3012670Y-1630820D01*
X3009280Y-1651140D01*
X3000810Y-1666380D01*
X2985570Y-1674000D01*
X2944930D01*
G01X3077010Y-1737500D02*
Y-1585100D01*
X3119350D01*
X3132890Y-1592720D01*
X3141360Y-1602880D01*
X3144750Y-1623200D01*
X3141360Y-1643520D01*
X3131200Y-1656220D01*
X3119350Y-1663840D01*
X3077010D01*
G01X3119350D02*
X3144750Y-1737500D01*
G01X3242960D02*
X3229410Y-1734960D01*
X3217560Y-1724800D01*
X3207400Y-1709560D01*
X3200620Y-1691780D01*
X3197240Y-1671460D01*
Y-1651140D01*
X3200620Y-1630820D01*
X3207400Y-1613040D01*
X3217560Y-1597800D01*
X3229410Y-1587640D01*
X3242960Y-1585100D01*
X3256510Y-1587640D01*
X3268360Y-1597800D01*
X3278520Y-1613040D01*
X3285300Y-1630820D01*
X3288680Y-1651140D01*
Y-1671460D01*
X3285300Y-1691780D01*
X3278520Y-1709560D01*
X3268360Y-1724800D01*
X3256510Y-1734960D01*
X3242960Y-1737500D01*
G01X3341170Y-1707020D02*
X3349640Y-1722260D01*
X3359800Y-1732420D01*
X3371650Y-1737500D01*
X3385200Y-1732420D01*
X3395360Y-1722260D01*
X3405520Y-1707020D01*
X3408910Y-1686700D01*
Y-1585100D01*
G01X3540990Y-1737500D02*
X3473250D01*
Y-1585100D01*
X3540990D01*
G01X3513890Y-1658760D02*
X3473250D01*
G01X3676450Y-1597800D02*
X3666290Y-1590180D01*
X3654440Y-1585100D01*
X3640890D01*
X3625650Y-1592720D01*
X3613800Y-1605420D01*
X3605330Y-1620660D01*
X3598560Y-1646060D01*
X3596860Y-1668920D01*
X3600250Y-1691780D01*
X3605330Y-1707020D01*
X3615490Y-1722260D01*
X3627350Y-1732420D01*
X3639200Y-1737500D01*
X3651050D01*
X3662910Y-1732420D01*
X3673070Y-1724800D01*
X3681540Y-1714640D01*
G01X3771280Y-1585100D02*
Y-1737500D01*
G01X3732330Y-1585100D02*
X3810230D01*
G01X3996490Y-1737500D02*
Y-1585100D01*
X4074390Y-1737500D01*
Y-1585100D01*
G01X4125180Y-1737500D02*
X4167520Y-1585100D01*
X4209860Y-1737500D01*
G01X4194610Y-1684160D02*
X4140420D01*
G01X4255570Y-1737500D02*
Y-1585100D01*
X4299600Y-1712100D01*
X4343630Y-1585100D01*
Y-1737500D01*
G01X4465550D02*
X4397810D01*
Y-1585100D01*
X4465550D01*
G01X4438450Y-1658760D02*
X4397810D01*
G01X4563760Y-1742580D02*
X4560370Y-1740040D01*
Y-1734960D01*
X4563760Y-1732420D01*
X4567150Y-1734960D01*
Y-1740040D01*
X4563760Y-1742580D01*
G01Y-1674000D02*
X4560370Y-1671460D01*
Y-1666380D01*
X4563760Y-1663840D01*
X4567150Y-1666380D01*
Y-1671460D01*
X4563760Y-1674000D01*
G01X7893700Y-1524140D02*
X2877200D01*
G01X3016050Y-835800D02*
X3005890Y-828180D01*
X2994040Y-823100D01*
X2980490D01*
X2965250Y-830720D01*
X2953400Y-843420D01*
X2944930Y-858660D01*
X2938160Y-884060D01*
X2936460Y-906920D01*
X2939850Y-929780D01*
X2944930Y-945020D01*
X2955090Y-960260D01*
X2966950Y-970420D01*
X2978800Y-975500D01*
X2990650D01*
X3002510Y-970420D01*
X3012670Y-962800D01*
X3021140Y-952640D01*
G01X3110880Y-975500D02*
X3097330Y-972960D01*
X3085480Y-962800D01*
X3075320Y-947560D01*
X3068540Y-929780D01*
X3065160Y-909460D01*
Y-889140D01*
X3068540Y-868820D01*
X3075320Y-851040D01*
X3085480Y-835800D01*
X3097330Y-825640D01*
X3110880Y-823100D01*
X3124430Y-825640D01*
X3136280Y-835800D01*
X3146440Y-851040D01*
X3153220Y-868820D01*
X3156600Y-889140D01*
Y-909460D01*
X3153220Y-929780D01*
X3146440Y-947560D01*
X3136280Y-962800D01*
X3124430Y-972960D01*
X3110880Y-975500D01*
G01X3198930D02*
Y-823100D01*
X3242960Y-950100D01*
X3286990Y-823100D01*
Y-975500D01*
G01X3341170D02*
Y-823100D01*
X3381810D01*
X3395360Y-830720D01*
X3405520Y-848500D01*
X3408910Y-868820D01*
X3405520Y-889140D01*
X3397050Y-904380D01*
X3381810Y-912000D01*
X3341170D01*
G01X3464780Y-975500D02*
X3507120Y-823100D01*
X3549460Y-975500D01*
G01X3534210Y-922160D02*
X3480020D01*
G01X3600250Y-975500D02*
Y-823100D01*
X3678150Y-975500D01*
Y-823100D01*
G01X3771280Y-975500D02*
Y-906920D01*
X3737410Y-823100D01*
G01X3805150D02*
X3771280Y-906920D01*
G01X3996490Y-975500D02*
Y-823100D01*
X4074390Y-975500D01*
Y-823100D01*
G01X4125180Y-975500D02*
X4167520Y-823100D01*
X4209860Y-975500D01*
G01X4194610Y-922160D02*
X4140420D01*
G01X4255570Y-975500D02*
Y-823100D01*
X4299600Y-950100D01*
X4343630Y-823100D01*
Y-975500D01*
G01X4465550D02*
X4397810D01*
Y-823100D01*
X4465550D01*
G01X4438450Y-896760D02*
X4397810D01*
G01X4563760Y-980580D02*
X4560370Y-978040D01*
Y-972960D01*
X4563760Y-970420D01*
X4567150Y-972960D01*
Y-978040D01*
X4563760Y-980580D01*
G01Y-912000D02*
X4560370Y-909460D01*
Y-904380D01*
X4563760Y-901840D01*
X4567150Y-904380D01*
Y-909460D01*
X4563760Y-912000D01*
G01X3775030Y-2476640D02*
Y-2603640D01*
X3839370D01*
G01X3972080Y-2487220D02*
X3962430Y-2480870D01*
X3951180Y-2476640D01*
X3938310D01*
X3923830Y-2482990D01*
X3912580Y-2493570D01*
X3904530Y-2506270D01*
X3898100Y-2527440D01*
X3896490Y-2546490D01*
X3899710Y-2565540D01*
X3904530Y-2578240D01*
X3914180Y-2590940D01*
X3925440Y-2599410D01*
X3936700Y-2603640D01*
X3947960D01*
X3959220Y-2599410D01*
X3968870Y-2593060D01*
X3976910Y-2584590D01*
G01X4024380Y-2603640D02*
Y-2476640D01*
X4066200Y-2582470D01*
X4108020Y-2476640D01*
Y-2603640D01*
G01X4161920D02*
X4229480Y-2476640D01*
G01X4161920D02*
X4229480Y-2603640D01*
G01X4325200D02*
X4312330Y-2601520D01*
X4301080Y-2593060D01*
X4291420Y-2580360D01*
X4284990Y-2565540D01*
X4281770Y-2548610D01*
Y-2531670D01*
X4284990Y-2514740D01*
X4291420Y-2499920D01*
X4301080Y-2487220D01*
X4312330Y-2478760D01*
X4325200Y-2476640D01*
X4338070Y-2478760D01*
X4349320Y-2487220D01*
X4358980Y-2499920D01*
X4365410Y-2514740D01*
X4368630Y-2531670D01*
Y-2548610D01*
X4365410Y-2565540D01*
X4358980Y-2580360D01*
X4349320Y-2593060D01*
X4338070Y-2601520D01*
X4325200Y-2603640D01*
G01X4419320Y-2578240D02*
X4428960Y-2593060D01*
X4441830Y-2601520D01*
X4456310Y-2603640D01*
X4469180Y-2601520D01*
X4482040Y-2590940D01*
X4490080Y-2578240D01*
X4491690Y-2565540D01*
X4488480Y-2550730D01*
X4477220Y-2540140D01*
X4465960Y-2535910D01*
X4451480D01*
G01X4465960D02*
X4475610Y-2529560D01*
X4483650Y-2518980D01*
X4486870Y-2506270D01*
X4483650Y-2493570D01*
X4475610Y-2482990D01*
X4461130Y-2476640D01*
X4446660Y-2478760D01*
X4432180Y-2487220D01*
G01X4552030Y-2476640D02*
Y-2603640D01*
X4616370D01*
G01X4692790Y-2561310D02*
X4734610D01*
G01X4812640Y-2550730D02*
X4823900Y-2535910D01*
X4833550Y-2527440D01*
X4846420Y-2523210D01*
X4857680Y-2527440D01*
X4865720Y-2535910D01*
X4872150Y-2548610D01*
X4873760Y-2563420D01*
X4872150Y-2576130D01*
X4865720Y-2588830D01*
X4856070Y-2599410D01*
X4844810Y-2603640D01*
X4831940Y-2599410D01*
X4820680Y-2586710D01*
X4814250Y-2567660D01*
X4812640Y-2546490D01*
X4815860Y-2518980D01*
X4820680Y-2504150D01*
X4828720Y-2489340D01*
X4839980Y-2478760D01*
X4851240Y-2476640D01*
X4862500Y-2480870D01*
X4870540Y-2491460D01*
G01X4945360Y-2588830D02*
X4956620Y-2599410D01*
X4969480Y-2603640D01*
X4982350Y-2599410D01*
X4993610Y-2586710D01*
X5001650Y-2567660D01*
X5004870Y-2548610D01*
Y-2525320D01*
X5001650Y-2506270D01*
X4993610Y-2489340D01*
X4983960Y-2480870D01*
X4972700Y-2476640D01*
X4959830Y-2480870D01*
X4950180Y-2489340D01*
X4943750Y-2502040D01*
X4940530Y-2518980D01*
X4943750Y-2533790D01*
X4951790Y-2548610D01*
X4961440Y-2557080D01*
X4972700Y-2559190D01*
X4985570Y-2554960D01*
X4995220Y-2544370D01*
X5004870Y-2525320D01*
G01X5102200Y-2476640D02*
X5089330Y-2480870D01*
X5079680Y-2491460D01*
X5073250Y-2504150D01*
X5068420Y-2521090D01*
X5066820Y-2540140D01*
X5068420Y-2559190D01*
X5073250Y-2576130D01*
X5079680Y-2588830D01*
X5089330Y-2599410D01*
X5102200Y-2603640D01*
X5115070Y-2599410D01*
X5124720Y-2588830D01*
X5131150Y-2576130D01*
X5135980Y-2559190D01*
X5137580Y-2540140D01*
X5135980Y-2521090D01*
X5131150Y-2504150D01*
X5124720Y-2491460D01*
X5115070Y-2480870D01*
X5102200Y-2476640D01*
G01X5231700D02*
X5218830Y-2480870D01*
X5209180Y-2491460D01*
X5202750Y-2504150D01*
X5197920Y-2521090D01*
X5196320Y-2540140D01*
X5197920Y-2559190D01*
X5202750Y-2576130D01*
X5209180Y-2588830D01*
X5218830Y-2599410D01*
X5231700Y-2603640D01*
X5244570Y-2599410D01*
X5254220Y-2588830D01*
X5260650Y-2576130D01*
X5265480Y-2559190D01*
X5267080Y-2540140D01*
X5265480Y-2521090D01*
X5260650Y-2504150D01*
X5254220Y-2491460D01*
X5244570Y-2480870D01*
X5231700Y-2476640D01*
G01X5396580Y-2487220D02*
X5386930Y-2480870D01*
X5375680Y-2476640D01*
X5362810D01*
X5348330Y-2482990D01*
X5337080Y-2493570D01*
X5329030Y-2506270D01*
X5322600Y-2527440D01*
X5320990Y-2546490D01*
X5324210Y-2565540D01*
X5329030Y-2578240D01*
X5338680Y-2590940D01*
X5349940Y-2599410D01*
X5361200Y-2603640D01*
X5372460D01*
X5383720Y-2599410D01*
X5393370Y-2593060D01*
X5401410Y-2584590D01*
G01X5469790Y-2561310D02*
X5511610D01*
G01X5586420Y-2586710D02*
X5599290Y-2597290D01*
X5613770Y-2603640D01*
X5626630D01*
X5639500Y-2597290D01*
X5649150Y-2586710D01*
X5653980Y-2571890D01*
X5650760Y-2557080D01*
X5642720Y-2544370D01*
X5628240Y-2535910D01*
X5608940Y-2531670D01*
X5597680Y-2523210D01*
X5592860Y-2508390D01*
X5596080Y-2493570D01*
X5604120Y-2482990D01*
X5615370Y-2476640D01*
X5626630D01*
X5637890Y-2480870D01*
X5647540Y-2491460D01*
G01X5728790Y-2561310D02*
X5770610D01*
G01X5911370Y-2603640D02*
X5847030D01*
Y-2476640D01*
X5911370D01*
G01X5885630Y-2538020D02*
X5847030D01*
G01X5968490Y-2476640D02*
X6008700Y-2603640D01*
X6048910Y-2476640D01*
G01X6101210Y-2603640D02*
Y-2476640D01*
X6175190Y-2603640D01*
Y-2476640D01*
G01X4209880Y-2032140D02*
Y-1905140D01*
X4251700Y-2010970D01*
X4293520Y-1905140D01*
Y-2032140D01*
G01X4340990D02*
X4381200Y-1905140D01*
X4421410Y-2032140D01*
G01X4406930Y-1987690D02*
X4355460D01*
G01X4546080Y-1915720D02*
X4536430Y-1909370D01*
X4525180Y-1905140D01*
X4512310D01*
X4497830Y-1911490D01*
X4486580Y-1922070D01*
X4478530Y-1934770D01*
X4472100Y-1955940D01*
X4470490Y-1974990D01*
X4473710Y-1994040D01*
X4478530Y-2006740D01*
X4488180Y-2019440D01*
X4499440Y-2027910D01*
X4510700Y-2032140D01*
X4521960D01*
X4533220Y-2027910D01*
X4542870Y-2021560D01*
X4550910Y-2013090D01*
G01X4606420Y-2032140D02*
Y-1905140D01*
G01X4673980D02*
Y-2032140D01*
G01Y-1968640D02*
X4606420D01*
G01X4735920Y-2032140D02*
X4803480Y-1905140D01*
G01X4735920D02*
X4803480Y-2032140D01*
G01X4899200D02*
X4886330Y-2030020D01*
X4875080Y-2021560D01*
X4865420Y-2008860D01*
X4858990Y-1994040D01*
X4855770Y-1977110D01*
Y-1960170D01*
X4858990Y-1943240D01*
X4865420Y-1928420D01*
X4875080Y-1915720D01*
X4886330Y-1907260D01*
X4899200Y-1905140D01*
X4912070Y-1907260D01*
X4923320Y-1915720D01*
X4932980Y-1928420D01*
X4939410Y-1943240D01*
X4942630Y-1960170D01*
Y-1977110D01*
X4939410Y-1994040D01*
X4932980Y-2008860D01*
X4923320Y-2021560D01*
X4912070Y-2030020D01*
X4899200Y-2032140D01*
G01X4993320Y-2006740D02*
X5002960Y-2021560D01*
X5015830Y-2030020D01*
X5030310Y-2032140D01*
X5043180Y-2030020D01*
X5056040Y-2019440D01*
X5064080Y-2006740D01*
X5065690Y-1994040D01*
X5062480Y-1979230D01*
X5051220Y-1968640D01*
X5039960Y-1964410D01*
X5025480D01*
G01X5039960D02*
X5049610Y-1958060D01*
X5057650Y-1947480D01*
X5060870Y-1934770D01*
X5057650Y-1922070D01*
X5049610Y-1911490D01*
X5035130Y-1905140D01*
X5020660Y-1907260D01*
X5006180Y-1915720D01*
G01X5253920Y-2015210D02*
X5266790Y-2025790D01*
X5281270Y-2032140D01*
X5294130D01*
X5307000Y-2025790D01*
X5316650Y-2015210D01*
X5321480Y-2000390D01*
X5318260Y-1985580D01*
X5310220Y-1972870D01*
X5295740Y-1964410D01*
X5276440Y-1960170D01*
X5265180Y-1951710D01*
X5260360Y-1936890D01*
X5263580Y-1922070D01*
X5271620Y-1911490D01*
X5282870Y-1905140D01*
X5294130D01*
X5305390Y-1909370D01*
X5315040Y-1919960D01*
G01X5417200Y-1905140D02*
Y-2032140D01*
G01X5380210Y-1905140D02*
X5454190D01*
G01X5506490Y-2032140D02*
X5546700Y-1905140D01*
X5586910Y-2032140D01*
G01X5572430Y-1987690D02*
X5520960D01*
G01X5644030Y-2032140D02*
Y-1905140D01*
X5684240D01*
X5697110Y-1911490D01*
X5705150Y-1919960D01*
X5708370Y-1936890D01*
X5705150Y-1953820D01*
X5695500Y-1964410D01*
X5684240Y-1970760D01*
X5644030D01*
G01X5684240D02*
X5708370Y-2032140D01*
G01X5805700Y-1905140D02*
Y-2032140D01*
G01X5768710Y-1905140D02*
X5842690D01*
G01X5967370Y-2032140D02*
X5903030D01*
Y-1905140D01*
X5967370D01*
G01X5941630Y-1966520D02*
X5903030D01*
G01X6032530Y-2032140D02*
Y-1905140D01*
X6072740D01*
X6085610Y-1911490D01*
X6093650Y-1919960D01*
X6096870Y-1936890D01*
X6093650Y-1953820D01*
X6084000Y-1964410D01*
X6072740Y-1970760D01*
X6032530D01*
G01X6072740D02*
X6096870Y-2032140D01*
G01X6288320D02*
Y-1905140D01*
G01X6349430D02*
X6288320Y-1983460D01*
G01X6359080Y-2032140D02*
X6315660Y-1947480D01*
G01X6433900Y-1905140D02*
X6472500D01*
G01X6453200D02*
Y-2032140D01*
G01X6433900D02*
X6472500D01*
G01X6582700Y-1905140D02*
Y-2032140D01*
G01X6545710Y-1905140D02*
X6619690D01*
G01X7131700Y-2095640D02*
Y-2664600D01*
G01X7326430Y-2309000D02*
Y-2156600D01*
X7368770D01*
X7382310Y-2164220D01*
X7390780Y-2174380D01*
X7394170Y-2194700D01*
X7390780Y-2215020D01*
X7380620Y-2227720D01*
X7368770Y-2235340D01*
X7326430D01*
G01X7368770D02*
X7394170Y-2309000D01*
G01X7526250D02*
X7458510D01*
Y-2156600D01*
X7526250D01*
G01X7499150Y-2230260D02*
X7458510D01*
G01X7582120Y-2156600D02*
X7624460Y-2309000D01*
X7666800Y-2156600D01*
G01X7472490Y-2603640D02*
X7512700Y-2476640D01*
X7552910Y-2603640D01*
G01X7538430Y-2559190D02*
X7486960D01*
G01X7893700Y-759600D02*
Y-2664600D01*
G54D35*
X5620000Y7370000D03*
G54D26*
X3675000Y205000D03*
X4565000D03*
G54D17*
X640000Y6830000D03*
X510000Y6840000D03*
X350000Y6740000D03*
X250000Y6840000D03*
X640000Y6550000D03*
X1070000Y6740000D03*
X1170000Y6840000D03*
X1320000Y6740000D03*
X1420000Y6840000D03*
X2730000Y5340000D03*
X2930000D03*
X2730000Y5760000D03*
X2930000D03*
X2730000Y5480000D03*
X2930000D03*
X3880000Y760000D03*
Y680000D03*
Y840000D03*
Y920000D03*
X4370000Y830000D03*
Y930000D03*
X4460000Y1170000D03*
X4410000Y1050000D03*
X5000000Y360000D03*
X4760000D03*
X4880000D03*
X4760000Y490000D03*
X5160000Y590000D03*
Y720000D03*
X5220000Y1310000D03*
X5090000Y1280000D03*
X5130000Y980000D03*
Y870000D03*
X4990000Y1070000D03*
X4760000Y1050000D03*
Y920000D03*
X5340000Y720000D03*
Y590000D03*
X5770000Y530000D03*
Y630000D03*
Y430000D03*
X5350000Y1310000D03*
X5800000Y980000D03*
X5690000D03*
X6280000Y630000D03*
X6160000D03*
Y740000D03*
X6180000Y900000D03*
Y1000000D03*
X6280000Y790000D03*
X6200000Y6830000D03*
X6070000D03*
X5990000Y6640000D03*
X6820000Y6740000D03*
X6920000Y6830000D03*
X6550000Y6740000D03*
X6450000Y6830000D03*
X7370000Y1030000D03*
X7470000Y1130000D03*
X7220000Y940000D03*
Y1030000D03*
X7050000Y6830000D03*
X7140000D03*
X7230000D03*
X7470000Y6740000D03*
X7370000Y6830000D03*
G54D18*
X990000Y7208720D03*
Y7371280D03*
X1140000Y7208720D03*
Y7371280D03*
X1290000Y7208720D03*
Y7371280D03*
X840000Y7208720D03*
Y7371280D03*
X1440000Y7208720D03*
Y7371280D03*
X1590000Y7208720D03*
Y7371280D03*
X1740000Y7208720D03*
Y7371280D03*
X1890000Y7208720D03*
Y7371280D03*
G54D36*
X6310000Y7377500D03*
Y6962500D03*
G54D27*
X3960000Y805000D03*
X4040000D03*
X4120000D03*
X4200000D03*
X4280000D03*
G54D37*
G01X4010000Y4380000D02*
X4050000Y4340000D01*
G01X4090000Y4300000D02*
X4130000Y4340000D01*
G01X4010000Y4460000D02*
X4050000Y4420000D01*
G01X4090000Y4460000D02*
X4130000Y4420000D01*
G01X4090000Y4700000D02*
X4130000Y4740000D01*
G01X4170000Y4300000D02*
X4130000Y4260000D01*
G01X4250000Y4380000D02*
X4290000Y4340000D01*
G01X4250000Y4460000D02*
X4290000Y4420000D01*
G01X4170000Y4540000D02*
X4130000Y4500000D01*
G01X4170000Y4620000D02*
X4130000Y4660000D01*
G01X4250000Y4620000D02*
X4210000Y4580000D01*
G01X4330000Y4620000D02*
X4290000Y4580000D01*
G54D19*
X1620000Y6880000D03*
X6690000Y270000D03*
Y7310000D03*
G54D28*
X3675000Y795000D03*
X4565000D03*
G54D38*
G01X4250000Y4140000D02*
X4290000Y4180000D01*
X4430000D01*
X4446000Y4164000D01*
X4476000D01*
X4550000Y4090000D01*
Y4003960D01*
X4780000Y3773960D01*
Y3549990D01*
X4837990Y3492000D01*
X5211200D01*
X5250000Y3530800D01*
G01Y3429200D02*
X5211200Y3468000D01*
X5071040D01*
G03X5053040Y3450000I0J-18000D01*
G01Y3443000D01*
G02X5017040I-18000J0D01*
G01Y3450000D01*
G03X4981040I-18000J0D01*
G01Y3443000D01*
G02X4945040I-18000J0D01*
G01Y3450000D01*
G03X4909040I-18000J0D01*
G01Y3443000D01*
G02X4873040I-18000J0D01*
G01Y3450000D01*
G03X4855040Y3468000I-18000J0D01*
G01X4828040D01*
X4756000Y3540040D01*
Y3764010D01*
X4526000Y3994010D01*
Y4080050D01*
X4466050Y4140000D01*
X4410000D01*
G01Y4060000D02*
Y4060010D01*
X4426040D01*
X4426050Y4060000D01*
X4440000D01*
X4456000Y4044000D01*
Y3963980D01*
X4501970Y3918010D01*
G02Y3892550I-12730J-12730D01*
G01X4501440Y3892020D01*
G03X4526900Y3866560I12730J-12730D01*
G01X4527430Y3867090D01*
G02X4552890Y3841630I12730J-12730D01*
G01X4552360Y3841100D01*
G03X4577820Y3815640I12730J-12730D01*
G01X4578350Y3816170D01*
G02X4603810I12730J-12730D01*
G01X4686000Y3733980D01*
Y3460050D01*
X4828050Y3318000D01*
X5081200D01*
X5120000Y3279200D01*
G01X4330000Y4140000D02*
X4370000Y4100000D01*
X4433950D01*
X4480000Y4053950D01*
Y3973930D01*
X4710000Y3743930D01*
Y3470000D01*
X4838000Y3342000D01*
X5081200D01*
X5120000Y3380800D01*
G01X4410000Y4220000D02*
X4630010D01*
X4726000Y4124010D01*
Y3994000D01*
X4952000Y3768000D01*
X4979150D01*
G02X4997150Y3750000I0J-18000D01*
G01Y3728000D01*
G03X5033150I18000J0D01*
G01Y3750000D01*
G02X5051150Y3768000I18000J0D01*
G01X5211200D01*
X5250000Y3729200D01*
G01X4330000Y4300000D02*
X4370000Y4260000D01*
X4440000D01*
X4456000Y4244000D01*
X4639960D01*
X4750000Y4133960D01*
Y4003950D01*
X4961950Y3792000D01*
X5211200D01*
X5250000Y3830800D01*
G01X5120000Y3579200D02*
X5081200Y3618000D01*
X5049040D01*
G03X5031040Y3600000I0J-18000D01*
G01Y3597500D01*
G02X4995040I-18000J0D01*
G01Y3600000D01*
G03X4959040I-18000J0D01*
G01Y3597500D01*
G02X4923040I-18000J0D01*
G01Y3600000D01*
G03X4905040Y3618000I-18000J0D01*
G01X4878040D01*
X4826000Y3670040D01*
Y3794010D01*
X4656000Y3964010D01*
Y4100050D01*
X4643050Y4113000D01*
X4623000D01*
X4600000Y4090000D01*
G01Y4160000D02*
X4623000Y4137000D01*
X4653000D01*
X4680000Y4110000D01*
Y3973960D01*
X4850000Y3803960D01*
Y3679990D01*
X4887990Y3642000D01*
X5081200D01*
X5120000Y3680800D01*
G01Y3980800D02*
X5081200Y3942000D01*
X4911960D01*
X4890030Y3963930D01*
G02Y3989390I12730J12730D01*
G01X4900340Y3999700D01*
G03X4874880Y4025160I-12730J12730D01*
G01X4864570Y4014850D01*
G02X4839110I-12730J12730D01*
G01X4820000Y4033960D01*
Y4143960D01*
X4639960Y4324000D01*
X4586000D01*
X4570000Y4340000D01*
X4370000D01*
X4330000Y4380000D01*
G01X5120000Y3879200D02*
X5081200Y3918000D01*
X4902010D01*
X4796000Y4024010D01*
Y4134010D01*
X4630010Y4300000D01*
X4550000D01*
G01X5250000Y4029200D02*
X5211200Y4068000D01*
X5041000D01*
G03X5023000Y4050000I0J-18000D01*
G01Y4028500D01*
G02X4987000I-18000J0D01*
G01Y4050000D01*
G03X4969000Y4068000I-18000J0D01*
G01X4942000D01*
X4644000Y4366000D01*
X4490040D01*
X4476040Y4380000D01*
X4410000D01*
G01X5250000Y4130800D02*
X5211200Y4092000D01*
X4951950D01*
X4653950Y4390000D01*
X4499990D01*
X4469990Y4420000D01*
X4370000D01*
X4330000Y4460000D01*
G01X5120000Y4179200D02*
X5081200Y4218000D01*
X4872000D01*
X4644000Y4446000D01*
X4566000D01*
X4550000Y4430000D01*
G01X5120000Y4280800D02*
X5081200Y4242000D01*
X5054200D01*
G02X5036200Y4260000I0J18000D01*
G01Y4267000D01*
G03X5000200I-18000J0D01*
G01Y4260000D01*
G02X4964200I-18000J0D01*
G01Y4267000D01*
G03X4928200I-18000J0D01*
G01Y4260000D01*
G02X4910200Y4242000I-18000J0D01*
G01X4881950D01*
X4825650Y4298300D01*
G02X4825660Y4323760I12730J12725D01*
G01X4829970Y4328070D01*
G03X4804510Y4353530I-12730J12730D01*
G01X4800190Y4349210D01*
G02X4774730Y4349220I-12725J12730D01*
G01X4653950Y4470000D01*
X4530000D01*
X4520000Y4460000D01*
X4410000D01*
G01X5120000Y4580800D02*
X5083200Y4544000D01*
X5071200D01*
G02X5053200Y4562000I0J18000D01*
G01Y4569000D01*
G03X5017200I-18000J0D01*
G01Y4562000D01*
G02X4981200I-18000J0D01*
G01Y4569000D01*
G03X4945200I-18000J0D01*
G01Y4562000D01*
G02X4909200I-18000J0D01*
G01Y4569000D01*
G03X4873200I-18000J0D01*
G01Y4562000D01*
G02X4855200Y4544000I-18000J0D01*
G01X4414000D01*
X4410000Y4540000D01*
G01X5120000Y4479200D02*
X5079200Y4520000D01*
X4450000D01*
X4431000Y4501000D01*
X4289000D01*
X4250000Y4540000D01*
G01X4330000D02*
X4368500Y4578500D01*
X4428500D01*
X4446000Y4596000D01*
X4645990D01*
X4755990Y4706000D01*
X4825990D01*
X4937990Y4818000D01*
X5081200D01*
X5120000Y4779200D01*
G01X4410000Y4620000D02*
X4531500D01*
G03X4549250Y4637750I0J17750D01*
G02X4567000Y4655500I17750J0D01*
G01X4567500D01*
G02X4585250Y4637750I0J-17750D01*
G03X4603000Y4620000I17750J0D01*
G01X4636040D01*
X4664880Y4648840D01*
G03Y4674300I-12730J12730D01*
G01X4664320Y4674860D01*
G02X4689780Y4700320I12730J12730D01*
G01X4690340Y4699760D01*
G03X4715800I12730J12730D01*
G01X4746040Y4730000D01*
X4816040D01*
X4928040Y4842000D01*
X5081200D01*
X5120000Y4880800D01*
G01X4410000Y4780000D02*
X4450000D01*
X4476000Y4806000D01*
Y4866000D01*
X4556000Y4946000D01*
Y5286000D01*
X4712000Y5442000D01*
X4780900D01*
G03X4798650Y5459750I0J17750D01*
G02X4816400Y5477500I17750J0D01*
G01X4816900D01*
G02X4834650Y5459750I0J-17750D01*
G03X4852400Y5442000I17750J0D01*
G01X4852900D01*
G03X4870650Y5459750I0J17750D01*
G02X4888400Y5477500I17750J0D01*
G01X4888900D01*
G02X4906650Y5459750I0J-17750D01*
G03X4924400Y5442000I17750J0D01*
G01X4924900D01*
G03X4942650Y5459750I0J17750D01*
G02X4960400Y5477500I17750J0D01*
G01X4960900D01*
G02X4978650Y5459750I0J-17750D01*
G03X4996400Y5442000I17750J0D01*
G01X5081200D01*
X5120000Y5480800D01*
G01Y5379200D02*
X5081200Y5418000D01*
X4721950D01*
X4580000Y5276050D01*
Y4936050D01*
X4500000Y4856050D01*
Y4796050D01*
X4442450Y4738500D01*
X4368500D01*
X4330000Y4700000D01*
G01X4410000Y4940000D02*
X4456050D01*
X4486000Y4969950D01*
Y5319950D01*
X4758050Y5592000D01*
X5030700D01*
G03X5048700Y5610000I0J18000D01*
G01Y5610500D01*
G02X5084700I18000J0D01*
G01Y5610000D01*
G03X5120700I18000J0D01*
G01Y5610500D01*
G02X5156700I18000J0D01*
G01Y5610000D01*
G03X5174700Y5592000I18000J0D01*
G01X5211200D01*
X5250000Y5630800D01*
G01Y5529200D02*
X5211200Y5568000D01*
X4768000D01*
X4510000Y5310000D01*
Y4960000D01*
X4450000Y4900000D01*
X4370000D01*
X4330000Y4860000D01*
G01X5250000Y5229200D02*
X5211200Y5268000D01*
X4721950D01*
X4650000Y5196050D01*
Y4840000D01*
X4613000Y4803000D01*
X4583000D01*
X4560000Y4780000D01*
G01Y4850000D02*
X4583000Y4827000D01*
X4603050D01*
X4626000Y4849950D01*
Y5206000D01*
X4712000Y5292000D01*
X5211200D01*
X5250000Y5330800D01*
G01X4410000Y4700000D02*
X4460000D01*
X4480000Y4720000D01*
X4586040D01*
X4696000Y4829960D01*
Y4876000D01*
X4777900Y4957900D01*
G03Y4983360I-12730J12730D01*
G01X4772860Y4988400D01*
G02X4798320Y5013860I12730J12730D01*
G01X4803360Y5008820D01*
G03X4828820Y5034280I12730J12730D01*
G01X4823780Y5039320D01*
G02X4849240Y5064780I12730J12730D01*
G01X4854280Y5059740D01*
G03X4879740Y5085200I12730J12730D01*
G01X4874700Y5090240D01*
G02X4900160Y5115700I12730J12730D01*
G01X4905200Y5110660D01*
G03X4930660I12730J12730D01*
G01X4962000Y5142000D01*
X5081200D01*
X5120000Y5180800D01*
G01Y5079200D02*
X5081200Y5118000D01*
X4971950D01*
X4720000Y4866050D01*
Y4820010D01*
X4595990Y4696000D01*
X4489950D01*
X4469950Y4676000D01*
X4446000D01*
X4431500Y4661500D01*
X4288500D01*
X4250000Y4700000D01*
G01X6197600Y1524000D02*
Y1627000D01*
X6185600Y1639000D01*
X6061010D01*
X5206000Y2494010D01*
Y3302050D01*
X5190050Y3318000D01*
X5158800D01*
X5120000Y3279200D01*
G01X6197600Y1778000D02*
Y1675000D01*
X6185600Y1663000D01*
X6070960D01*
X5230000Y2503960D01*
Y3312000D01*
X5200000Y3342000D01*
X5158800D01*
X5120000Y3380800D01*
G01Y3579200D02*
X5158800Y3618000D01*
X5338050D01*
X5386000Y3570050D01*
Y2834010D01*
X6073010Y2147000D01*
X6185600D01*
X6197600Y2135000D01*
Y2032000D01*
G01X5120000Y3680800D02*
X5158800Y3642000D01*
X5348000D01*
X5410000Y3580000D01*
Y2843960D01*
X6082960Y2171000D01*
X6185600D01*
X6197600Y2183000D01*
Y2286000D01*
G01Y3048000D02*
Y2945000D01*
X6185600Y2933000D01*
X6051280D01*
X6025230Y2906950D01*
Y2756000D01*
X6013230Y2744000D01*
X5989230D01*
X5977230Y2756000D01*
Y2906950D01*
X5951180Y2933000D01*
X5907280D01*
X5881230Y2906950D01*
Y2756000D01*
X5869230Y2744000D01*
X5845230D01*
X5833230Y2756000D01*
Y2906950D01*
X5807180Y2933000D01*
X5657000D01*
X5550000Y3040000D01*
Y3810000D01*
X5418000Y3942000D01*
X5158800D01*
X5120000Y3980800D01*
G01X6197600Y2794000D02*
Y2897000D01*
X6185600Y2909000D01*
X6061230D01*
X6049230Y2897000D01*
Y2746050D01*
X6023180Y2720000D01*
X5979280D01*
X5953230Y2746050D01*
Y2897000D01*
X5941230Y2909000D01*
X5917230D01*
X5905230Y2897000D01*
Y2746050D01*
X5879180Y2720000D01*
X5835280D01*
X5809230Y2746050D01*
Y2897000D01*
X5797230Y2909000D01*
X5647050D01*
X5526000Y3030050D01*
Y3800050D01*
X5408050Y3918000D01*
X5158800D01*
X5120000Y3879200D01*
G01X4780000Y4410000D02*
X4803000Y4433000D01*
X4887990D01*
G02X4905990Y4415000I0J-18000D01*
G01Y4400500D01*
G03X4941990I18000J0D01*
G01Y4415000D01*
G02X4959990Y4433000I18000J0D01*
G01X4997010D01*
X5062010Y4368000D01*
X5211200D01*
X5250000Y4329200D01*
G01X4780000Y4480000D02*
X4803000Y4457000D01*
X5006960D01*
X5071960Y4392000D01*
X5211200D01*
X5250000Y4430800D01*
G01X5120000Y4179200D02*
X5158800Y4218000D01*
X5368050D01*
X5666000Y3920050D01*
Y3470050D01*
X5719050Y3417000D01*
X5804830D01*
X5830880Y3443050D01*
Y3574000D01*
X5842880Y3586000D01*
X5866880D01*
X5878880Y3574000D01*
Y3274050D01*
X5904930Y3248000D01*
X5948830D01*
X5974880Y3274050D01*
Y3574000D01*
X5986880Y3586000D01*
X6010880D01*
X6022880Y3574000D01*
Y3443050D01*
X6048930Y3417000D01*
X6185600D01*
X6197600Y3405000D01*
Y3302000D01*
G01X5120000Y4280800D02*
X5158800Y4242000D01*
X5378000D01*
X5690000Y3930000D01*
Y3480000D01*
X5729000Y3441000D01*
X5794880D01*
X5806880Y3453000D01*
Y3583950D01*
X5832930Y3610000D01*
X5876830D01*
X5902880Y3583950D01*
Y3284000D01*
X5914880Y3272000D01*
X5938880D01*
X5950880Y3284000D01*
Y3583950D01*
X5976930Y3610000D01*
X6020830D01*
X6046880Y3583950D01*
Y3453000D01*
X6058880Y3441000D01*
X6185600D01*
X6197600Y3453000D01*
Y3556000D01*
G01X4780000Y4590000D02*
X4803000Y4613000D01*
X4846960D01*
X4901960Y4668000D01*
X5211200D01*
X5250000Y4629200D01*
G01X4780000Y4660000D02*
X4803000Y4637000D01*
X4837010D01*
X4892010Y4692000D01*
X5211200D01*
X5250000Y4730800D01*
G01X5120000Y4580800D02*
X5158800Y4542000D01*
X5358000D01*
X5393430Y4506570D01*
X5410410D01*
X5498500Y4594660D01*
X5535340D01*
X5566430Y4563570D01*
Y4526730D01*
X5478340Y4438640D01*
Y4421660D01*
X5495310Y4404690D01*
X5512290D01*
X5600380Y4492780D01*
X5637220D01*
X5668310Y4461690D01*
Y4424850D01*
X5580220Y4336760D01*
Y4319780D01*
X5697000Y4203000D01*
X5823660D01*
X5849710Y4176950D01*
Y3956000D01*
X5861710Y3944000D01*
X5885710D01*
X5897710Y3956000D01*
Y4176950D01*
X5923760Y4203000D01*
X5967660D01*
X5993710Y4176950D01*
Y3956000D01*
X6005710Y3944000D01*
X6029710D01*
X6041710Y3956000D01*
Y4176950D01*
X6067760Y4203000D01*
X6185600D01*
X6197600Y4215000D01*
Y4318000D01*
G01X5120000Y4479200D02*
X5158800Y4518000D01*
X5348050D01*
X5383480Y4482570D01*
X5420360D01*
X5508450Y4570660D01*
X5525390D01*
X5542430Y4553620D01*
Y4536680D01*
X5454340Y4448590D01*
Y4411710D01*
X5485360Y4380690D01*
X5522240D01*
X5610330Y4468780D01*
X5627270D01*
X5644310Y4451740D01*
Y4434800D01*
X5556220Y4346710D01*
Y4309830D01*
X5687050Y4179000D01*
X5813710D01*
X5825710Y4167000D01*
Y3946050D01*
X5851760Y3920000D01*
X5895660D01*
X5921710Y3946050D01*
Y4167000D01*
X5933710Y4179000D01*
X5957710D01*
X5969710Y4167000D01*
Y3946050D01*
X5995760Y3920000D01*
X6039660D01*
X6065710Y3946050D01*
Y4167000D01*
X6077710Y4179000D01*
X6185600D01*
X6197600Y4167000D01*
Y4064000D01*
G01X5120000Y4779200D02*
X5158800Y4818000D01*
X5531950D01*
X5558000Y4844050D01*
Y5004000D01*
X5570000Y5016000D01*
X5594000D01*
X5606000Y5004000D01*
Y4844050D01*
X5632050Y4818000D01*
X5675950D01*
X5702000Y4844050D01*
Y5004000D01*
X5714000Y5016000D01*
X5738000D01*
X5750000Y5004000D01*
Y4844050D01*
X5776050Y4818000D01*
X5819950D01*
X5846000Y4844050D01*
Y5004000D01*
X5858000Y5016000D01*
X5882000D01*
X5894000Y5004000D01*
Y4844050D01*
X5920050Y4818000D01*
X5963950D01*
X5990000Y4844050D01*
Y5004000D01*
X6002000Y5016000D01*
X6026000D01*
X6038000Y5004000D01*
Y4762010D01*
X6113010Y4687000D01*
X6185600D01*
X6197600Y4675000D01*
Y4572000D01*
G01X5120000Y4880800D02*
X5158800Y4842000D01*
X5522000D01*
X5534000Y4854000D01*
Y5013950D01*
X5560050Y5040000D01*
X5603950D01*
X5630000Y5013950D01*
Y4854000D01*
X5642000Y4842000D01*
X5666000D01*
X5678000Y4854000D01*
Y5013950D01*
X5704050Y5040000D01*
X5747950D01*
X5774000Y5013950D01*
Y4854000D01*
X5786000Y4842000D01*
X5810000D01*
X5822000Y4854000D01*
Y5013950D01*
X5848050Y5040000D01*
X5891950D01*
X5918000Y5013950D01*
Y4854000D01*
X5930000Y4842000D01*
X5954000D01*
X5966000Y4854000D01*
Y5013950D01*
X5992050Y5040000D01*
X6035950D01*
X6062000Y5013950D01*
Y4771960D01*
X6122960Y4711000D01*
X6185600D01*
X6197600Y4723000D01*
Y4826000D01*
G01X4780000Y4850000D02*
X4803000Y4827000D01*
X4824000D01*
X4840000Y4843000D01*
Y4880000D01*
X4952000Y4992000D01*
X5211200D01*
X5250000Y5030800D01*
G01X4780000Y4780000D02*
X4803000Y4803000D01*
X4833950D01*
X4864000Y4833050D01*
Y4870050D01*
X4961950Y4968000D01*
X5006080D01*
G02X5015830Y4958250I0J-9750D01*
G03X5025580Y4948500I9750J0D01*
G01X5042080D01*
G03X5051830Y4958250I0J9750D01*
G02X5061580Y4968000I9750J0D01*
G01X5211200D01*
X5250000Y4929200D01*
G01X5120000Y5180800D02*
X5158800Y5142000D01*
X5288040D01*
X5619040Y5473000D01*
X5681420D01*
X5707470Y5446950D01*
Y5346000D01*
X5719470Y5334000D01*
X5743470D01*
X5755470Y5346000D01*
Y5585950D01*
X5781520Y5612000D01*
X5825420D01*
X5851470Y5585950D01*
Y5346000D01*
X5863470Y5334000D01*
X5887470D01*
X5899470Y5346000D01*
Y5585950D01*
X5925520Y5612000D01*
X5969420D01*
X5995470Y5585950D01*
Y5346000D01*
X6007470Y5334000D01*
X6031470D01*
X6043470Y5346000D01*
Y5446950D01*
X6069520Y5473000D01*
X6185600D01*
X6197600Y5485000D01*
Y5588000D01*
G01X5120000Y5079200D02*
X5158800Y5118000D01*
X5297990D01*
X5628990Y5449000D01*
X5671470D01*
X5683470Y5437000D01*
Y5336050D01*
X5709520Y5310000D01*
X5753420D01*
X5779470Y5336050D01*
Y5576000D01*
X5791470Y5588000D01*
X5815470D01*
X5827470Y5576000D01*
Y5336050D01*
X5853520Y5310000D01*
X5897420D01*
X5923470Y5336050D01*
Y5576000D01*
X5935470Y5588000D01*
X5959470D01*
X5971470Y5576000D01*
Y5336050D01*
X5997520Y5310000D01*
X6041420D01*
X6067470Y5336050D01*
Y5437000D01*
X6079470Y5449000D01*
X6185600D01*
X6197600Y5437000D01*
Y5334000D01*
G01X5120000Y5480800D02*
X5158800Y5442000D01*
X5318040D01*
X5396000Y5519960D01*
Y5829960D01*
X5547040Y5981000D01*
X5632860D01*
X5658910Y5954950D01*
Y5816000D01*
X5670910Y5804000D01*
X5694910D01*
X5706910Y5816000D01*
Y5954950D01*
X5732960Y5981000D01*
X5776860D01*
X5802910Y5954950D01*
Y5816000D01*
X5814910Y5804000D01*
X5838910D01*
X5850910Y5816000D01*
Y5954950D01*
X5876960Y5981000D01*
X5920860D01*
X5946910Y5954950D01*
Y5816000D01*
X5958910Y5804000D01*
X5982910D01*
X5994910Y5816000D01*
Y5954950D01*
X6020960Y5981000D01*
X6185600D01*
X6197600Y5993000D01*
Y6096000D01*
G01X5120000Y5379200D02*
X5158800Y5418000D01*
X5327990D01*
X5420000Y5510010D01*
Y5820010D01*
X5556990Y5957000D01*
X5622910D01*
X5634910Y5945000D01*
Y5806050D01*
X5660960Y5780000D01*
X5704860D01*
X5730910Y5806050D01*
Y5945000D01*
X5742910Y5957000D01*
X5766910D01*
X5778910Y5945000D01*
Y5806050D01*
X5804960Y5780000D01*
X5848860D01*
X5874910Y5806050D01*
Y5945000D01*
X5886910Y5957000D01*
X5910910D01*
X5922910Y5945000D01*
Y5806050D01*
X5948960Y5780000D01*
X5992860D01*
X6018910Y5806050D01*
Y5945000D01*
X6030910Y5957000D01*
X6185600D01*
X6197600Y5945000D01*
Y5842000D01*
G01X6451600Y1778000D02*
Y1675000D01*
X6439600Y1663000D01*
X6400960D01*
X6334000Y1729960D01*
Y1836000D01*
X6254000Y1916000D01*
X6127960D01*
X5340000Y2703960D01*
Y3465950D01*
X5313950Y3492000D01*
X5288800D01*
X5250000Y3530800D01*
G01X6451600Y1524000D02*
Y1627000D01*
X6439600Y1639000D01*
X6391010D01*
X6310000Y1720010D01*
Y1826050D01*
X6244050Y1892000D01*
X6118010D01*
X5316000Y2694010D01*
Y3456000D01*
X5304000Y3468000D01*
X5288800D01*
X5250000Y3429200D01*
G01Y3729200D02*
X5288800Y3768000D01*
X5388050D01*
X5456000Y3700050D01*
Y2954010D01*
X6010010Y2400000D01*
X6256050D01*
X6310000Y2346050D01*
Y2190010D01*
X6353010Y2147000D01*
X6439600D01*
X6451600Y2135000D01*
Y2032000D01*
G01X5250000Y3830800D02*
X5288800Y3792000D01*
X5398000D01*
X5480000Y3710000D01*
Y2963960D01*
X6019960Y2424000D01*
X6266000D01*
X6334000Y2356000D01*
Y2199960D01*
X6362960Y2171000D01*
X6439600D01*
X6451600Y2183000D01*
Y2286000D01*
G01X5250000Y4029200D02*
X5288800Y4068000D01*
X5398050D01*
X5596000Y3870050D01*
Y3220050D01*
X5654050Y3162000D01*
X5800740D01*
X5812740Y3150000D01*
Y3066050D01*
X5838790Y3040000D01*
X5882690D01*
X5908740Y3066050D01*
Y3150000D01*
X5920740Y3162000D01*
X5944740D01*
X5956740Y3150000D01*
Y3066050D01*
X5982790Y3040000D01*
X6026690D01*
X6052740Y3066050D01*
Y3150000D01*
X6064740Y3162000D01*
X6256050D01*
X6310000Y3108050D01*
Y2952010D01*
X6353010Y2909000D01*
X6439600D01*
X6451600Y2897000D01*
Y2794000D01*
G01X5250000Y4130800D02*
X5288800Y4092000D01*
X5408000D01*
X5620000Y3880000D01*
Y3230000D01*
X5664000Y3186000D01*
X5810690D01*
X5836740Y3159950D01*
Y3076000D01*
X5848740Y3064000D01*
X5872740D01*
X5884740Y3076000D01*
Y3159950D01*
X5910790Y3186000D01*
X5954690D01*
X5980740Y3159950D01*
Y3076000D01*
X5992740Y3064000D01*
X6016740D01*
X6028740Y3076000D01*
Y3159950D01*
X6054790Y3186000D01*
X6266000D01*
X6334000Y3118000D01*
Y2961960D01*
X6362960Y2933000D01*
X6439600D01*
X6451600Y2945000D01*
Y3048000D01*
G01Y3302000D02*
Y3405000D01*
X6439600Y3417000D01*
X6383010D01*
X6310000Y3490010D01*
Y3616050D01*
X6256050Y3670000D01*
X6045530D01*
X6019480Y3696050D01*
Y3834000D01*
X6007480Y3846000D01*
X5983480D01*
X5971480Y3834000D01*
Y3696050D01*
X5945430Y3670000D01*
X5796050D01*
X5736000Y3730050D01*
Y4000050D01*
X5368050Y4368000D01*
X5288800D01*
X5250000Y4329200D01*
G01X6451600Y3556000D02*
Y3453000D01*
X6439600Y3441000D01*
X6392960D01*
X6334000Y3499960D01*
Y3626000D01*
X6266000Y3694000D01*
X6055480D01*
X6043480Y3706000D01*
Y3843950D01*
X6017430Y3870000D01*
X5973530D01*
X5947480Y3843950D01*
Y3706000D01*
X5935480Y3694000D01*
X5806000D01*
X5760000Y3740000D01*
Y4010000D01*
X5378000Y4392000D01*
X5288800D01*
X5250000Y4430800D01*
G01X6451600Y4064000D02*
Y4167000D01*
X6439600Y4179000D01*
X6391010D01*
X6310000Y4260010D01*
Y4378050D01*
X6256050Y4432000D01*
X6128000D01*
X6100550Y4459450D01*
X6053570D01*
X5900480Y4306360D01*
X5863640D01*
X5832550Y4337450D01*
Y4374290D01*
X5985640Y4527380D01*
Y4544360D01*
X5968670Y4561330D01*
X5951690D01*
X5798600Y4408240D01*
X5761760D01*
X5730670Y4439330D01*
Y4476170D01*
X5883760Y4629260D01*
Y4646240D01*
X5862000Y4668000D01*
X5288800D01*
X5250000Y4629200D01*
G01X6451600Y4318000D02*
Y4215000D01*
X6439600Y4203000D01*
X6400960D01*
X6334000Y4269960D01*
Y4388000D01*
X6266000Y4456000D01*
X6137950D01*
X6110500Y4483450D01*
X6043620D01*
X5890530Y4330360D01*
X5873590D01*
X5856550Y4347400D01*
Y4364340D01*
X6009640Y4517430D01*
Y4554310D01*
X5978620Y4585330D01*
X5941740D01*
X5788650Y4432240D01*
X5771710D01*
X5754670Y4449280D01*
Y4466220D01*
X5907760Y4619310D01*
Y4656190D01*
X5871950Y4692000D01*
X5288800D01*
X5250000Y4730800D01*
G01Y5030800D02*
X5288800Y4992000D01*
X5318050D01*
X5546050Y5220000D01*
X5638600D01*
X5664650Y5193950D01*
Y5126000D01*
X5676650Y5114000D01*
X5700650D01*
X5712650Y5126000D01*
Y5193950D01*
X5738700Y5220000D01*
X5782600D01*
X5808650Y5193950D01*
Y5126000D01*
X5820650Y5114000D01*
X5844650D01*
X5856650Y5126000D01*
Y5193950D01*
X5882700Y5220000D01*
X5926600D01*
X5952650Y5193950D01*
Y5126000D01*
X5964650Y5114000D01*
X5988650D01*
X6000650Y5126000D01*
Y5193950D01*
X6026700Y5220000D01*
X6273950D01*
X6334000Y5159950D01*
Y4739960D01*
X6362960Y4711000D01*
X6439600D01*
X6451600Y4723000D01*
Y4826000D01*
G01X5250000Y4929200D02*
X5288800Y4968000D01*
X5328000D01*
X5556000Y5196000D01*
X5628650D01*
X5640650Y5184000D01*
Y5116050D01*
X5666700Y5090000D01*
X5710600D01*
X5736650Y5116050D01*
Y5184000D01*
X5748650Y5196000D01*
X5772650D01*
X5784650Y5184000D01*
Y5116050D01*
X5810700Y5090000D01*
X5854600D01*
X5880650Y5116050D01*
Y5184000D01*
X5892650Y5196000D01*
X5916650D01*
X5928650Y5184000D01*
Y5116050D01*
X5954700Y5090000D01*
X5998600D01*
X6024650Y5116050D01*
Y5184000D01*
X6036650Y5196000D01*
X6264000D01*
X6310000Y5150000D01*
Y4730010D01*
X6353010Y4687000D01*
X6439600D01*
X6451600Y4675000D01*
Y4572000D01*
G01X5250000Y5630800D02*
X5288800Y5592000D01*
X5308050D01*
X5326000Y5609950D01*
Y5899950D01*
X5660050Y6234000D01*
X5766220D01*
X5792270Y6207950D01*
Y6086000D01*
X5804270Y6074000D01*
X5828270D01*
X5840270Y6086000D01*
Y6207950D01*
X5866320Y6234000D01*
X5910220D01*
X5936270Y6207950D01*
Y6086000D01*
X5948270Y6074000D01*
X5972270D01*
X5984270Y6086000D01*
Y6207950D01*
X6010320Y6234000D01*
X6266000D01*
X6334000Y6166000D01*
Y6009960D01*
X6362960Y5981000D01*
X6439600D01*
X6451600Y5993000D01*
Y6096000D01*
G01X5250000Y5529200D02*
X5288800Y5568000D01*
X5318000D01*
X5350000Y5600000D01*
Y5890000D01*
X5670000Y6210000D01*
X5756270D01*
X5768270Y6198000D01*
Y6076050D01*
X5794320Y6050000D01*
X5838220D01*
X5864270Y6076050D01*
Y6198000D01*
X5876270Y6210000D01*
X5900270D01*
X5912270Y6198000D01*
Y6076050D01*
X5938320Y6050000D01*
X5982220D01*
X6008270Y6076050D01*
Y6198000D01*
X6020270Y6210000D01*
X6256050D01*
X6310000Y6156050D01*
Y6000010D01*
X6353010Y5957000D01*
X6439600D01*
X6451600Y5945000D01*
Y5842000D01*
G01Y5334000D02*
Y5437000D01*
X6439600Y5449000D01*
X6381010D01*
X6310000Y5520010D01*
Y5648050D01*
X6256050Y5702000D01*
X5676700D01*
X5664700Y5690000D01*
Y5580050D01*
X5638650Y5554000D01*
X5594750D01*
X5568700Y5580050D01*
Y5690000D01*
X5556700Y5702000D01*
X5510990D01*
X5490000Y5681010D01*
Y5440010D01*
X5317990Y5268000D01*
X5288800D01*
X5250000Y5229200D01*
G01X6451600Y5588000D02*
Y5485000D01*
X6439600Y5473000D01*
X6390960D01*
X6334000Y5529960D01*
Y5658000D01*
X6266000Y5726000D01*
X5666750D01*
X5640700Y5699950D01*
Y5590000D01*
X5628700Y5578000D01*
X5604700D01*
X5592700Y5590000D01*
Y5699950D01*
X5566650Y5726000D01*
X5501040D01*
X5466000Y5690960D01*
Y5449960D01*
X5308040Y5292000D01*
X5288800D01*
X5250000Y5330800D01*
G54D29*
X4055000Y1490000D03*
X4005000D03*
X3955000D03*
X3905000D03*
X3855000D03*
X3805000D03*
X3755000D03*
Y2630000D03*
X3805000D03*
X3855000D03*
X3905000D03*
X3955000D03*
X4005000D03*
X4055000D03*
X4505000Y1490000D03*
X4455000D03*
X4405000D03*
X4355000D03*
X4305000D03*
X4255000D03*
X4205000D03*
X4155000D03*
X4105000D03*
Y2630000D03*
X4155000D03*
X4205000D03*
X4255000D03*
X4305000D03*
X4355000D03*
X4405000D03*
X4455000D03*
X4505000D03*
G54D39*
G01X3290000Y3980000D02*
X3250000Y3940000D01*
G01X3490000Y4100000D02*
X3450000Y4140000D01*
G01X3370000Y4060000D02*
X3450000Y4140000D01*
G01X3370000Y4060000D02*
X3290000Y3980000D01*
G01X3210000Y3900000D02*
X3250000Y3860000D01*
G01X3530000Y4220000D02*
X3490000Y4260000D01*
G01X3610000Y4300000D02*
X3530000Y4220000D01*
G01X3450000D02*
X3490000Y4180000D01*
G01X3290000Y5020000D02*
X3250000Y5060000D01*
G01X3370000Y4940000D02*
X3330000Y4980000D01*
G01X3450000Y4860000D02*
X3410000Y4820000D01*
G01X3530000Y4780000D02*
X3570000Y4820000D01*
G01Y4740000D02*
X3530000Y4780000D01*
G01X3330000Y4980000D02*
X3290000Y5020000D01*
G01X3450000Y4860000D02*
X3370000Y4940000D01*
G01X3450000Y4780000D02*
X3490000Y4820000D01*
G01X3530000Y4860000D02*
X3570000Y4900000D01*
G01X3210000Y5100000D02*
X3250000Y5140000D01*
G01X4090000Y4140000D02*
X4050000Y4100000D01*
G01X3850000Y4460000D02*
X3810000Y4500000D01*
G01X3850000Y4460000D02*
X3810000Y4420000D01*
G01Y4500000D02*
X3770000Y4540000D01*
G01Y4460000D02*
X3810000Y4500000D01*
G01X3770000Y4540000D02*
X3810000Y4580000D01*
G01X3890000Y4420000D02*
X3850000Y4460000D01*
G01Y4540000D02*
X3810000Y4500000D01*
G01X4090000Y4220000D02*
X4050000Y4260000D01*
G01X3810000Y4580000D02*
X3850000Y4540000D01*
G01X3810000Y4420000D02*
X3770000Y4460000D01*
G01X4130000Y4180000D02*
X4090000Y4220000D01*
G01X4050000Y4260000D02*
X4010000Y4300000D01*
G01X3690000Y4460000D02*
X3650000Y4500000D01*
G01X3690000Y4540000D02*
X3650000Y4580000D01*
G01Y4500000D02*
X3690000Y4540000D01*
G01X3850000Y4620000D02*
X3810000Y4660000D01*
G01X3890000D02*
X3850000Y4620000D01*
G01X3810000Y4660000D02*
X3770000Y4620000D01*
G01X3930000Y4540000D02*
X3970000Y4500000D01*
G01Y4580000D02*
X3930000Y4540000D01*
G01X3970000Y4500000D02*
X3930000Y4460000D01*
G01X3690000Y4620000D02*
X3730000Y4580000D01*
G01X3690000Y4380000D02*
X3650000Y4340000D01*
G01X3930000Y4380000D02*
X3890000Y4340000D01*
G01X3930000Y4620000D02*
X3970000Y4660000D01*
G01X3770000Y4380000D02*
X3730000Y4340000D01*
G01X3850000Y4380000D02*
X3810000Y4340000D01*
G01D02*
X3770000Y4380000D01*
G01X3610000Y4700000D02*
X3570000Y4740000D01*
G01X4010000Y4700000D02*
X4050000Y4660000D01*
G01X4090000Y4780000D02*
X4050000Y4740000D01*
G01D02*
X4010000Y4700000D01*
G01X4090000Y4780000D02*
X4170000Y4860000D01*
G01X4090000D02*
X4050000Y4900000D01*
G01X4330000Y3980000D02*
X4290000Y4020000D01*
G01X4250000Y4060000D02*
X4210000Y4100000D01*
G01X4290000Y4020000D02*
X4250000Y4060000D01*
G01X4210000Y4100000D02*
X4170000Y4140000D01*
G01X4330000Y3980000D02*
X4370000Y4020000D01*
G01X4330000Y3980000D02*
X4370000Y3940000D01*
G01X4410000Y3900000D02*
X4370000Y3860000D01*
G01X4170000Y4140000D02*
X4130000Y4180000D01*
G01X4170000Y4220000D02*
X4210000Y4180000D01*
G01X4170000Y4860000D02*
X4130000Y4900000D01*
G01X4330000Y5020000D02*
X4290000Y4980000D01*
G01X4370000Y5060000D02*
X4330000Y5020000D01*
G01X4370000Y4980000D02*
X4330000Y5020000D01*
G01X4290000Y4980000D02*
X4250000Y4940000D01*
G01X4170000Y4860000D02*
X4250000Y4940000D01*
G01X4170000Y4780000D02*
X4210000Y4820000D01*
G01X4410000Y5100000D02*
X4370000Y5140000D01*
G01Y5220000D02*
Y5140000D01*
M02*
